<?xml version="1.0" encoding="UTF-8"?><svg id="Ebene_1" xmlns="http://www.w3.org/2000/svg" viewBox="0 0 24 24"><defs><style>.cls-1{stroke-miterlimit:10;}.cls-1,.cls-2{fill:none;stroke:#2c2c2c;stroke-linecap:round;stroke-width:.5px;}.cls-2{stroke-linejoin:round;}</style></defs><polyline class="cls-2" points="18.92 10.5 18.92 19.74 5.4 19.74 5.4 10.5"/><polyline class="cls-2" points="3.78 11.7 12.16 4.17 20.55 11.7"/><polyline class="cls-2" points="15.11 6.84 15.11 4.56 16.95 4.56 16.95 8.45"/><path class="cls-2" d="m15.05,11.89c0,.28-.04.55-.13.8-.04,0-.08,0-.12,0-.98,0-1.81.74-1.92,1.69-.11.03-.23.03-.35.03-1.4,0-2.52-1.13-2.52-2.52s1.12-2.52,2.52-2.52,2.52,1.12,2.52,2.52Z"/><path class="cls-2" d="m16.72,14.6c0,1.06-.86,1.93-1.92,1.93s-1.93-.86-1.93-1.93c0-.08,0-.15,0-.22.11-.96.93-1.69,1.92-1.69.04,0,.08,0,.12,0,1,.06,1.8.89,1.8,1.91Z"/><path class="cls-1" d="m10.87,11.93c0-.9.73-1.63,1.63-1.63"/><path class="cls-1" d="m13.79,14.23c0-.35.28-.63.63-.63"/><line class="cls-1" x1="8.08" y1="11.76" x2="8.08" y2="12.89"/><line class="cls-1" x1="8.64" y1="12.32" x2="7.51" y2="12.32"/><line class="cls-1" x1="12.56" y1="16.57" x2="12.56" y2="17.7"/><line class="cls-1" x1="13.13" y1="17.13" x2="12" y2="17.13"/><path class="cls-2" d="m9.66,16.93s-.29-.86-.49-1.07-1.09-.51-1.09-.51c0,0,.87-.28,1.09-.49s.5-1.09.5-1.09c0,0,.39.78.59.99s.99.6.99.6c0,0-.82.37-1.02.58s-.56,1-.56,1Z"/></svg>