<?xml version="1.0" encoding="UTF-8"?><svg xmlns="http://www.w3.org/2000/svg" viewBox="0 0 24 24"><defs><style>.cls-1{fill:none;stroke:#2c2c2c;stroke-linecap:round;stroke-linejoin:round;stroke-width:.5px;}</style></defs><g id="Ebene_1"><polyline class="cls-1" points="9.84 7.78 11.59 7.78 9.59 10.08 11.88 10.08"/><polyline class="cls-1" points="12.96 5.83 14.31 5.83 12.78 7.61 14.53 7.61"/><polyline class="cls-1" points="15.64 4.24 16.59 4.24 15.51 5.48 16.74 5.48"/></g><g id="Ebene_2"><path class="cls-1" d="m20.01,14.15c-.96,3.39-4.07,5.86-7.76,5.86-4.46,0-8.07-3.6-8.07-8.06,0-3.79,2.61-6.96,6.13-7.82-1.52,1.29-2.49,3.21-2.49,5.35,0,3.86,3.13,6.99,6.99,6.99,2.06,0,3.91-.89,5.2-2.32Z"/><path class="cls-1" d="m20.01,14.15c-1.29,1.42-3.14,2.32-5.2,2.32-3.86,0-6.99-3.13-6.99-6.99,0-2.14.97-4.06,2.49-5.35"/></g></svg>