<?xml version="1.0" encoding="UTF-8"?><svg id="Ebene_1" xmlns="http://www.w3.org/2000/svg" viewBox="0 0 24 24"><defs><style>.cls-1{fill:none;stroke:#2c2c2c;stroke-linecap:round;stroke-linejoin:round;stroke-width:.5px;}</style></defs><path class="cls-1" d="m20.16,16.96v1.46h-5.73l-7.9-7.99c-.35-.35-.35-.93,0-1.28l2.37-2.37s1.42-1.65,1.77-1.29c0,0,.28.1.32.58.04.59-.71,1.74,1,2.65,2.19,1.16,2.59-.22,2.86.19,0,0,2.74,5.32,2.76,5.36,1.43.08,2.55,1.25,2.55,2.7Z"/><line class="cls-1" x1="14.55" y1="10.71" x2="15.42" y2="10.3"/><line class="cls-1" x1="15.2" y1="12.17" x2="16.08" y2="11.76"/><line class="cls-1" x1="15.83" y1="13.61" x2="16.7" y2="13.21"/><line class="cls-1" x1="4.47" y1="6.17" x2="6.9" y2="6.17"/><line class="cls-1" x1="4.19" y1="11.91" x2="6.25" y2="11.91"/><line class="cls-1" x1="6.08" y1="15.78" x2="9.84" y2="15.78"/><polyline class="cls-1" points="6.79 18.47 20.16 18.47 20.14 17.36 15.38 17.36 6.96 8.92"/></svg>