<?xml version="1.0" encoding="UTF-8"?><svg id="Ebene_2" xmlns="http://www.w3.org/2000/svg" viewBox="0 0 24 24"><defs><style>.cls-1{stroke-linecap:round;stroke-linejoin:round;}.cls-1,.cls-2{fill:none;stroke:#2c2c2c;stroke-width:.5px;}.cls-2{stroke-miterlimit:10;}</style></defs><path class="cls-2" d="m14.32,12.07c0-1.53.39-2.77,1.53-2.77,1.04,0,1.54,1.23,1.54,2.77"/><polyline class="cls-1" points="11.9 6.46 11.9 4.13 19.8 4.13 19.8 12.01 17.39 12.01"/><polyline class="cls-1" points="14.32 12.01 11.9 12.01 11.9 9.69"/><path class="cls-2" d="m11.86,14.45c1.53,0,2.77.39,2.77,1.55,0,1.05-1.23,1.56-2.77,1.56"/><polyline class="cls-1" points="17.44 12 19.8 12 19.8 20.01 11.92 20.01 11.92 17.56"/><polyline class="cls-1" points="11.92 14.45 11.92 12 14.22 12"/><path class="cls-2" d="m9.48,12c0,1.54-.39,2.79-1.53,2.79-1.04,0-1.54-1.24-1.54-2.79"/><polyline class="cls-1" points="11.9 17.62 11.9 20 4 20 4 12.06 6.41 12.06"/><polyline class="cls-1" points="9.48 12.06 11.9 12.06 11.9 14.41"/><path class="cls-2" d="m11.95,9.63c-1.53,0-2.77-.39-2.77-1.53,0-1.04,1.23-1.54,2.77-1.54"/><line class="cls-1" x1="11.89" y1="6.45" x2="11.89" y2="6.56"/><polyline class="cls-1" points="6.37 12.05 4.01 12.05 4.01 4.14 11.89 4.14 11.89 6.45"/><polyline class="cls-1" points="11.89 9.63 11.89 12.05 9.56 12.05"/></svg>