<?xml version="1.0" encoding="UTF-8"?><svg id="Ebene_2" xmlns="http://www.w3.org/2000/svg" viewBox="0 0 24 24"><defs><style>.cls-1{stroke-miterlimit:10;}.cls-1,.cls-2{fill:none;stroke:#2c2c2c;stroke-linecap:round;stroke-width:.5px;}.cls-2{stroke-linejoin:round;}</style></defs><path class="cls-1" d="m12.05,5.45c1.08-.08,2.02-.14,3.17.37.74.33,1.32,1.14,1.63,1.63.27.43.58,1.42.67,1.92.1.58-.15,1.77,0,2.33.13.49,1.24,2.03,1.02,2.29-.14.16-.41.09-.51.16-.09.06-.17.27-.17.38,0,.14.19.3.12.43-.05.09-.41.11-.44.21s.26.26.24.35c-.02.1-.25.13-.3.22-.16.28.11,1.07-.13,1.29-.47.44-2.01-.21-2.58.08-.18.09-.43.44-.5.63-.17.47,0,1.5,0,2"/><path class="cls-1" d="m8.68,19.65s.2-3.36-.13-4.42c-.26-.86-1.49-2.1-1.67-3.21-.07-.48-.16-1.17-.12-1.87"/><path class="cls-2" d="m11.36,5.91c0,.22-.07.46-.19.71-.05,0-.09,0-.14,0-.47,0-.88.52-1.06.92-.19-.4-.59-.92-1.07-.92-.65,0-1.17.53-1.17,1.18,0,.52.46,1.12.96,1.62-.45.36-.77.6-.77.6,0,0-3.44-2.32-3.44-4.1,0-.99.81-1.8,1.81-1.8.72,0,1.35.79,1.63,1.41.29-.62.91-1.41,1.64-1.41,1,0,1.8.81,1.8,1.8Z"/><path class="cls-2" d="m12.21,7.79c0,1.04-2.24,2.67-2.24,2.67,0,0-.67-.45-1.28-1.05-.5-.5-.96-1.1-.96-1.62,0-.65.52-1.18,1.17-1.18.48,0,.88.52,1.07.92.18-.4.59-.92,1.06-.92.05,0,.09,0,.14,0,.58.07,1.04.57,1.04,1.17Z"/></svg>