<?xml version="1.0" encoding="UTF-8"?><svg id="Ebene_2" xmlns="http://www.w3.org/2000/svg" viewBox="0 0 24 24"><defs><style>.cls-1{stroke-miterlimit:10;}.cls-1,.cls-2,.cls-3,.cls-4{stroke:#2c2c2c;stroke-linecap:round;stroke-width:.5px;}.cls-1,.cls-3{fill:#fff;}.cls-2{fill:#2c2c2c;}.cls-2,.cls-3,.cls-4{stroke-linejoin:round;}.cls-4{fill:none;}</style></defs><path class="cls-3" d="m13.59,7.46c.83-.05,1.59-.06,2.49.34.64.29,1.15.99,1.41,1.41.23.37.51,1.23.58,1.67.08.5-.13,1.54,0,2.03.11.42,1.08,1.77.88,1.99-.12.14-.36.08-.44.14-.08.06-.14.23-.15.33,0,.12.16.26.1.37-.04.08-.36.1-.38.18s.23.22.21.31c-.02.09-.21.11-.26.19-.14.25.1.93-.11,1.12-.41.38-1.74-.18-2.24.07-.16.08-.38.38-.43.54-.14.41-.03,1.21,0,1.65"/><path class="cls-1" d="m10.57,19.89s0-2.99-.28-3.91c-.23-.75-1.3-1.82-1.45-2.79-.04-.23-.07-.51-.1-.82"/><path class="cls-4" d="m8.94,9.3c0,.73.59,1.32,1.32,1.32s1.32-.59,1.32-1.32c0-.72-.59-1.31-1.32-1.31s-1.32.59-1.32,1.31Z"/><path class="cls-4" d="m8.94,9.3c0,.73.59,1.32,1.32,1.32s1.32-.59,1.32-1.32c0-.72-.59-1.31-1.32-1.31s-1.32.59-1.32,1.31Z"/><path class="cls-4" d="m9.47,6.81c-.18.06-.34.13-.5.23l-.87-.59-.61.61.58.87c-.12.2-.22.42-.28.66l-1.04.2v.87s1.02.2,1.02.2c.06.26.16.5.29.72l-.58.85.61.61.85-.57c.22.14.47.25.74.31l.19,1h.87s.2-1.02.2-1.02c.25-.06.47-.16.68-.28l.86.58.62-.62-.59-.87c.12-.21.22-.45.28-.71l1.02-.2v-.87s-1.04-.2-1.04-.2c-.06-.24-.16-.46-.28-.66l.6-.88-.62-.61-.88.6c-.2-.12-.42-.21-.65-.27l-.2-1.06h-.87s-.2,1.05-.2,1.05c-.07.01-.14.03-.2.05m-.51,2.45c0-.72.59-1.31,1.32-1.31s1.32.59,1.32,1.31c0,.73-.59,1.32-1.32,1.32s-1.32-.59-1.32-1.32Z"/><circle class="cls-2" cx="10.29" cy="9.24" r=".07"/><path class="cls-4" d="m9.68,5.79l-.41-.4-.68.47c-.16-.09-.33-.16-.5-.21l-.16-.82h-.67s-.16.81-.16.81c-.19.04-.38.12-.54.22l-.68-.46-.47.47.45.68c-.09.16-.17.33-.22.51l-.81.16v.68s.79.16.79.16c.05.2.12.39.22.56l-.45.66.47.47.66-.44s.08.05.12.07m.8-.77c-.51-.06-.9-.49-.9-1.02,0-.56.46-1.02,1.02-1.02.14,0,.22.01.34.06"/></svg>