<?xml version="1.0" encoding="UTF-8"?><svg id="Ebene_2" xmlns="http://www.w3.org/2000/svg" viewBox="0 0 24 24"><defs><style>.cls-1,.cls-2{fill:#2c2c2c;}.cls-1,.cls-2,.cls-3{stroke:#2c2c2c;stroke-linecap:round;stroke-linejoin:round;}.cls-2,.cls-3{stroke-width:.5px;}.cls-3{fill:none;}</style></defs><path class="cls-3" d="m16.06,19.81s0-3.71.35-4.85c.28-.93,1.61-2.26,1.79-3.46.13-.8.29-2.17-.09-3.23-.3-.84-1.08-1.92-2.2-2.78s-2.07-.99-3.28-1.07c-1.16-.08-2.17-.15-3.41.4-.8.35-1.42,1.23-1.75,1.75-.29.46-.63,1.53-.72,2.06-.1.62.16,1.91,0,2.51-.14.52-1.34,2.19-1.1,2.47.15.18.44.09.55.17.09.07.18.29.19.41.01.15-.2.33-.13.46.05.1.44.12.47.22s-.28.28-.26.38c.02.11.27.14.32.24.17.3-.12,1.15.13,1.39.51.48,2.16-.22,2.78.09.19.1.47.47.54.67.18.51.03,1.5,0,2.04"/><circle class="cls-2" cx="12.13" cy="11.61" r="2.03"/><line class="cls-1" x1="12.54" y1="10.19" x2="13.87" y2="4.38"/></svg>