<?xml version="1.0" encoding="UTF-8"?><svg id="Ebene_1" xmlns="http://www.w3.org/2000/svg" viewBox="0 0 24 24"><defs><style>.cls-1,.cls-2{stroke-linecap:round;}.cls-1,.cls-2,.cls-3{fill:none;stroke:#2c2c2c;stroke-width:.5px;}.cls-1,.cls-3{stroke-miterlimit:10;}.cls-2{stroke-linejoin:round;}.cls-4{fill:#2c2c2c;stroke-width:0px;}</style></defs><path class="cls-2" d="m6.69,7.69h3.8v4.99c0,.72-.58,1.3-1.3,1.3h-1.2c-.72,0-1.3-.58-1.3-1.3v-4.99h0Z" transform="translate(4.38 -2.34) rotate(20.7)"/><polyline class="cls-2" points="7.58 13.99 6.7 16.82 8.27 18.21 8.17 18.56 4.35 17.43 4.49 17.06 6.64 16.81"/><line class="cls-3" x1="6.98" y1="10.14" x2="10.7" y2="10.11"/><line class="cls-1" x1="10.22" y1="5.93" x2="10.67" y2="6.82"/><line class="cls-1" x1="12.16" y1="5.44" x2="12.16" y2="6.44"/><line class="cls-1" x1="14.3" y1="6" x2="13.88" y2="6.9"/><circle class="cls-4" cx="7.64" cy="11.52" r=".27"/><circle class="cls-4" cx="9.31" cy="11.3" r=".27"/><circle class="cls-4" cx="8.77" cy="12.62" r=".27"/><path class="cls-2" d="m15.16,7.86h1.2c.72,0,1.3.58,1.3,1.3v4.99h-3.8v-4.99c0-.72.58-1.3,1.3-1.3Z" transform="translate(34.39 15.73) rotate(159.3)"/><polyline class="cls-2" points="16.76 14.16 17.65 16.99 16.08 18.39 16.18 18.73 20 17.6 19.86 17.23 17.7 16.98"/><line class="cls-3" x1="17.36" y1="10.31" x2="13.65" y2="10.28"/><circle class="cls-4" cx="16.71" cy="11.7" r=".27"/><circle class="cls-4" cx="15.04" cy="11.47" r=".27"/><circle class="cls-4" cx="15.58" cy="12.79" r=".27"/></svg>