<?xml version="1.0" encoding="UTF-8"?><svg id="Ebene_2" xmlns="http://www.w3.org/2000/svg" viewBox="0 0 24 24"><defs><style>.cls-1{stroke-linecap:round;}.cls-1,.cls-2{fill:none;stroke:#2c2c2c;stroke-miterlimit:10;stroke-width:.5px;}.cls-3{fill:#2c2c2c;stroke-width:0px;}</style></defs><path class="cls-2" d="m19.71,11.84v3.35c0,.68-.46,1.23-1.02,1.23H5.62c-.56,0-1.02-.55-1.02-1.23v-3.62"/><path class="cls-2" d="m17.64,13.6c0-.07,0-5.19,0-5.26-.06-1.28-.7-2.29-1.48-2.29h-8.02c-.82,0-1.48,1.12-1.48,2.5v5.07"/><path class="cls-2" d="m4.6,12.18v-.41c0-.5.43-.91.97-.91h.12c.54,0,.97.41.97.91v.41"/><path class="cls-2" d="m17.64,12.2v-.43c0-.5.45-.91.99-.91h.12c.54,0,.98.41.98.91v.41"/><line class="cls-2" x1="17.84" y1="13.42" x2="6.68" y2="13.42"/><line class="cls-1" x1="6.79" y1="16.63" x2="6.79" y2="17.85"/><line class="cls-1" x1="17.52" y1="16.63" x2="17.52" y2="17.85"/><rect class="cls-3" x="6.24" y="16.26" width=".82" height="1.91" rx=".41" ry=".41"/><rect class="cls-3" x="17.28" y="16.26" width=".82" height="1.91" rx=".41" ry=".41"/></svg>