<?xml version="1.0" encoding="UTF-8"?><svg id="Ebene_2" xmlns="http://www.w3.org/2000/svg" viewBox="0 0 24 24"><defs><style>.cls-1{fill:none;stroke:#2c2c2c;stroke-linecap:round;stroke-linejoin:round;stroke-width:.5px;}</style></defs><polyline class="cls-1" points="5.13 9.31 5.13 5.92 10.98 8.74 10.98 19.42 5.13 16.7 5.13 14.2"/><polyline class="cls-1" points="11.81 8.51 12.9 8.51 12.9 19.68 11.02 19.68 11.02 8.51 11.81 8.51"/><path class="cls-1" d="m6.23,6.32v-2.02s2.37.87,3.1,1.27c1.56.86,2.69,2.04,2.69,2.04v.79"/><rect class="cls-1" x="4.25" y="9.46" width="2.36" height="1.08" rx=".41" ry=".41"/><rect class="cls-1" x="4.25" y="11.94" width="2.36" height="1.08" rx=".41" ry=".41"/><path class="cls-1" d="m5.1,14.18h-.44c-.23,0-.41-.18-.41-.41v-.26c0-.23.18-.41.41-.41h1.22c.23,0,.41.18.41.41v.26c0,.23-.18.41-.41.41h-.78"/><rect class="cls-1" x="4.25" y="10.58" width="2.88" height="1.28" rx=".58" ry=".58"/><polyline class="cls-1" points="18.9 9.27 18.9 5.9 12.91 8.72 12.91 19.4 18.9 16.68 18.9 14.3"/><path class="cls-1" d="m17.8,6.27v-2s-2.35.87-3.07,1.27c-1.55.86-2.67,2.04-2.67,2.04v.79"/><rect class="cls-1" x="17.41" y="9.44" width="2.36" height="1.08" rx=".41" ry=".41" transform="translate(37.19 19.96) rotate(-180)"/><rect class="cls-1" x="17.41" y="11.91" width="2.36" height="1.08" rx=".41" ry=".41" transform="translate(37.19 24.91) rotate(-180)"/><path class="cls-1" d="m18.92,14.15h.44c.23,0,.41-.18.41-.41v-.26c0-.23-.18-.41-.41-.41h-1.22c-.23,0-.41.18-.41.41v.26c0,.23.18.41.41.41h.78"/><rect class="cls-1" x="16.89" y="10.56" width="2.88" height="1.28" rx=".58" ry=".58" transform="translate(36.67 22.39) rotate(-180)"/></svg>