<svg xmlns="http://www.w3.org/2000/svg" viewBox="0 0 490 468.7"><defs><style>.cls-1{fill:#131315;}</style></defs><g id="Layer_2" data-name="Layer 2"><g id="Layer_1-2" data-name="Layer 1"><path class="cls-1" d="M324.89,250.33H16a16,16,0,1,1,0-32H324.89a16,16,0,1,1,0,32Z"/><path class="cls-1" d="M239.67,335.54a16,16,0,0,1-11.29-27.29l73.93-73.92L228.38,160.4A16,16,0,0,1,251,137.8L336.2,223a16,16,0,0,1,0,22.6L251,330.84A15.89,15.89,0,0,1,239.67,335.54Z"/><path class="cls-1" d="M255.65,468.7c-97,0-182.55-58.33-218.11-148.62A16,16,0,1,1,67.28,308.4c30.7,78,104.65,128.34,188.37,128.34,111.59,0,202.39-90.8,202.39-202.39S367.24,32,255.65,32C171.93,32,98,82.34,67.28,160.29a16,16,0,1,1-29.74-11.67C73.1,58.33,158.69,0,255.65,0,384.86,0,490,105.14,490,234.35S384.86,468.7,255.65,468.7Z"/></g></g></svg>