<?xml version="1.0" encoding="UTF-8"?><svg id="Ebene_1" xmlns="http://www.w3.org/2000/svg" viewBox="0 0 24 24"><defs><style>.cls-1{stroke-linecap:round;}.cls-1,.cls-2,.cls-3{stroke:#2c2c2c;stroke-miterlimit:10;stroke-width:.5px;}.cls-1,.cls-3{fill:none;}.cls-2,.cls-4{fill:#2c2c2c;}.cls-4{stroke-width:0px;}</style></defs><circle class="cls-4" cx="12.24" cy="11.84" r="1.65"/><circle class="cls-2" cx="12.24" cy="11.84" r="2.69"/><path class="cls-3" d="m13.38,9.21s.84-2.58,1.51-3.14c.42-.35,1.58-.73,2.09-.57.84.27,2.02,1.87,2.25,2.72.13.48,0,1.58-.33,1.95-.68.74-3.92.98-3.92.98"/><line class="cls-1" x1="14.47" y1="10.07" x2="16.52" y2="8.44"/><path class="cls-3" d="m10.05,9.89s-2.15-1.65-2.45-2.47c-.19-.51-.16-1.73.16-2.16.53-.7,2.44-1.28,3.32-1.21.49.04,1.5.52,1.73.96.47.89-.38,4.02-.38,4.02"/><line class="cls-1" x1="11.23" y1="9.15" x2="10.38" y2="6.67"/><path class="cls-3" d="m9.97,13.15s-2.04,1.79-2.9,1.92c-.54.08-1.73-.18-2.09-.58-.59-.66-.78-2.64-.54-3.49.13-.48.8-1.37,1.28-1.51.97-.29,3.87,1.16,3.87,1.16"/><line class="cls-1" x1="9.47" y1="11.84" x2="6.88" y2="12.2"/><path class="cls-3" d="m15.18,11.9s2.71.08,3.43.57c.45.3,1.15,1.31,1.14,1.85-.02.88-1.23,2.46-1.98,2.92-.42.26-1.52.45-1.96.23-.9-.45-2.04-3.48-2.04-3.48"/><line class="cls-1" x1="14.66" y1="13.2" x2="16.8" y2="14.7"/><path class="cls-3" d="m13.06,14.69s.56,2.65.26,3.47c-.19.51-1,1.42-1.53,1.54-.86.19-2.68-.61-3.31-1.23-.35-.35-.8-1.37-.69-1.85.22-.98,2.9-2.81,2.9-2.81"/><line class="cls-1" x1="11.67" y1="14.49" x2="10.72" y2="16.93"/></svg>