<?xml version="1.0" encoding="UTF-8"?><svg id="Ebene_1" xmlns="http://www.w3.org/2000/svg" viewBox="0 0 24 24"><defs><style>.cls-1{fill:#2c2c2c;}.cls-1,.cls-2{stroke:#2c2c2c;stroke-miterlimit:10;stroke-width:.5px;}.cls-2{fill:none;}</style></defs><path class="cls-2" d="m11.96,4.28c-4.31,0-7.8,3.5-7.8,7.81s3.49,7.8,7.8,7.8,7.81-3.49,7.81-7.8-3.5-7.81-7.81-7.81Zm.73,8.55c-.19.2-.44.31-.73.31s-.54-.12-.73-.31c-.19-.18-.31-.44-.31-.73s.11-.54.31-.73c.18-.19.44-.31.73-.31s.55.11.74.3c.18.19.3.45.3.74s-.12.55-.31.73Z"/><path class="cls-2" d="m16.72,7.33c-1.21-1.22-2.9-1.98-4.76-1.98s-3.54.75-4.76,1.98c-1.21,1.22-1.97,2.91-1.97,4.76s.75,3.54,1.97,4.76c1.22,1.21,2.9,1.97,4.76,1.97s3.55-.75,4.76-1.97c1.22-1.22,1.98-2.91,1.98-4.76s-.75-3.54-1.98-4.76Zm-4.76,5.81c-.28,0-.54-.12-.73-.31-.19-.18-.31-.44-.31-.73s.11-.54.31-.73c.18-.19.44-.31.73-.31s.55.11.74.3c.18.19.3.45.3.74s-.12.55-.31.73c-.19.2-.44.31-.73.31Z"/><line class="cls-2" x1="18.7" y1="12.09" x2="13" y2="12.09"/><line class="cls-2" x1="10.92" y1="12.09" x2="5.23" y2="12.09"/><line class="cls-2" x1="11.96" y1="11.05" x2="11.96" y2="5.35"/><line class="cls-2" x1="11.96" y1="18.82" x2="11.96" y2="13.13"/><line class="cls-2" x1="16.72" y1="7.33" x2="12.7" y2="11.35"/><line class="cls-2" x1="11.23" y1="12.82" x2="7.19" y2="16.86"/><line class="cls-2" x1="16.72" y1="16.86" x2="12.69" y2="12.82"/><line class="cls-2" x1="11.23" y1="11.36" x2="7.19" y2="7.33"/><path class="cls-1" d="m13,12.09c0,.29-.12.55-.31.73-.19.2-.44.31-.73.31s-.54-.12-.73-.31c-.19-.18-.31-.44-.31-.73s.11-.54.31-.73c.18-.19.44-.31.73-.31s.55.11.74.3c.18.19.3.45.3.74Z"/></svg>