<?xml version="1.0" encoding="UTF-8"?><svg id="Ebene_1" xmlns="http://www.w3.org/2000/svg" viewBox="0 0 24 24"><defs><style>.cls-1{stroke-miterlimit:10;}.cls-1,.cls-2{fill:none;stroke:#2c2c2c;stroke-linecap:round;stroke-width:.5px;}.cls-2{stroke-linejoin:round;}.cls-3{fill:#2c2c2c;stroke-width:0px;}</style></defs><path class="cls-2" d="m12.2,18.89c-1.3.31-2.64.38-3.76.23-1.49-.21-2.25,1.19-3.68-.32-.91-.96.17-3.12-.09-5.48-.26-2.31.35-4.61,2.05-6.37,1.37-1.42,3.19-2.23,4.98-2.03,3.47.39,5.41-.94,6.26,0,1.04,1.15-.68,2.49-.11,4.54.43,1.55.3,3.6-.39,5.31"/><path class="cls-1" d="m6.98,11.29c.12-.42.91-3.01,3.35-4.06.94-.4,1.81-.44,2.4-.41"/><path class="cls-2" d="m12.65,11.44c-.96.94-1.41,2.14-1.36,3.59.08,2.77,2.39,4.95,5.16,4.87,1.36-.04,2.57-.61,3.45-1.52m-3.16-3c-.11.1-.25.16-.42.16-.19,0-.36-.06-.48-.18-.12-.12-.2-.28-.21-.47s.07-.36.19-.48"/><line class="cls-2" x1="12.18" y1="15" x2="15.63" y2="14.89"/><line class="cls-2" x1="16.32" y1="15.55" x2="16.43" y2="18.98"/><line class="cls-2" x1="13.46" y1="17.9" x2="15.84" y2="15.37"/><line class="cls-2" x1="12.69" y1="11.48" x2="19.96" y2="18.31"/><path class="cls-2" d="m13.34,12.18c-.76.75-1.22,1.8-1.19,2.96.06,2.21,1.91,3.94,4.11,3.88,1.08-.03,2.05-.49,2.75-1.21m-2.51-2.39c-.09.08-.2.13-.33.13-.15,0-.28-.05-.38-.14-.1-.09-.16-.23-.16-.38s.05-.28.15-.38"/><circle class="cls-3" cx="16.11" cy="15.03" r=".5"/><circle class="cls-3" cx="15.26" cy="17.43" r=".42"/><circle class="cls-3" cx="13.8" cy="15.91" r=".42"/><circle class="cls-3" cx="13.82" cy="13.96" r=".42"/><circle class="cls-3" cx="17.45" cy="17.41" r=".42"/></svg>