<svg xmlns="http://www.w3.org/2000/svg" viewBox="0 0 512 512"><defs><style>.cls-1{fill:#2c2c2c;}</style></defs><g id="Layer_2" data-name="Layer 2"><g id="Layer_1-2" data-name="Layer 1"><path class="cls-1" d="M437,75A256,256,0,0,0,75,437,256,256,0,0,0,437,75ZM256,480C132.49,480,32,379.51,32,256S132.49,32,256,32,480,132.49,480,256,379.51,480,256,480ZM359.26,175.37,278.63,256l80.63,80.63a16,16,0,0,1-22.63,22.63L256,278.63l-80.63,80.63a16,16,0,0,1-22.62-22.63L233.37,256l-80.62-80.63a16,16,0,0,1,22.62-22.62L256,233.37l80.63-80.62a16,16,0,0,1,22.63,22.62Z"/></g></g></svg>