<?xml version="1.0" encoding="UTF-8"?><svg id="Ebene_1" xmlns="http://www.w3.org/2000/svg" viewBox="0 0 24 24"><defs><style>.cls-1{letter-spacing:-.01em;}.cls-2{letter-spacing:-.02em;}.cls-3{font-family:UncutSansVF-Medium, 'Uncut Sans VF';font-size:3px;font-variation-settings:'wght' 500, 'slnt' 0;font-weight:500;}.cls-4{stroke-linecap:round;}.cls-4,.cls-5{fill:none;stroke:#2c2c2c;stroke-miterlimit:10;stroke-width:.5px;}.cls-6{letter-spacing:0em;}</style></defs><text class="cls-3" transform="translate(-.37 26.34)"><tspan class="cls-2" x="0" y="0">S</tspan><tspan class="cls-6" x="1.88" y="0">e</tspan><tspan x="3.56" y="0">l</tspan><tspan class="cls-1" x="4.37" y="0">bs</tspan><tspan x="7.75" y="0">t</tspan><tspan class="cls-6" x="8.93" y="0">b</tspan><tspan class="cls-2" x="10.75" y="0">e</tspan><tspan x="12.41" y="0">w</tspan><tspan class="cls-1" x="14.76" y="0">u</tspan><tspan x="16.43" y="0">s</tspan><tspan class="cls-6" x="18.03" y="0">s</tspan><tspan x="19.59" y="0">t</tspan></text><path class="cls-5" d="m7.58,5.05h8.81c.56,0,1.02.46,1.02,1.02v12.28c0,.18-.15.33-.33.33H6.9c-.18,0-.33-.15-.33-.33V6.07c0-.56.46-1.02,1.02-1.02Z"/><line class="cls-4" x1="14.85" y1="16.86" x2="16.6" y2="15.11"/><line class="cls-4" x1="14.65" y1="15.49" x2="16.7" y2="13.44"/><line class="cls-4" x1="7.88" y1="10.36" x2="11.79" y2="6.45"/><line class="cls-4" x1="8.35" y1="8.31" x2="10.41" y2="6.26"/><circle class="cls-4" cx="11.85" cy="12.91" r="3.01"/><path class="cls-4" d="m10.06,12.41c.1-.22.33-.38.59-.38s.49.16.59.38"/><path class="cls-4" d="m12.52,12.41c.1-.22.33-.38.59-.38s.49.16.59.38"/><path class="cls-4" d="m13.73,13.63c-.32.7-1.02,1.18-1.84,1.18s-1.52-.49-1.84-1.18"/><path class="cls-4" d="m7.43,18.63c1.08-.93,2.62-1.62,4.33-1.62,1.8,0,3.42.65,4.5,1.68"/><line class="cls-4" x1="10.97" y1="16.12" x2="10.97" y2="16.98"/><line class="cls-4" x1="12.69" y1="16.1" x2="12.69" y2="16.98"/><path class="cls-5" d="m7.15,4.2h9.65c.84,0,1.52.68,1.52,1.52v13.08c0,.46-.37.83-.83.83H6.46c-.46,0-.83-.37-.83-.83V5.72c0-.84.68-1.52,1.52-1.52Z"/></svg>