<?xml version="1.0" encoding="UTF-8"?><svg id="Ebene_1" xmlns="http://www.w3.org/2000/svg" viewBox="0 0 24 24"><defs><style>.cls-1{letter-spacing:-.01em;}.cls-2{font-family:UncutSansVF-Medium, 'Uncut Sans VF';font-size:3px;font-variation-settings:'wght' 500, 'slnt' 0;font-weight:500;}.cls-3{fill:none;stroke:#2c2c2c;stroke-linecap:round;stroke-linejoin:round;stroke-width:.5px;}.cls-4{letter-spacing:0em;}.cls-5{letter-spacing:.02em;}.cls-6{fill:#2c2c2c;stroke-width:0px;}</style></defs><text class="cls-2" transform="translate(1.64 26.34)"><tspan x="0" y="0">In </tspan><tspan class="cls-4" x="3.21" y="0">sic</tspan><tspan x="7.24" y="0">h </tspan><tspan class="cls-1" x="9.65" y="0">g</tspan><tspan x="11.47" y="0">e</tspan><tspan class="cls-4" x="13.19" y="0">ke</tspan><tspan x="16.43" y="0">h</tspan><tspan class="cls-5" x="18.13" y="0">r</tspan><tspan x="19.36" y="0">t</tspan></text><path class="cls-6" d="m19.2,12.71c-.14.17-.41.09-.51.17-.09.06-.17.27-.17.38-.01.13.18.3.12.42-.05.09-.41.11-.44.21-.03.1.26.26.24.36-.02.1-.25.13-.3.22-.16.29.11,1.08-.13,1.3-.47.44-2.01-.21-2.59.08-.18.09-.44.44-.51.63-.16.48,0,1.51,0,2.01h-.26c.03-1.09.11-2.6.31-3.24.26-.87,1.5-2.11,1.67-3.22.12-.75.27-2.03-.08-3.02-.28-.78-1.01-1.79-2.05-2.59-1.05-.81-1.93-.92-3.06-1-.77-.06-1.47-.1-2.23.06.14-.11.28-.23.43-.35,1.04-.81,1.93-.92,3.05-1,1.09-.07,2.03-.14,3.19.37.74.33,1.32,1.15,1.63,1.64.27.43.59,1.42.67,1.92.1.58-.15,1.78,0,2.35.13.49,1.25,2.04,1.02,2.3Z"/><path class="cls-3" d="m16.63,12.03c-.17,1.11-1.41,2.35-1.67,3.22-.2.64-.28,2.15-.31,3.24-.02.74-.02,1.29-.02,1.29h-5.41c.02-.34.09-.89.08-1.37,0-.25-.02-.48-.08-.64-.07-.19-.32-.54-.5-.63-.58-.29-2.13.36-2.6-.09-.24-.22.03-1.01-.13-1.3-.05-.09-.28-.11-.29-.22-.02-.09.27-.26.24-.35-.03-.1-.39-.12-.44-.21-.07-.12.13-.29.12-.43-.01-.11-.09-.31-.18-.38-.1-.07-.37,0-.51-.16-.23-.26.89-1.82,1.02-2.31.15-.56-.09-1.76,0-2.34.09-.51.4-1.5.67-1.93.31-.49.89-1.3,1.64-1.63.33-.15.64-.24.95-.31.76-.16,1.46-.12,2.23-.06,1.13.08,2.01.19,3.06,1,1.04.8,1.77,1.81,2.05,2.59.35.99.2,2.27.08,3.02Z"/></svg>