<?xml version="1.0" encoding="UTF-8"?><svg id="Ebene_1" xmlns="http://www.w3.org/2000/svg" viewBox="0 0 24 24"><defs><style>.cls-1{letter-spacing:.02em;}.cls-2{font-family:UncutSansVF-Medium, 'Uncut Sans VF';font-size:3px;font-variation-settings:'wght' 500, 'slnt' 0;font-weight:500;}.cls-3{fill:none;stroke:#2c2c2c;stroke-linecap:round;stroke-miterlimit:10;stroke-width:.5px;}.cls-4{letter-spacing:0em;}</style></defs><text class="cls-2" transform="translate(2.43 26.34)"><tspan x="0" y="0">Hu</tspan><tspan class="cls-4" x="3.76" y="0">mo</tspan><tspan class="cls-1" x="8.15" y="0">r</tspan><tspan class="cls-4" x="9.37" y="0">vo</tspan><tspan x="12.63" y="0">ll</tspan></text><circle class="cls-3" cx="11.94" cy="12.07" r="7.83"/><path class="cls-3" d="m16.78,13.39c0,1.94-1.16,3.6-2.82,4.33h0c-.26.74-1.04,1.27-1.95,1.27-.56,0-1.07-.2-1.44-.53-.22-.2-.4-.45-.5-.73h0c-1.66-.74-2.82-2.41-2.82-4.34h9.52Z"/><path class="cls-3" d="m9.99,13.5v3.68c0,.18.03.36.1.54"/><path class="cls-3" d="m14.06,13.5v3.68c0,.18-.03.36-.1.54"/><line class="cls-3" x1="12.03" y1="13.45" x2="12.03" y2="16.03"/><path class="cls-3" d="m7.27,10.21c.27-.59.86-.99,1.54-.99s1.28.41,1.54.99"/><path class="cls-3" d="m13.7,10.21c.27-.59.86-.99,1.54-.99s1.28.41,1.54.99"/></svg>