<?xml version="1.0" encoding="UTF-8"?><svg id="Ebene_1" xmlns="http://www.w3.org/2000/svg" viewBox="0 0 24 24"><defs><style>.cls-1{font-family:UncutSansVF-Medium, 'Uncut Sans VF';font-size:3px;font-variation-settings:'wght' 500, 'slnt' 0;font-weight:500;}.cls-2{fill:none;stroke:#2c2c2c;stroke-linecap:round;stroke-linejoin:round;stroke-width:.5px;}.cls-3{letter-spacing:0em;}</style></defs><text class="cls-1" transform="translate(4.73 26.34)"><tspan x="0" y="0">A</tspan><tspan class="cls-3" x="2.04" y="0">ngesc</tspan><tspan x="10.5" y="0">hir</tspan><tspan class="cls-3" x="14.16" y="0">m</tspan><tspan x="16.8" y="0">t</tspan></text><rect class="cls-2" x="6.53" y="10.03" width="10.9" height="9.55" rx="1.16" ry="1.16"/><path class="cls-2" d="m12.97,12.95c0,.39-.23.72-.56.88v2.12h-.85v-2.11c-.34-.15-.57-.5-.57-.89,0-.55.44-.99.99-.99s.99.44.99.99Z"/><path class="cls-2" d="m8.17,10.03v-1.99c0-2.1,1.71-3.81,3.81-3.81h0c2.1,0,3.81,1.71,3.81,3.81v1.99"/><path class="cls-2" d="m9.09,9.76v-1.6c0-1.69,1.29-3.06,2.89-3.06h0c1.59,0,2.89,1.37,2.89,3.06v1.6"/></svg>