<?xml version="1.0" encoding="UTF-8"?><svg id="Ebene_1" xmlns="http://www.w3.org/2000/svg" viewBox="0 0 24 24"><defs><style>.cls-1{letter-spacing:-.02em;}.cls-2{font-family:UncutSansVF-Medium, 'Uncut Sans VF';font-size:3px;font-variation-settings:'wght' 500, 'slnt' 0;font-weight:500;}.cls-3{fill:#fde8db;}.cls-3,.cls-4{stroke:#2c2c2c;stroke-linecap:round;stroke-linejoin:round;stroke-width:.5px;}.cls-4{fill:none;}.cls-5{letter-spacing:0em;}</style></defs><text class="cls-2" transform="translate(2.07 26.34)"><tspan class="cls-1" x="0" y="0">S</tspan><tspan class="cls-5" x="1.88" y="0">ens</tspan><tspan x="6.8" y="0">i</tspan><tspan class="cls-5" x="7.59" y="0">be</tspan><tspan x="11.1" y="0">l</tspan></text><path class="cls-4" d="m13.19,17.96s-5.08,1.18-3.89-3.94l1.61-2.92.97.3-.59-1.61.97-5.59s1.1-.13,2.62,2.58l-.21,1.35.63-.3s1.69,2.45.72,5.46l-1.4,1.27.85.25s-.59,1.35-1.06,2.07c-.61.94-1.23,1.06-1.23,1.06Z"/><path class="cls-4" d="m13.49,9.58s1.27,4.91-5.76,10.28"/><path class="cls-4" d="m7.87,17.47c0,.56,2.23.25,2.23.25,0,0-.15,1.04.1,1.69"/><path class="cls-3" d="m15.48,14.83s-.59,1.35-1.06,2.07"/></svg>