<?xml version="1.0" encoding="UTF-8"?><svg id="Ebene_1" xmlns="http://www.w3.org/2000/svg" viewBox="0 0 24 24"><defs><style>.cls-1{letter-spacing:.02em;}.cls-2{font-family:UncutSansVF-Medium, 'Uncut Sans VF';font-size:3px;font-variation-settings:'wght' 500, 'slnt' 0;font-weight:500;}.cls-3{letter-spacing:-.03em;}.cls-4{fill:none;stroke:#2c2c2c;stroke-linecap:round;stroke-linejoin:round;stroke-width:.5px;}.cls-5{letter-spacing:0em;}</style></defs><text class="cls-2" transform="translate(2.7 26.34)"><tspan class="cls-5" x="0" y="0">M</tspan><tspan class="cls-3" x="2.5" y="0">o</tspan><tspan x="4.21" y="0">tiv</tspan><tspan class="cls-5" x="7.71" y="0">ie</tspan><tspan class="cls-1" x="10.15" y="0">r</tspan><tspan x="11.37" y="0">t</tspan></text><path class="cls-4" d="m12.76,6.2c-.16-.06-.29-.06-.29-.06h-.31l-1.83-.02c-.23-.02-.45-.02-.7-.02l-.86-.02h-.7c-1.12,0-1.19.78-1.19.78,0,0-.29,2.97-.05,3.91.31,1.19,1.87,3.1,2.24,4.25.34,1.09.05,4.73.05,4.73"/><path class="cls-4" d="m17.36,10.58s-.54.51-1.25.51c-.57,0-1.07-.32-1.07-.32,0,0-.68.64-1.44.57-.88-.08-1.48-.55-1.76-.89-.6-.99-1.36-1.51-1.53-1.61-.02-.03,2.14-.03,2.14-.03,0,0,.18,0,.35-.07"/><polyline class="cls-4" points="15.5 19.75 15.5 15 17.36 10.58"/><rect class="cls-4" x="15.2" y="4.82" width="1.83" height="5.29" rx=".56" ry=".56"/><path class="cls-4" d="m12.76,6.2c.29.11.71.41.71,1.17,0,.96-.41,1.28-.71,1.38"/><path class="cls-4" d="m12.76,8.75c.31-.1.71-.42.71-1.38,0-.76-.42-1.06-.71-1.17v-.96c0-.5.42-.91.93-.91s.91.41.91.91v4.35c0,.5-.41.75-.91.75s-.93-.18-.93-.58v-1.01"/><path class="cls-4" d="m12.16,5.24v.89c-.39-.02-1.07-.02-1.83-.02v-.88c0-.5.42-.91.93-.91s.91.41.91.91Z"/><path class="cls-4" d="m9.62,5.24v.86c-.67,0-1.32,0-1.83-.02v-.84c0-.5.41-.91.91-.91s.93.41.93.91Z"/></svg>