<?xml version="1.0" encoding="UTF-8"?><svg id="Ebene_1" xmlns="http://www.w3.org/2000/svg" viewBox="0 0 24 24"><defs><style>.cls-1{fill:none;stroke:#2c2c2c;stroke-linecap:round;stroke-miterlimit:10;stroke-width:.5px;}.cls-2{fill:#2c2c2c;stroke-width:0px;}</style></defs><circle class="cls-2" cx="7.9" cy="9.24" r=".33"/><path class="cls-1" d="m14.37,9.07c0,2.65-2.12,4.81-4.76,4.87h-.11c-.97,0-1.89-.29-2.65-.79-.26-.16-2.29,1.31-2.51,1.1-.27-.26,1.29-2.22,1.09-2.52-.5-.76-.79-1.68-.79-2.66,0-2.69,2.17-4.86,4.86-4.86s4.69,1.99,4.86,4.53c.01.11.01.22.01.33Z"/><path class="cls-1" d="m19.64,19.72c-.25.27-2.21-1.29-2.52-1.09-.76.5-1.68.8-2.65.8-2.57,0-5.25-1.73-5.06-5.39,2.79-.27,4.48-2.09,4.96-4.02.03-.1,0-.22-.01-.33h.11c2.69,0,4.86,2.18,4.86,4.87,0,.99-.28,1.89-.79,2.66-.16.25,1.31,2.29,1.1,2.5Z"/><circle class="cls-2" cx="9.3" cy="9.24" r=".33"/><circle class="cls-2" cx="10.71" cy="9.24" r=".33"/><circle class="cls-2" cx="14.34" cy="16.36" r=".33"/><line class="cls-1" x1="14.34" y1="15.49" x2="14.34" y2="13.25"/></svg>