<?xml version="1.0" encoding="UTF-8"?><svg id="Ebene_1" xmlns="http://www.w3.org/2000/svg" viewBox="0 0 24 24"><defs><style>.cls-1{stroke-width:.25px;}.cls-1,.cls-2{fill:#2c2c2c;}.cls-1,.cls-2,.cls-3{stroke:#2c2c2c;stroke-linecap:round;stroke-linejoin:round;}.cls-2,.cls-3{stroke-width:.5px;}.cls-3{fill:none;}</style></defs><path class="cls-3" d="m15.8,15.98c0,2.09-1.7,3.78-3.79,3.78s-3.79-1.7-3.79-3.78c0-1.03.4-1.96,1.08-2.64-.18-.38-.28-.81-.28-1.25,0-1.65,1.34-3,2.99-3s2.99,1.35,2.99,3c0,.44-.09.85-.27,1.23.66.69,1.07,1.61,1.07,2.65Z"/><circle class="cls-3" cx="12.01" cy="15.75" r="1.36"/><rect class="cls-2" x="11" y="4.27" width="2.01" height=".82" rx=".36" ry=".36"/><circle class="cls-1" cx="12" cy="17.74" r=".16"/><circle class="cls-1" cx="11.27" cy="17.74" r=".16"/><line class="cls-3" x1="11.26" y1="5.1" x2="11.26" y2="17.62"/><line class="cls-3" x1="12.01" y1="5.1" x2="12.01" y2="17.62"/><circle class="cls-1" cx="12.77" cy="17.74" r=".16"/><line class="cls-3" x1="12.76" y1="5.1" x2="12.76" y2="17.62"/></svg>