<?xml version="1.0" encoding="UTF-8"?><svg id="Ebene_1" xmlns="http://www.w3.org/2000/svg" viewBox="0 0 24 24"><defs><style>.cls-1{fill:none;stroke:#2c2c2c;stroke-linecap:round;stroke-linejoin:round;stroke-width:.5px;}</style></defs><polyline class="cls-1" points="9.84 7.75 11.52 7.75 9.6 9.96 11.79 9.96"/><polyline class="cls-1" points="12.83 5.89 14.12 5.89 12.65 7.59 14.33 7.59"/><polyline class="cls-1" points="15.39 4.37 16.3 4.37 15.27 5.56 16.44 5.56"/><path class="cls-1" d="m19.58,13.85c-.92,3.24-3.9,5.61-7.43,5.61-4.27,0-7.72-3.45-7.72-7.71,0-3.63,2.5-6.66,5.87-7.49-1.46,1.23-2.38,3.07-2.38,5.12,0,3.7,2.99,6.69,6.69,6.69,1.97,0,3.75-.86,4.98-2.22Z"/><path class="cls-1" d="m19.58,13.85c-1.23,1.36-3.01,2.22-4.98,2.22-3.7,0-6.69-2.99-6.69-6.69,0-2.05.93-3.89,2.38-5.12"/></svg>