<?xml version="1.0" encoding="UTF-8"?><svg id="Ebene_1" xmlns="http://www.w3.org/2000/svg" viewBox="0 0 24 24"><defs><style>.cls-1{fill:#2c2c2c;}.cls-1,.cls-2{stroke:#2c2c2c;stroke-linecap:round;stroke-miterlimit:10;stroke-width:.5px;}.cls-3{font-family:UncutSansVF-Medium, 'Uncut Sans VF';font-size:3px;font-variation-settings:'wght' 500, 'slnt' 0;font-weight:500;}.cls-2{fill:none;}.cls-4{letter-spacing:0em;}</style></defs><text class="cls-3" transform="translate(1.28 26.34)"><tspan x="0" y="0">Emathi</tspan><tspan class="cls-4" x="9.68" y="0">sc</tspan><tspan x="12.95" y="0">h</tspan></text><path class="cls-2" d="m17.05,12.26c-1.64.17-3.56-.27-5.34-1.35-1.88-1.14-3.2-2.75-3.77-4.37"/><path class="cls-2" d="m18.57,19.66s-.12-2.11.08-2.77c.16-.54.94-1.32,1.05-2.01.07-.47.17-1.27-.05-1.88-.17-.49-.63-1.12-1.28-1.62s-1.21-.57-1.91-.62-1.27-.09-1.99.23c-.47.21-.83.71-1.02,1.02-.17.27-.37.89-.42,1.2-.06.36.09,1.11,0,1.46-.08.31-.78,1.28-.64,1.44.09.1.26.05.32.1.05.04.1.17.11.24,0,.09-.12.19-.08.27.03.06.26.07.28.13s-.16.16-.15.22c.01.06.16.08.19.14.1.18-.07.67.08.81.3.28,1.26-.13,1.62.05.11.06.27.27.31.39.1.3,0,.94,0,1.26"/><path class="cls-2" d="m5.51,13.29s.12-2.11-.08-2.77c-.16-.54-.94-1.32-1.05-2.01-.07-.47-.17-1.27.05-1.88.17-.49.63-1.12,1.28-1.62s1.21-.57,1.91-.62,1.27-.09,1.99.23c.47.21.83.71,1.02,1.02.17.27.37.89.42,1.2.06.36-.09,1.11,0,1.46.08.31.78,1.28.64,1.44-.09.1-.26.05-.32.1-.05.04-.1.17-.11.24,0,.09.12.19.08.27-.03.06-.26.07-.28.13s.16.16.15.22c-.01.06-.16.08-.19.14-.1.18.07.67-.08.81-.3.28-1.26-.13-1.62.05-.11.06-.27.27-.31.39-.1.3,0,.94,0,1.26"/><circle class="cls-1" cx="16.75" cy="12.43" r=".68"/><circle class="cls-1" cx="7.7" cy="6.27" r=".68"/></svg>