<?xml version="1.0" encoding="UTF-8"?><svg id="Ebene_1" xmlns="http://www.w3.org/2000/svg" viewBox="0 0 24 24"><defs><style>.cls-1{letter-spacing:-.01em;}.cls-2{letter-spacing:-.02em;}.cls-3{font-family:UncutSansVF-Medium, 'Uncut Sans VF';font-size:3px;font-variation-settings:'wght' 500, 'slnt' 0;font-weight:500;}.cls-4{fill:#2c2c2c;}.cls-4,.cls-5{stroke:#2c2c2c;stroke-linecap:round;stroke-linejoin:round;stroke-width:.5px;}.cls-5{fill:none;}.cls-6{letter-spacing:-.02em;}.cls-7{letter-spacing:0em;}</style></defs><text class="cls-3" transform="translate(3.28 26.34)"><tspan x="0" y="0">I</tspan><tspan class="cls-7" x=".8" y="0">n</tspan><tspan x="2.48" y="0">dif</tspan><tspan class="cls-2" x="6.23" y="0">f</tspan><tspan class="cls-1" x="7.28" y="0">e</tspan><tspan class="cls-6" x="8.96" y="0">r</tspan><tspan class="cls-1" x="10.06" y="0">en</tspan><tspan x="13.42" y="0">t</tspan></text><path class="cls-5" d="m11.81,4.23h.53c.29,0,.53.24.53.53v13.78h-1.59V4.76c0-.29.24-.53.53-.53Z"/><path class="cls-5" d="m7.82,18.54h8.51c.38,0,.69.31.69.69v.47H7.14v-.47c0-.38.31-.69.69-.69Z"/><polygon class="cls-5" points="4.57 12.65 9.64 12.65 7.1 5.51 4.57 12.65"/><path class="cls-4" d="m6.69,11.49h.83c.38,0,.69.31.69.69v.47h-2.2v-.47c0-.38.31-.69.69-.69Z"/><polygon class="cls-5" points="14.48 12.65 19.56 12.65 17.02 5.51 14.48 12.65"/><path class="cls-4" d="m16.6,11.49h.83c.38,0,.69.31.69.69v.47h-2.2v-.47c0-.38.31-.69.69-.69Z"/><line class="cls-4" x1="12.87" y1="4.91" x2="17.02" y2="4.91"/><line class="cls-4" x1="7.1" y1="4.91" x2="11.28" y2="4.91"/></svg>