<?xml version="1.0" encoding="UTF-8"?><svg id="Ebene_1" xmlns="http://www.w3.org/2000/svg" viewBox="0 0 24 24"><defs><style>.cls-1{fill:none;stroke:#2c2c2c;stroke-linecap:round;stroke-linejoin:round;stroke-width:.5px;}.cls-2{fill:#2c2c2c;stroke-width:0px;}</style></defs><path class="cls-1" d="m16.29,9.71c0-.5-.33-.9-.75-.96.09-.15.14-.34.14-.54,0-.54-.96-.96-1.01-.95.17-.14.27-.35.27-.6,0-.41-.3-.74-.65-.74-.14,0-.26.04-.37.12-.08-.38-.38-.65-.73-.65-.42,0-.75.38-.75.85v6.96c0,.47.33.85.75.85.36,0,.67-.29.74-.68.11.09.24.15.39.15.37,0,.66-.33.66-.75,0-.15-.05-.3-.12-.42.52-.03.93-.51.93-1.1,0-.22-.05-.43-.15-.6.38-.1.65-.49.65-.94Z"/><path class="cls-1" d="m8.37,8.79c-.1-.17-.15-.38-.15-.6,0-.59.4-1.07.9-1.1-.07-.12-.12-.27-.12-.42,0-.41.29-.75.64-.75.14,0,.27.05.38.15.07-.39.37-.68.72-.68.41,0,1.05.22,1.05.69v7.11c0,.47-.65.85-1.05.85-.34,0-.64-.27-.71-.65-.1.08-.22.12-.35.12-.35,0-.64-.33-.64-.74,0-.25.17-.58.12-.58-.46,0-.83-.43-.83-.97,0-.2.05-.39.14-.54-.41-.06-.73-.46-.73-.96,0-.45.27-.84.64-.94Z"/><path class="cls-1" d="m17.43,9.54c0,.82-.18,1.6-.51,2.28-.4.85-1.09,1.5-1.78,2.12s-1.61,1.81-1.99,3.13h-2.32c-.59-1.54-1.94-3.08-2.1-3.23-.63-.59-1.27-1.23-1.63-2.03-.33-.69-.51-1.47-.51-2.28,0-2.99,2.43-5.4,5.42-5.4s5.42,2.41,5.42,5.4Z"/><line class="cls-1" x1="10.9" y1="17.05" x2="13.12" y2="17.05"/><path class="cls-2" d="m13.07,18.22h-1.71c-.37.01-.85.02-.98-.42-.13-.43.06-.97.57-.97.32,0,1.86,0,2.15,0,.8.03.77,1.4-.03,1.39h0Zm0-.5c.15,0,.11-.25.1-.32-.01-.04-.05-.07-.1-.07-.26,0-1.83,0-2.13,0-.16,0-.11.25-.11.33.01.04.06.07.1.08.26,0,1.83,0,2.13,0h0Z"/><path class="cls-2" d="m13.07,19.11h-1.71c-.37.01-.85.02-.98-.42-.13-.43.06-.97.57-.97.32,0,1.86,0,2.15,0,.8.03.77,1.4-.03,1.39h0Zm0-.5c.15,0,.11-.25.1-.32-.01-.04-.05-.07-.1-.07-.26,0-1.83,0-2.13,0-.16,0-.11.25-.11.33.01.04.06.07.1.08.26,0,1.83,0,2.13,0h0Z"/><path class="cls-2" d="m13.07,20.01h-1.71c-.37.01-.85.02-.98-.42-.13-.43.06-.97.57-.97.32,0,1.86,0,2.15,0,.8.03.77,1.4-.03,1.39h0Zm0-.5c.15,0,.11-.25.1-.32-.01-.04-.05-.07-.1-.07-.26,0-1.83,0-2.13,0-.16,0-.11.25-.11.33.01.04.06.07.1.08.26,0,1.83,0,2.13,0h0Z"/></svg>