<?xml version="1.0" encoding="utf-8"?>
<!-- Generator: Adobe Illustrator 28.1.0, SVG Export Plug-In . SVG Version: 6.00 Build 0)  -->
<svg version="1.1" id="Layer_1" xmlns="http://www.w3.org/2000/svg" xmlns:xlink="http://www.w3.org/1999/xlink" x="0px" y="0px"
	 viewBox="0 0 512 512" style="enable-background:new 0 0 512 512;" xml:space="preserve">
<style type="text/css">
	.st0{fill:#131315;}
</style>
<path class="st0" d="M256,0C114.8,0,0,114.8,0,256s114.8,256,256,256s256-114.8,256-256S397.2,0,256,0z M256,488
	C128.1,488,24,383.9,24,256S128.1,24,256,24s232,104.1,232,232S383.9,488,256,488z M376.3,150.5H135.7c-16.1,0-29.2,13.1-29.2,29.2
	v152.6c0,16.1,13.1,29.2,29.2,29.2h240.6c16.1,0,29.2-13.1,29.2-29.2V179.7C405.5,163.6,392.4,150.5,376.3,150.5L376.3,150.5z
	 M358.2,174.5L256,255.7l-102.2-81.2H358.2z M376.3,337.5H135.7c-2.9,0-5.2-2.3-5.2-5.2V186.7l118,93.7c2.2,1.7,4.8,2.6,7.5,2.6
	s5.3-0.9,7.5-2.6l118-93.7v145.6C381.5,335.2,379.2,337.5,376.3,337.5L376.3,337.5z"/>
</svg>
