<?xml version="1.0" encoding="UTF-8"?><svg id="Ebene_1" xmlns="http://www.w3.org/2000/svg" viewBox="0 0 24 24"><defs><style>.cls-1,.cls-2{stroke:#2c2c2c;stroke-linecap:round;stroke-linejoin:round;stroke-width:.5px;}.cls-1,.cls-3{fill:#2c2c2c;}.cls-2{fill:none;}.cls-3{stroke-width:0px;}</style></defs><path class="cls-1" d="m7.24,6.25c-.99.18-2.2.78-3.24,2.47,0,0,.81.59,2.05.17,0,0-.69,1.06-.69,1.77,0,0,1.39.25,2.89-1.44,0,0,.19,2.49,1.16,3.72,0,0,.85-1.27.96-3.68,0,0,1.27,1.23,2.86,1.69,0,0,0-1.14-.69-2.11,0,0,1.16.25,1.93-.04,0,0-.62-2.32-4.44-2.7l-.08-1.82h-1.08v1.73s-1.21.16-1.62.24Z"/><path class="cls-2" d="m14.21,9c.3.72.41,1.53.25,2.36-.55,2.99-3.35,7.64-5,7.64-1.78,0-4.93-4.69-5.17-7.64-.07-.8.07-1.57.36-2.26"/><path class="cls-2" d="m17.09,13.05c0,.14-.04.27-.11.38-.08.11-.2.21-.33.25-.07.03-.15.04-.23.04-.03,0-.06,0-.1,0-.17-.02-.32-.1-.42-.24-.03-.03-.05-.05-.07-.09-.06-.1-.1-.22-.1-.35,0-.17.06-.31.17-.43.12-.15.3-.24.51-.24.37,0,.67.3.67.67Z"/><path class="cls-2" d="m15.84,13.4s.04.06.07.09c-.13.15-.31.24-.52.24-.07,0-.14,0-.2-.03-.27-.09-.47-.34-.47-.64,0-.37.3-.67.67-.67.21,0,.39.1.52.24-.1.11-.17.26-.17.43,0,.13.03.24.1.35Z"/><path class="cls-2" d="m16.42,14.07c0,.1-.03.19-.06.28-.1.21-.31.37-.56.38-.02,0-.04,0-.06,0-.37,0-.67-.3-.67-.67,0-.14.04-.26.11-.37.06.03.13.03.2.03.21,0,.39-.1.52-.24.1.13.25.22.42.24.06.1.1.22.1.35Z"/><path class="cls-2" d="m17.86,14.07s0,.05,0,.07c0,.07-.02.13-.04.19-.07.17-.22.31-.4.37-.07.03-.14.04-.22.04-.06,0-.12,0-.18-.03h0c-.18-.04-.32-.17-.4-.33-.05-.1-.08-.19-.08-.3,0-.14.04-.27.11-.38.13-.04.25-.14.33-.25.07-.03.15-.04.23-.04.11,0,.23.03.31.08.09.04.16.1.22.18.07.1.12.22.13.35,0,.03,0,.04,0,.07Z"/><path class="cls-2" d="m19.21,14.07c0,.31-.23.58-.53.65-.05,0-.1.02-.15.02-.29,0-.53-.18-.63-.44-.02-.05-.03-.1-.03-.17,0-.02,0-.04,0-.07s0-.04,0-.07c0-.13-.06-.25-.13-.35.07.03.14.06.22.07.03,0,.06,0,.1,0,.24,0,.45-.13.57-.33.1.17.28.3.49.32.06.1.1.22.1.35Z"/><path class="cls-2" d="m18.72,14.96c0,.37-.3.67-.67.67-.09,0-.17-.02-.25-.05h0c-.15-.06-.26-.17-.34-.3h0c-.05-.1-.08-.2-.08-.31,0-.1.02-.18.05-.26.18-.05.33-.19.4-.37.03-.02.05-.03.08-.03.1.25.34.44.63.44.05,0,.1,0,.15-.02.03.07.04.15.04.24Z"/><path class="cls-2" d="m17.09,15.01c0,.09-.02.17-.04.24-.08.21-.25.37-.47.41-.05.02-.1.03-.16.03-.37,0-.68-.3-.68-.67,0-.1.03-.2.06-.28.24-.02.45-.17.56-.38.03-.09.06-.18.06-.28,0-.13-.03-.24-.1-.35.03,0,.06,0,.1,0,.08,0,.16-.02.23-.04-.07.11-.11.24-.11.38,0,.11.03.21.08.3.08.17.22.29.4.33h0c.04.09.07.19.07.3Z"/><path class="cls-2" d="m17.87,15.89c0,.37-.3.68-.67.68s-.67-.3-.67-.68c0-.08.02-.17.04-.24.22-.04.39-.2.47-.41.03-.07.04-.15.04-.24,0-.11-.03-.22-.07-.3.06.03.12.03.18.03.08,0,.15,0,.22-.04-.03.08-.05.17-.05.26,0,.11.03.22.08.3h0c.08.15.19.25.34.31h0c.05.1.08.2.08.31Z"/><path class="cls-2" d="m18.72,13.05c0,.13-.03.24-.1.35-.12.2-.33.33-.57.33-.03,0-.06,0-.1,0-.08,0-.15-.03-.22-.07-.06-.08-.13-.14-.22-.18-.1-.11-.15-.26-.15-.42,0-.37.3-.67.68-.67.24,0,.46.13.57.33.06.1.1.22.1.34Z"/><path class="cls-2" d="m19.88,13.05c0,.37-.3.68-.67.68-.03,0-.06,0-.1,0-.21-.03-.38-.15-.49-.32.06-.1.1-.22.1-.35,0-.12-.03-.24-.1-.34.11-.2.33-.33.58-.33.37,0,.67.3.67.67Z"/><path class="cls-1" d="m17.37,12.73c.4-2.31,2.34-2.54,2.34-2.54-.43,1.51-1.38,2.18-1.38,2.18"/><path class="cls-1" d="m16.92,12.48s-.61-2.14.17-3.43c0,0,1.11,1.23.11,3.6"/><path class="cls-1" d="m17.03,12.73c-.4-2.31-2.34-2.54-2.34-2.54.43,1.51,1.38,2.18,1.38,2.18"/><circle class="cls-2" cx="14.84" cy="17.52" r="2.25"/><line class="cls-2" x1="14.84" y1="17.01" x2="14.84" y2="17.95"/><line class="cls-2" x1="15.32" y1="17.48" x2="14.37" y2="17.48"/><circle class="cls-3" cx="9.3" cy="15.17" r=".33"/><circle class="cls-3" cx="9.41" cy="17.78" r=".33"/><circle class="cls-3" cx="10.43" cy="13.82" r=".33"/><circle class="cls-3" cx="10.31" cy="16.43" r=".33"/><circle class="cls-3" cx="11.43" cy="12.55" r=".33"/><circle class="cls-3" cx="12.48" cy="13.82" r=".33"/><circle class="cls-3" cx="11.43" cy="15.17" r=".33"/><circle class="cls-3" cx="7.33" cy="12.55" r=".33"/><circle class="cls-3" cx="8.29" cy="13.82" r=".33"/><circle class="cls-3" cx="7.42" cy="15.17" r=".33"/><circle class="cls-3" cx="8.35" cy="16.43" r=".33"/><circle class="cls-3" cx="6.3" cy="13.82" r=".33"/><circle class="cls-3" cx="10.43" cy="11.47" r=".33"/><circle class="cls-3" cx="12.48" cy="11.47" r=".33"/><circle class="cls-3" cx="8.29" cy="11.47" r=".33"/><circle class="cls-3" cx="6.3" cy="11.47" r=".33"/></svg>