<?xml version="1.0" encoding="UTF-8"?><svg id="Ebene_1" xmlns="http://www.w3.org/2000/svg" viewBox="0 0 24 24"><defs><style>.cls-1{stroke-linecap:round;}.cls-1,.cls-2{fill:none;stroke:#2c2c2c;stroke-linejoin:round;stroke-width:.5px;}</style></defs><path class="cls-1" d="m12.38,6.3c-.61,2.64-1,7.6-.19,13.48"/><path class="cls-1" d="m9.48,13.64c1.95.94,2.59,2.69,1.89,4.12s-2.46,2.01-4.41,1.07-2.98-4.65-2.98-4.65c0,0,3.55-1.49,5.49-.55Z"/><path class="cls-2" d="m16.61,14.88c-1.74,1.16-3.51.84-4.37-.44s-.47-3.04,1.27-4.2,5.34-.2,5.34-.2c0,0-.5,3.69-2.24,4.85Z"/><path class="cls-1" d="m17.25,11.28c-1.15.31-3.16,1.18-5.28,2.7"/><path class="cls-1" d="m5.72,15.44c1.19.01,3.35.36,5.78,1.31"/></svg>