<?xml version="1.0" encoding="UTF-8"?><svg id="Alle_Farben" xmlns="http://www.w3.org/2000/svg" viewBox="0 0 24 24"><defs><style>.cls-1{fill:#2c2c2c;}.cls-1,.cls-2{stroke:#2c2c2c;stroke-linecap:round;stroke-miterlimit:10;stroke-width:.5px;}.cls-2{fill:none;}</style></defs><path class="cls-2" d="m4.95,18.34c.17.38.78.72,1.1.87.42.2,1.33.42,1.79.46.6.05,1.8-.09,2.38-.23.66-.16,1.92-.69,2.52-1.01.82-.43,3.07-2.06,3.07-2.06,0,0,1.39-1.15,1.79-1.6.3-.34.82-1.1,1.01-1.52s.48-1.29.55-1.74c.04-.28.07-.87,0-1.14-.05-.2-.19-.62-.37-.73-.3-.19-1.1.15-1.42,0-.24-.11-.46-.66-.69-.79-.26-.14-.92-.12-1.19,0-.46.19-1.1,1.02-1.37,1.43-.54.81-1.2,2.66-1.65,3.53-.28.54-.65,1.42-1.24,2.11-.52.61-1.53,1.43-2.7,1.74-.87.23-3.39-.13-3.62,0-.16.09-.03.52.05.69Z"/><path class="cls-1" d="m18.85,9.52s.6-1.02.68-1.34c.13-.52.25-1.63.26-2.17,0-.46-.28-1.89-.38-1.81-.04.03.19,1.21.22,1.62s-.05,1.3-.28,1.65c-.18.28-.52.75-1.22.7-.57-.04-1.1-.06-1.39.18-.06.05-.08.28-.08.28l.85.89h1.34Z"/><path class="cls-2" d="m16.05,10.43s-.97.34-1.51,1.67"/></svg>