<?xml version="1.0" encoding="UTF-8"?><svg id="Alle_Farben" xmlns="http://www.w3.org/2000/svg" viewBox="0 0 24 24"><defs><style>.cls-1,.cls-2{stroke-linecap:round;}.cls-1,.cls-2,.cls-3,.cls-4{stroke:#2c2c2c;stroke-miterlimit:10;stroke-width:.5px;}.cls-1,.cls-3{fill:#2c2c2c;}.cls-2,.cls-4{fill:none;}</style></defs><path class="cls-2" d="m15.97,17.56c.21.1.59.03.78-.02.25-.06.72-.29.93-.44.27-.19.74-.68.94-.95.23-.3.58-.98.73-1.33.2-.48.59-1.98.59-1.98,0,0,.19-.99.2-1.32,0-.25-.04-.77-.11-1.01s-.25-.72-.38-.94c-.08-.14-.28-.4-.41-.49-.09-.07-.3-.2-.42-.19-.2.03-.42.45-.61.5-.14.04-.43-.12-.58-.09-.16.03-.44.28-.51.42-.13.25-.11.83-.08,1.1.05.54.43,1.57.54,2.1.07.33.23.84.22,1.35,0,.45-.15,1.16-.54,1.71-.29.41-1.51,1.15-1.56,1.29-.03.1.17.23.26.28Z"/><path class="cls-1" d="m18.81,8.81s-.1-.65-.18-.82c-.13-.27-.47-.79-.66-1.03-.16-.2-.79-.72-.81-.65,0,.03.51.45.67.62s.44.58.47.81c.02.18.04.51-.28.74-.26.19-.49.36-.54.57,0,.04.06.15.06.15l.68.08.57-.48Z"/><path class="cls-2" d="m17.93,10.2s-.3.49-.06,1.25"/><rect class="cls-4" x="10.74" y="15.25" width="4.18" height="2.59" rx=".82" ry=".82"/><rect class="cls-4" x="10.74" y="14.35" width="4.18" height=".9" rx=".45" ry=".45"/><rect class="cls-4" x="10.74" y="5.78" width="4.18" height="2.4" rx="1.2" ry="1.2"/><path class="cls-4" d="m14.13,14.35h-2.6c-.44,0-.79-.36-.79-.81l.92-5.35h2.1s1.16,5.35,1.16,5.35c0,.57-.47.81-.79.81Z"/><path class="cls-3" d="m12.31,5.72c-.2-.26-.18-.62.06-.86.26-.26.67-.26.92,0,.23.23.25.59.07.84"/><rect class="cls-4" x="4.11" y="6.56" width="4.87" height="2.49" rx=".82" ry=".82" transform="translate(13.1 15.61) rotate(180)"/><rect class="cls-4" x="4.11" y="9.06" width="4.87" height="8.81" rx=".82" ry=".82" transform="translate(13.1 26.93) rotate(180)"/><line class="cls-4" x1="7.79" y1="9.06" x2="7.79" y2="17.87"/><line class="cls-4" x1="6.55" y1="17.87" x2="6.55" y2="9.06"/><line class="cls-4" x1="5.26" y1="17.87" x2="5.26" y2="9.06"/></svg>