<svg xmlns="http://www.w3.org/2000/svg" viewBox="0 0 409.6 409.61"><defs><style>.cls-1{fill:#e4e4e4;}</style></defs><g id="Layer_2" data-name="Layer 2"><g id="Capa_1" data-name="Capa 1"><path class="cls-1" d="M307.2,0H102.4C46.09,0,0,46.08,0,102.4V307.21c0,56.3,46.09,102.4,102.4,102.4H307.2c56.32,0,102.4-46.1,102.4-102.4V102.4C409.6,46.08,363.51,0,307.2,0Zm68.27,307.21a68.34,68.34,0,0,1-68.27,68.26H102.4a68.34,68.34,0,0,1-68.26-68.26V102.4A68.34,68.34,0,0,1,102.4,34.14H307.2a68.34,68.34,0,0,1,68.27,68.26V307.21Z"/><circle class="cls-1" cx="315.75" cy="93.86" r="25.6"/><path class="cls-1" d="M204.8,102.4A102.41,102.41,0,1,0,307.2,204.8,102.39,102.39,0,0,0,204.8,102.4Zm0,170.68a68.27,68.27,0,1,1,68.27-68.28A68.28,68.28,0,0,1,204.8,273.08Z"/></g></g></svg>