<?xml version="1.0" encoding="utf-8"?>
<!-- Generator: Adobe Illustrator 27.8.0, SVG Export Plug-In . SVG Version: 6.00 Build 0)  -->
<svg version="1.1" xmlns="http://www.w3.org/2000/svg" xmlns:xlink="http://www.w3.org/1999/xlink" x="0px" y="0px"
	 viewBox="0 0 1114.1 461.09" style="enable-background:new 0 0 1114.1 461.09;" xml:space="preserve">
<style type="text/css">
	.st0{fill:#01873F;}
	.st1{fill:#5EB198;}
	.st2{fill:#5269AB;}
	.st3{fill:#8C2D7D;}
	.st4{fill:#D22F28;}
	.st5{fill:#E95217;}
	.st6{fill:#FBBA0E;}
	.st7{fill:#F6D548;}
	.st8{fill:url(#SVGID_1_);}
	.st9{fill:url(#SVGID_00000021103681957694295760000007997808009938259365_);}
	.st10{fill:url(#SVGID_00000047037751654743200830000012411949426097216673_);}
	.st11{fill:url(#SVGID_00000130624446255700146270000003832620346395957158_);}
	.st12{fill:url(#SVGID_00000059990580209096304490000016152491817753010051_);}
	.st13{fill:url(#SVGID_00000041997718403525095420000010774694954428927143_);}
	.st14{fill:url(#SVGID_00000018923348702699479510000008091366754605285287_);}
	.st15{fill:url(#SVGID_00000180361090889864471300000001150755941831847596_);}
	.st16{fill:url(#SVGID_00000057125210684153418480000011492686796471944840_);}
	.st17{fill:url(#SVGID_00000138543967597559596510000006497631077931244683_);}
	.st18{opacity:0.2;fill:#244C4C;}
	.st19{fill:none;stroke:#2C2C2C;stroke-width:0.5;stroke-linecap:round;stroke-miterlimit:10;}
	.st20{fill:none;stroke:#2C2C2C;stroke-width:0.6;stroke-linecap:round;stroke-miterlimit:10;}
	.st21{fill:#FFFFFF;stroke:#2C2C2C;stroke-width:0.5;stroke-linecap:round;stroke-miterlimit:10;}
	.st22{fill:#2C2C2C;}
	.st23{fill:#FFFFFF;stroke:#2C2C2C;stroke-width:0.25;stroke-linecap:round;stroke-miterlimit:10;}
	.st24{fill:none;stroke:#2C2C2C;stroke-width:0.25;stroke-linecap:round;stroke-miterlimit:10;}
	.st25{fill:#FFFFFF;stroke:#2C2C2C;stroke-width:0.25;stroke-miterlimit:10;}
	.st26{fill:#2C2C2C;stroke:#2C2C2C;stroke-width:0.25;stroke-miterlimit:10;}
	.st27{fill:#FFFFFF;stroke:#2C2C2C;stroke-width:1.5;stroke-linecap:round;stroke-miterlimit:10;}
	.st28{fill:#FFFFFF;stroke:#2C2C2C;stroke-width:0.75;stroke-linecap:round;stroke-miterlimit:10;}
	.st29{fill:none;stroke:#2C2C2C;stroke-width:0.5;stroke-miterlimit:10;}
	.st30{fill-rule:evenodd;clip-rule:evenodd;fill:none;stroke:#2C2C2C;stroke-miterlimit:10;}
	.st31{fill:#122F2D;}
	.st32{fill-rule:evenodd;clip-rule:evenodd;fill:#122F2D;}
	.st33{fill:#F7D16E;}
	.st34{fill:#FDE8DB;}
	.st35{fill:#244C4C;}
	.st36{fill:#FFFFFF;}
	.st37{fill-rule:evenodd;clip-rule:evenodd;fill:#FFDD67;}
	.st38{fill-rule:evenodd;clip-rule:evenodd;fill:#494949;}
	.st39{fill:#664E27;}
	.st40{fill:none;stroke:#2C2C2C;stroke-width:0.25;stroke-miterlimit:10;}
	.st41{fill:#FDE8DB;stroke:#2C2C2C;stroke-width:0.25;stroke-miterlimit:10;}
	.st42{fill:#FDE8DB;stroke:#2C2C2C;stroke-width:0.5;stroke-linecap:round;stroke-miterlimit:10;}
	.st43{fill:none;stroke:#000000;stroke-width:0.5;stroke-miterlimit:10;}
	.st44{fill:#2C2C2C;stroke:#2C2C2C;stroke-width:0.5;stroke-miterlimit:10;}
	.st45{fill:#FFFFFF;stroke:#2C2C2C;stroke-width:0.5;stroke-miterlimit:10;}
	.st46{fill:#2C2C2C;stroke:#2C2C2C;stroke-width:0.5;stroke-linecap:round;stroke-miterlimit:10;}
	.st47{fill-rule:evenodd;clip-rule:evenodd;fill:#01873F;stroke:#2C2C2C;stroke-width:0.5;stroke-miterlimit:10;}
	.st48{fill-rule:evenodd;clip-rule:evenodd;fill:#FBB90F;stroke:#2C2C2C;stroke-width:0.5;stroke-miterlimit:10;}
	.st49{fill-rule:evenodd;clip-rule:evenodd;fill:#E95316;stroke:#2C2C2C;stroke-width:0.5;stroke-miterlimit:10;}
	.st50{fill-rule:evenodd;clip-rule:evenodd;fill:#409EC6;stroke:#2C2C2C;stroke-width:0.5;stroke-miterlimit:10;}
	.st51{fill-rule:evenodd;clip-rule:evenodd;fill:none;stroke:#2C2C2C;stroke-width:0.5;stroke-miterlimit:10;}
	.st52{fill-rule:evenodd;clip-rule:evenodd;fill:none;stroke:#122F2D;stroke-width:0.5;stroke-miterlimit:10;}
	.st53{fill:#234C4C;}
	.st54{fill:#A1D0E1;}
	.st55{fill:#F39999;}
	.st56{fill:#CDE6DB;}
	.st57{fill:#F8B793;}
	.st58{fill:#F8E89A;}
	.st59{fill:#AC9CCB;}
	.st60{fill:#F5CE6E;}
	.st61{fill:#A4D2E2;}
	.st62{fill:#F39B9B;}
	.st63{fill:#F8E999;}
	.st64{fill:#CCE5D8;}
	.st65{fill:#A69DCD;}
	.st66{fill:#F8B990;}
	.st67{fill:none;stroke:#122F2D;stroke-width:0.75;stroke-linecap:round;stroke-miterlimit:10;}
	.st68{fill:none;stroke:#F7D16E;stroke-width:0.75;stroke-linecap:round;stroke-miterlimit:10;}
	.st69{fill:none;stroke:#122F2D;stroke-width:0.5;stroke-linecap:round;stroke-miterlimit:10;}
	.st70{fill:none;stroke:#122F2D;stroke-width:0.25;stroke-miterlimit:10;}
	.st71{fill:#2C2C2C;stroke:#2C2C2C;stroke-width:0.1;stroke-miterlimit:10;}
	.st72{fill:#2C2C2C;stroke:#2C2C2C;stroke-width:0.25;stroke-linecap:round;stroke-miterlimit:10;}
	.st73{fill:none;stroke:#2C2C2C;stroke-width:0.5;stroke-linejoin:round;stroke-miterlimit:10;}
	.st74{fill:none;stroke:#2C2C2C;stroke-width:0.5;stroke-linecap:round;stroke-linejoin:round;stroke-miterlimit:10;}
	.st75{fill:#FFFFFF;stroke:#2C2C2C;stroke-linecap:round;stroke-miterlimit:10;}
	.st76{fill:#FFFFFF;stroke:#2C2C2C;stroke-miterlimit:10;}
	.st77{fill:#FFFFFF;stroke:#2C2C2C;stroke-width:3;stroke-linecap:round;stroke-miterlimit:10;}
	.st78{fill:#FFFFFF;stroke:#2C2C2C;stroke-width:2;stroke-linecap:round;stroke-miterlimit:10;}
	.st79{fill:none;stroke:#2C2C2C;stroke-miterlimit:10;}
	.st80{fill:none;stroke:#122F2D;stroke-width:0.5;stroke-miterlimit:10;}
	.st81{fill:#01873F;stroke:#2C2C2C;stroke-width:0.25;stroke-linejoin:round;stroke-miterlimit:10;}
	.st82{fill:#5EB198;stroke:#2C2C2C;stroke-width:0.25;stroke-linejoin:round;stroke-miterlimit:10;}
	.st83{fill:#5269AB;stroke:#2C2C2C;stroke-width:0.25;stroke-linejoin:round;stroke-miterlimit:10;}
	.st84{fill:#8C2D7D;stroke:#2C2C2C;stroke-width:0.25;stroke-linejoin:round;stroke-miterlimit:10;}
	.st85{fill:#D22F28;stroke:#2C2C2C;stroke-width:0.25;stroke-linejoin:round;stroke-miterlimit:10;}
	.st86{fill:#E95217;stroke:#2C2C2C;stroke-width:0.25;stroke-linejoin:round;stroke-miterlimit:10;}
	.st87{fill:#FBBA0E;stroke:#2C2C2C;stroke-width:0.25;stroke-linejoin:round;stroke-miterlimit:10;}
	.st88{fill:#F6D548;stroke:#2C2C2C;stroke-width:0.25;stroke-linejoin:round;stroke-miterlimit:10;}
	.st89{fill:#F6D548;stroke:#2C2C2C;stroke-width:0.25;stroke-linecap:round;stroke-linejoin:round;stroke-miterlimit:10;}
	.st90{fill:none;}
	.st91{fill:none;stroke:#E95217;stroke-width:0.5;stroke-linecap:round;stroke-miterlimit:10;}
	.st92{fill:none;stroke:#122F2D;stroke-width:0.1;stroke-miterlimit:10;}
	.st93{fill:#F08111;}
	.st94{fill:#662F88;}
	.st95{fill:#52539F;}
	.st96{fill:#009378;}
	.st97{fill:#008244;}
	.st98{fill:#3A9236;}
	.st99{fill:#FFE006;}
	.st100{fill:#F0E754;}
	.st101{fill:#BED24B;}
	.st102{fill:#47AC34;}
	.st103{fill:#D22A6B;}
	.st104{fill:#527CA9;}
	.st105{fill:none;stroke:#009378;stroke-width:0.5;stroke-miterlimit:10;}
	.st106{fill:#FBC466;}
	.st107{stroke:#000000;stroke-width:0.25;stroke-miterlimit:10;}
	.st108{fill:#2C2C2C;stroke:#2C2C2C;stroke-miterlimit:10;}
	.st109{fill:none;stroke:#2C2C2C;stroke-linecap:round;stroke-miterlimit:10;}
	.st110{fill:#2C2C2C;stroke:#2C2C2C;stroke-linecap:round;stroke-miterlimit:10;}
	.st111{fill:none;stroke:#000000;stroke-width:0.75;stroke-miterlimit:10;}
	.st112{fill:none;stroke:#000000;stroke-linecap:round;stroke-linejoin:round;stroke-miterlimit:10;}
</style>
<g id="Ebene_1">
	<path class="st31" d="M125.9,431.53c0,0.75-0.21,1.49-0.6,2.13c-0.56,0.75-1.35,1.29-2.25,1.53c-1.49,0.47-3.02,0.79-4.57,0.94
		c-2.43,0.24-4.87,0.35-7.31,0.32c-3.36,0.08-6.72-0.1-10.05-0.55c-1.59-0.17-3.11-0.74-4.42-1.64c-0.87-0.72-1.59-1.61-2.1-2.63
		l-42.02-67.31v67.31c0.02,0.74-0.21,1.47-0.64,2.08c-0.59,0.7-1.37,1.21-2.25,1.47c-1.39,0.48-2.84,0.8-4.31,0.94
		c-2.28,0.24-4.58,0.35-6.87,0.32c-2.28,0.03-4.57-0.08-6.84-0.32c-1.48-0.15-2.93-0.47-4.34-0.94c-0.89-0.27-1.69-0.78-2.3-1.47
		c-0.47-0.59-0.72-1.32-0.7-2.08v-133.6c-0.02-0.75,0.23-1.49,0.7-2.08c0.61-0.69,1.41-1.19,2.3-1.44c1.41-0.44,2.87-0.73,4.34-0.87
		c2.27-0.25,4.55-0.36,6.84-0.34c2.3-0.02,4.59,0.09,6.87,0.34c1.46,0.14,2.91,0.43,4.31,0.87c0.88,0.23,1.67,0.73,2.25,1.44
		c0.44,0.6,0.66,1.33,0.64,2.08v60.44l40.83-60.32c0.47-0.9,1.11-1.71,1.89-2.36c0.81-0.69,1.77-1.19,2.8-1.47
		c1.43-0.43,2.91-0.69,4.4-0.77c1.89-0.15,4.08-0.23,6.87-0.23c2.37-0.02,4.74,0.09,7.1,0.34c1.52,0.13,3.01,0.44,4.46,0.93
		c0.9,0.25,1.71,0.76,2.32,1.47c0.42,0.58,0.64,1.27,0.64,1.98c-0.02,1.32-0.36,2.61-0.98,3.78c-0.64,1.32-1.89,3.4-3.65,6.25
		l-38.15,50.99l41.55,64.12c1.04,1.93,1.96,3.92,2.74,5.97C125.69,429.91,125.86,430.71,125.9,431.53z"/>
	<path class="st31" d="M241.88,424.75c0.79,2.57,1.32,4.61,1.62,6.08c0.36,1.18,0.08,2.47-0.76,3.38c-1.27,0.95-2.82,1.45-4.4,1.44
		c-2.13,0.17-5.19,0.26-9.18,0.26c-3.53,0-6.33,0-8.35-0.15c-1.53-0.06-3.05-0.25-4.55-0.57c-0.83-0.14-1.58-0.57-2.12-1.21
		c-0.47-0.69-0.82-1.46-1.04-2.27l-7.04-21.04h-44.5l-6.63,20.36c-0.28,0.89-0.7,1.72-1.25,2.47c-0.59,0.72-1.38,1.24-2.27,1.51
		c-1.45,0.44-2.95,0.68-4.46,0.72c-1.89,0-4.44,0.15-7.55,0.15c-2.52,0.04-5.04-0.06-7.55-0.32c-1.41-0.03-2.75-0.58-3.78-1.55
		c-0.74-1.03-0.99-2.32-0.68-3.55c0.38-2.06,0.91-4.09,1.57-6.08l36.24-101.99c0.36-1.03,0.89-1.98,1.57-2.83
		c0.8-0.78,1.8-1.34,2.89-1.61c1.74-0.43,3.52-0.69,5.31-0.77c2.24-0.15,5.21-0.23,8.9-0.23h7.55c1.82,0,3.63,0.09,5.44,0.28
		c1.22,0.12,2.43,0.33,3.63,0.6c0.83,0.23,1.62,0.58,2.34,1.06c0.59,0.43,1.08,0.98,1.45,1.61c0.41,0.72,0.74,1.48,0.98,2.27
		L241.88,424.75z M184.07,341.19h-0.21l-15.77,48.29h31.79L184.07,341.19z"/>
	<path class="st31" d="M363.09,425.84c0.17,2.54-0.67,5.05-2.34,6.97c-1.72,1.68-4.06,2.57-6.46,2.44h-21.81
		c-2.52,0.13-5.01-0.61-7.04-2.1c-2.06-1.83-3.63-4.16-4.55-6.76l-23.99-50.12c-2.4-5.16-4.76-10.42-7.06-15.77
		c-2.3-5.35-4.55-10.39-6.72-15.11H283c0,2.2,0.04,4.6,0.11,7.2c0,2.57,0.15,5.19,0.21,7.86c0.06,2.66,0.13,5.29,0.17,7.91
		c0.04,2.63,0,5.02,0,7.23v56.45c0.02,0.66-0.15,1.32-0.49,1.89c-0.44,0.61-1.07,1.06-1.79,1.28c-1.15,0.39-2.35,0.63-3.57,0.72
		c-1.53,0.13-3.51,0.21-5.97,0.21c-2.05,0.05-4.1-0.02-6.14-0.21c-1.28-0.09-2.55-0.33-3.78-0.72c-0.75-0.21-1.42-0.66-1.89-1.28
		c-0.34-0.57-0.51-1.22-0.49-1.89V327.16c-0.51-4.69,2.87-8.9,7.56-9.42c0.52-0.06,1.04-0.07,1.57-0.03h22.66
		c1.23-0.01,2.46,0.16,3.65,0.49c1.11,0.34,2.15,0.86,3.08,1.55c0.99,0.76,1.87,1.65,2.61,2.66c0.86,1.18,1.58,2.44,2.17,3.78
		l21.93,46.48c2.68,5.82,5.2,11.42,7.55,16.81c2.35,5.39,4.72,10.74,7.1,16.05h0.23c0-2.59-0.15-5.34-0.23-8.31
		c-0.08-2.97-0.11-5.93-0.15-8.95s0-6.02-0.11-8.97c-0.11-2.95,0-5.67,0-8.4v-49.41c-0.02-0.66,0.15-1.32,0.49-1.89
		c0.48-0.64,1.13-1.12,1.89-1.38c1.17-0.43,2.39-0.71,3.63-0.83c1.98-0.21,3.97-0.3,5.97-0.28c2.05-0.02,4.1,0.08,6.14,0.28
		c1.29,0.11,2.56,0.39,3.78,0.83c0.75,0.26,1.41,0.74,1.89,1.38c0.34,0.57,0.51,1.23,0.49,1.89L363.09,425.84z"/>
	<path class="st31" d="M495.79,425.84c0.17,2.54-0.66,5.04-2.32,6.97c-1.72,1.68-4.06,2.57-6.46,2.44h-21.81
		c-2.52,0.13-5.01-0.61-7.04-2.1c-2.06-1.84-3.63-4.16-4.57-6.76l-23.99-50.12c-2.4-5.16-4.76-10.42-7.06-15.77
		c-2.32-5.34-4.55-10.41-6.72-15.11h-0.11c0,2.2,0.04,4.6,0.11,7.2c0,2.57,0.15,5.19,0.21,7.86c0.06,2.66,0.13,5.29,0.17,7.91
		c0.04,2.63,0,5.02,0,7.23v56.45c0.02,0.66-0.15,1.32-0.49,1.89c-0.47,0.62-1.13,1.08-1.89,1.28c-1.15,0.39-2.35,0.63-3.57,0.72
		c-1.53,0.13-3.51,0.21-5.97,0.21c-2.05,0.05-4.1-0.02-6.14-0.21c-1.28-0.09-2.55-0.33-3.78-0.72c-0.75-0.21-1.42-0.66-1.89-1.28
		c-0.34-0.57-0.51-1.22-0.49-1.89V327.16c-0.16-2.57,0.74-5.1,2.49-6.99c1.83-1.72,4.29-2.61,6.8-2.46h22.66
		c1.23-0.01,2.46,0.16,3.65,0.49c1.11,0.34,2.15,0.86,3.08,1.55c0.99,0.76,1.87,1.65,2.61,2.66c0.86,1.18,1.58,2.44,2.17,3.78
		l21.93,46.48c2.67,5.82,5.22,11.42,7.65,16.81c2.43,5.39,4.8,10.74,7.1,16.05h0.23c0-2.59-0.15-5.34-0.23-8.31
		c-0.08-2.97-0.13-5.93-0.15-8.95c-0.02-3.02,0-6.02-0.11-8.97c-0.11-2.95,0-5.67,0-8.4v-49.41c-0.02-0.66,0.15-1.32,0.49-1.89
		c0.48-0.64,1.13-1.12,1.89-1.38c1.18-0.43,2.4-0.71,3.65-0.83c1.98-0.21,3.97-0.3,5.97-0.28c2.05-0.02,4.1,0.08,6.14,0.28
		c1.29,0.12,2.56,0.4,3.78,0.83c0.75,0.26,1.41,0.74,1.89,1.38c0.32,0.58,0.48,1.23,0.47,1.89L495.79,425.84z"/>
	<path class="st31" d="M626.12,424.75c0.64,2,1.18,4.03,1.62,6.08c0.36,1.18,0.08,2.47-0.76,3.38c-1.27,0.95-2.81,1.46-4.4,1.44
		c-2.13,0.17-5.19,0.26-9.16,0.26c-3.55,0-6.35,0-8.37-0.15c-1.53-0.06-3.05-0.25-4.55-0.57c-0.83-0.13-1.58-0.56-2.12-1.21
		c-0.48-0.69-0.83-1.46-1.04-2.27l-7.04-21.04h-44.5l-6.69,20.36c-0.3,0.88-0.72,1.71-1.25,2.47c-0.6,0.72-1.39,1.24-2.29,1.51
		c-1.45,0.44-2.95,0.68-4.46,0.72c-1.89,0-4.42,0.15-7.55,0.15c-2.52,0.05-5.05-0.05-7.55-0.32c-1.41-0.02-2.76-0.57-3.78-1.55
		c-0.73-1.03-0.97-2.33-0.64-3.55c0.38-2.06,0.91-4.09,1.57-6.08l36.24-101.99c0.34-1.04,0.88-2,1.59-2.83
		c0.79-0.79,1.78-1.35,2.87-1.61c1.74-0.42,3.52-0.68,5.31-0.77c2.25-0.15,5.21-0.23,8.91-0.23h7.65c1.89,0,3.61,0.11,5.42,0.28
		c1.22,0.13,2.43,0.33,3.63,0.6c0.83,0.23,1.62,0.58,2.34,1.06c0.58,0.44,1.08,0.98,1.45,1.61c0.41,0.72,0.74,1.48,0.98,2.27
		L626.12,424.75z M568.29,341.19h-0.23l-15.71,48.29h31.79L568.29,341.19z"/>
	<path class="st31" d="M651.34,435.52V317.09h17.05l44.46,103.18l45.43-103.18h16.24v118.43h-10.66V326.11h-0.33l-45.27,109.41
		H707.6L662.31,326.6h-0.32v108.92H651.34z"/>
	<path class="st31" d="M791.85,435.52l46.91-118.43h12.47l47.24,118.43h-11.66l-12.63-31.99H815.3l-12.47,31.99H791.85z
		 M870.41,393.7l-25.59-66.77l-26.07,66.77H870.41z"/>
	<path class="st31" d="M916.25,435.52V317.09h29.7c22.79-0.49,48.39,5.25,48.39,33.46c0,28.22-25.59,33.96-48.39,33.47h-19.02v51.51
		H916.25z M926.92,374.17h25.91c15.91,0,30.02-5.08,30.02-23.62c0-18.53-14.11-23.62-30.02-23.62h-25.91V374.17z"/>
	<path class="st31" d="M1045.13,435.79c-18.15,0-33.45-13.25-33.92-32.03h11.05c0.3,17.52,13.25,22.57,28.55,22.57
		c12.79,0,27.47-7.42,27.47-21.94c0-11.36-8.22-16.72-17.84-19.88c-18.45-6.15-46.55-11.99-46.55-36.61
		c0-19.88,18.3-30.77,36.3-30.77c15,0,34.55,5.21,37.08,27.15h-11.03c-0.32-14.05-13.1-17.67-24.77-17.67
		c-11.84,0-26.52,6-26.52,19.88c0,32.35,64.39,17.67,64.39,56.96C1089.32,428.22,1068,435.79,1045.13,435.79z"/>
	<g>
		<path class="st60" d="M540.04,150.48c-1.7,1.69-4.72,3.01-8.1,1.6l-97.48-40.37c-2.33-0.97-3.95-2.94-4.44-5.42
			c-0.5-2.48,0.25-4.91,2.03-6.69l57.1-57.12c1.43-1.42,3.27-2.18,5.21-2.18c0.5,0,0.99,0.05,1.5,0.15c2.48,0.5,4.45,2.11,5.42,4.44
			l40.37,97.49C543.05,145.77,541.74,148.78,540.04,150.48z"/>
	</g>
	<path class="st53" d="M688.47,94c-0.49,2.48-2.11,4.45-4.44,5.42l-97.49,40.37c-3.38,1.41-6.4,0.09-8.1-1.6
		c-1.69-1.7-3.01-4.71-1.6-8.1l40.37-97.49c0.97-2.33,2.94-3.95,5.42-4.44c0.51-0.1,1-0.15,1.5-0.15c1.94,0,3.78,0.75,5.21,2.18
		l57.11,57.11C688.22,89.08,688.96,91.52,688.47,94z"/>
	<path class="st61" d="M674.14,227.47l-57.12,57.1c-1.78,1.78-4.22,2.53-6.69,2.03c-2.48-0.49-4.45-2.11-5.42-4.44l-40.38-97.49
		c-1.4-3.39-0.08-6.39,1.61-8.09c1.2-1.19,3.05-2.2,5.22-2.2c0.91,0,1.88,0.18,2.88,0.59l97.48,40.37c2.34,0.97,3.95,2.94,4.45,5.42
		C676.66,223.24,675.92,225.67,674.14,227.47z"/>
	<path class="st62" d="M541.66,184.67l-40.38,97.48c-0.01,0.02-0.01,0.03-0.02,0.05c-0.97,2.31-2.93,3.9-5.4,4.4
		c-2.48,0.5-4.91-0.25-6.7-2.03l-57.1-57.1c-1.78-1.79-2.53-4.23-2.03-6.7c0.5-2.48,2.11-4.45,4.44-5.42l97.48-40.37
		c1-0.42,1.97-0.59,2.88-0.59c2.17,0,4.02,1.01,5.22,2.2C541.74,178.28,543.05,181.28,541.66,184.67z"/>
	<path class="st63" d="M600.33,43l-40.38,97.48c-1.4,3.39-4.46,4.58-6.86,4.58c-2.4,0-5.46-1.2-6.86-4.58L505.85,43
		c-0.97-2.33-0.71-4.87,0.68-6.96c1.41-2.1,3.65-3.31,6.18-3.31h80.76c2.53,0,4.77,1.2,6.18,3.3C601.06,38.12,601.3,40.66,600.33,43
		z"/>
	<path class="st64" d="M683.89,123.14v80.77c0,2.53-1.21,4.77-3.31,6.18c-2.1,1.4-4.63,1.65-6.96,0.68l-97.49-40.38
		c-3.38-1.4-4.59-4.47-4.59-6.86c0-2.4,1.21-5.46,4.59-6.86l97.49-40.38c2.33-0.96,4.86-0.71,6.96,0.68
		C682.69,118.37,683.89,120.62,683.89,123.14z"/>
	<path class="st65" d="M599.65,291.02c-0.7,1.05-1.61,1.87-2.67,2.44c-1.05,0.56-2.24,0.86-3.51,0.86h-80.76
		c-2.53,0-4.77-1.21-6.18-3.31c-1.4-2.09-1.65-4.63-0.68-6.96l40.37-97.48c1.41-3.39,4.47-4.59,6.86-4.59c2.41,0,5.47,1.2,6.86,4.59
		l40.38,97.48C601.3,286.39,601.06,288.92,599.65,291.02z"/>
	<path class="st66" d="M534.63,163.52c0,2.4-1.2,5.47-4.59,6.86l-97.47,40.37c-2.34,0.97-4.87,0.72-6.97-0.68
		c-2.1-1.4-3.3-3.65-3.3-6.17v-80.76c0-2.53,1.2-4.77,3.3-6.18c1.26-0.84,2.67-1.27,4.1-1.27c0.96,0,1.93,0.2,2.87,0.58l97.47,40.37
		C533.43,158.07,534.63,161.13,534.63,163.52z"/>
</g>
<g id="Ebene_2">
</g>
<g id="Ebene_3">
</g>
<g id="Ebene_4">
</g>
</svg>
