<svg xmlns="http://www.w3.org/2000/svg" id="Ebene_1" data-name="Ebene 1" width="655.99" height="367.99" viewBox="0 0 655.99 367.99"><defs><style>      .cls-1, .cls-2 {        fill: #122f2d;      }      .cls-2 {        fill-rule: evenodd;      }      .cls-3 {        fill: #f6d06d;      }    </style></defs><g><path class="cls-1" d="M62.2,357.26a2.15,2.15,0,0,1-.32,1.13,2.19,2.19,0,0,1-1.19.81,11.83,11.83,0,0,1-2.42.5,35.68,35.68,0,0,1-3.87.17,33.76,33.76,0,0,1-5.32-.29,5.09,5.09,0,0,1-2.34-.87,4.29,4.29,0,0,1-1.11-1.39L23.38,321.68v35.64a1.79,1.79,0,0,1-.34,1.1,2.46,2.46,0,0,1-1.19.78,9.88,9.88,0,0,1-2.28.5,31.57,31.57,0,0,1-3.64.17,31.23,31.23,0,0,1-3.62-.17,10.74,10.74,0,0,1-2.3-.5,2.65,2.65,0,0,1-1.22-.78,1.68,1.68,0,0,1-.37-1.1V286.58a1.68,1.68,0,0,1,.37-1.1,2.53,2.53,0,0,1,1.22-.76,11.3,11.3,0,0,1,2.3-.46,31.23,31.23,0,0,1,3.62-.18,31.58,31.58,0,0,1,3.64.18,11,11,0,0,1,2.28.46,2.29,2.29,0,0,1,1.19.76,1.79,1.79,0,0,1,.34,1.1v32L45,286.64a4.06,4.06,0,0,1,1-1.25,3.84,3.84,0,0,1,1.48-.78,10.26,10.26,0,0,1,2.33-.41c1-.08,2.16-.12,3.64-.12a33.69,33.69,0,0,1,3.76.18,10,10,0,0,1,2.36.49,2.48,2.48,0,0,1,1.23.78,1.78,1.78,0,0,1,.34,1.05,4.41,4.41,0,0,1-.52,2c-.34.7-1,1.8-1.93,3.31l-20.2,27,22,33.95A26.49,26.49,0,0,1,61.94,356,4.29,4.29,0,0,1,62.2,357.26Z"></path><path class="cls-2" d="M300.17,239.22q51.29-14.65,89.89,6.19Q370.37,263.34,335,260a4,4,0,0,1,0-7.84q29.64,1.14,39-5.85c-23.16-8.74-67.84-5.41-89.71,7.31"></path><path class="cls-2" d="M284.21,253.61s-.07-3.81,0-9.81c.2-12.11,1.07-33.13,4.52-49.76,7.38-35.45,21.86-68.85,51.16-99.47q6.57,47.75-9.41,89.07a5,5,0,0,1-4.12.19,5,5,0,0,1-2.85-3q14.21-48.45,10.47-67.75Q294.37,165.27,292.22,231"></path><path class="cls-2" d="M292.22,231Q349,171.06,403.34,168.25q-19.83,38.16-50.61,57.55a4.56,4.56,0,0,1-4.71-7q31-23.19,39.59-38.94Q337,192,300.17,239.22"></path><polygon class="cls-2" points="292.22 230.99 292.27 231.05 300.22 239.27 301.63 242.3 284.21 253.61 284.21 253.61 292.22 230.99"></polygon><g><path class="cls-3" d="M464,102.52c.53,1,1.54,1.11,2.26,1.62.42.31,1,1,.75,1.14-2.06,1.34-1.63,4.71-4.51,5.31-11.67,2.43-22.3,8.18-33.68,11.49-.8.23-1.59.51-2.39.76-4.62,1.4-4.61,1.39-4.75-3.13s0-5,4.59-7.15c9.47-4.43,19-8.82,28.67-12.71,3-1.22,6.15-2.14,9.38-1.16a8.47,8.47,0,0,1,2.47,1.11c.66.43,1.41,1.11,1,2s-1.25.34-1.9.24A2,2,0,0,0,464,102.52Z"></path><path class="cls-3" d="M445.78,58.53c-2.12,3.51-5.37,5.78-8.73,7.92-7.34,4.66-15.34,8.13-22.55,13-1.4.94-2.05.61-2.52-1.11-1.37-5,1.81-7.62,5.31-10,7-4.72,14.2-9.25,21.29-13.9,1.84-1.21,3.59-2.52,5.36-3.83a2.36,2.36,0,0,1,2.87,0c.94.56.87,1.3.61,2.35A19,19,0,0,1,445.78,58.53Z"></path><path class="cls-3" d="M396.14,29.54c2-3.78,3.94-7.58,5.95-11.35.65-1.2,1.32-2.47,3.06-2.1,1.58.34,1,1.69,1.24,2.71a10.68,10.68,0,0,1-.54,5.76c-2.82,8.17-6.31,16-11.79,22.93-.59.74-1,1.63-2.14,1.56s-1-1.24-1.41-2c-1.9-3.47-.34-6.45,1.38-9.5,1.48-2.63,2.82-5.34,4.22-8C396.13,29.53,396.13,29.53,396.14,29.54Z"></path></g><path class="cls-1" d="M343.91,296.14l19.21,45,5.79,14.39h.19l24.67-59.37h6.55v64.38H396.2V330.76q0-14.43.67-30.68h-.38q-7.12,16.05-8.8,20.09l-16.54,40.35H367l-17-40.35q-1.26-3-8.89-20.09h-.29q.68,20.49.67,30.68v29.76h-4.2V296.14Z"></path><path class="cls-1" d="M417.43,296.14h36.42V300H421.64v25.62h29.48v3.85H421.64v27.21h34.07v3.85H417.43Z"></path><path class="cls-1" d="M482.43,296.14a69.76,69.76,0,0,1,13.15,1q11.82,3,17.54,11.05t5.74,19.8q0,12.33-6.24,20.8a27.49,27.49,0,0,1-17,10.79,60.13,60.13,0,0,1-11.76,1H469.91V296.14Zm31.94,31.92q0-10.62-4.76-17.55a23.57,23.57,0,0,0-13.74-9.37,34.36,34.36,0,0,0-6.22-.94q-3.43-.21-9-.21H474.1v56.68H481c3.47,0,6.22-.05,8.25-.17a32.17,32.17,0,0,0,5.71-.79,22.75,22.75,0,0,0,14.24-9.39Q514.38,339,514.37,328.06Z"></path><path class="cls-1" d="M533.92,296.14h4.21v64.38h-4.21Z"></path><path class="cls-1" d="M553.19,328.88A37.72,37.72,0,0,1,557.25,311a29.41,29.41,0,0,1,11.4-12,33.11,33.11,0,0,1,16.85-4.23,38.7,38.7,0,0,1,7.82.78,18.77,18.77,0,0,1,5.67,1.8v4a39.43,39.43,0,0,0-13.06-2.65,29.93,29.93,0,0,0-14.24,3.42,25.09,25.09,0,0,0-10.18,10.21q-3.78,6.81-3.78,16.57,0,13.89,7.53,21.33T587,357.74a32.08,32.08,0,0,0,12.71-2.6v4a21.35,21.35,0,0,1-6,1.92,38,38,0,0,1-7.38.68q-16,0-24.53-8.53T553.19,328.88Z"></path><path class="cls-1" d="M611.36,358.26v-4.62a29.37,29.37,0,0,0,7.65,2.79,36.41,36.41,0,0,0,8.8,1.35q8.6,0,13.36-3.23t4.76-11a11.87,11.87,0,0,0-1.61-6.45A11.7,11.7,0,0,0,640,333a50,50,0,0,0-9.94-3.52,76.3,76.3,0,0,1-10-3.15,15.48,15.48,0,0,1-6.36-4.87q-2.58-3.3-2.58-8.88a16,16,0,0,1,5.76-12.91q5.76-4.86,15.08-4.86a40.66,40.66,0,0,1,12,1.78,42.4,42.4,0,0,1,4.21,1.78V303c-2-.9-3.61-1.63-5-2.19a30.85,30.85,0,0,0-5-1.47,34.73,34.73,0,0,0-6.43-.67q-8.25,0-12.26,3.85a13.62,13.62,0,0,0-4,10.26,10.44,10.44,0,0,0,1.74,6.36,11.33,11.33,0,0,0,4.71,3.56,76.84,76.84,0,0,0,8.85,2.89A91.39,91.39,0,0,1,641,329a16.32,16.32,0,0,1,6.48,5q2.74,3.45,2.75,9.37,0,8.67-5.91,13.51t-16.8,4.84a38.46,38.46,0,0,1-9.37-1.21A30.64,30.64,0,0,1,611.36,358.26Z"></path><path class="cls-1" d="M123.61,353.67c.42,1.36.7,2.44.86,3.22a1.85,1.85,0,0,1-.4,1.79,3.83,3.83,0,0,1-2.33.76c-1.13.09-2.75.14-4.86.14-1.87,0-3.35,0-4.42-.08a13.93,13.93,0,0,1-2.41-.3,1.85,1.85,0,0,1-1.12-.64,4,4,0,0,1-.55-1.2l-3.73-11.14H81.09L77.58,357a4.48,4.48,0,0,1-.66,1.31,2.46,2.46,0,0,1-1.2.8,9,9,0,0,1-2.36.38c-1,0-2.35.08-4,.08a33.45,33.45,0,0,1-4-.17,3,3,0,0,1-2-.82,2.28,2.28,0,0,1-.36-1.88,24.16,24.16,0,0,1,.83-3.22l19.19-54a5.13,5.13,0,0,1,.83-1.5,3.31,3.31,0,0,1,1.53-.85,14.77,14.77,0,0,1,2.81-.41q1.78-.12,4.71-.12h4a27.78,27.78,0,0,1,2.88.15,15.38,15.38,0,0,1,1.92.32,4.34,4.34,0,0,1,1.24.56,2.84,2.84,0,0,1,.77.85,6.05,6.05,0,0,1,.52,1.2ZM93,309.43h-.11L84.54,335h16.83Z"></path><path class="cls-1" d="M187.79,354.25a5.11,5.11,0,0,1-1.24,3.69,4.54,4.54,0,0,1-3.42,1.29H171.58a5.8,5.8,0,0,1-3.73-1.11,8.68,8.68,0,0,1-2.41-3.58L152.74,328q-1.91-4.1-3.74-8.35t-3.56-8h-.06q0,1.75.06,3.81c0,1.36.08,2.75.11,4.16s.07,2.8.09,4.19,0,2.66,0,3.83v29.89a1.83,1.83,0,0,1-.26,1,1.85,1.85,0,0,1-.95.68,7.64,7.64,0,0,1-1.89.38c-.81.07-1.86.11-3.16.11a27.15,27.15,0,0,1-3.25-.11,8.52,8.52,0,0,1-2-.38,1.88,1.88,0,0,1-1-.68,1.83,1.83,0,0,1-.26-1V302a4.52,4.52,0,0,1,4.83-5h12a7,7,0,0,1,1.93.26,5.43,5.43,0,0,1,1.63.82,6.83,6.83,0,0,1,1.38,1.41,10.79,10.79,0,0,1,1.15,2l11.61,24.61q2.13,4.62,4,8.9t3.76,8.5h.12c0-1.37-.08-2.83-.12-4.4s-.06-3.14-.08-4.74,0-3.19-.06-4.75,0-3,0-4.45V299a1.87,1.87,0,0,1,.26-1,2.09,2.09,0,0,1,1-.73,7.87,7.87,0,0,1,1.92-.44,27.74,27.74,0,0,1,3.16-.15,29.46,29.46,0,0,1,3.25.15,8,8,0,0,1,2,.44,2.09,2.09,0,0,1,1,.73,1.87,1.87,0,0,1,.26,1Z"></path><path class="cls-1" d="M258.05,354.25a5.11,5.11,0,0,1-1.23,3.69,4.54,4.54,0,0,1-3.42,1.29H241.85a5.79,5.79,0,0,1-3.73-1.11,8.8,8.8,0,0,1-2.42-3.58L223,328q-1.91-4.1-3.74-8.35c-1.23-2.83-2.41-5.51-3.56-8h-.06q0,1.75.06,3.81c0,1.36.08,2.75.11,4.16s.07,2.8.09,4.19,0,2.66,0,3.83v29.89a1.83,1.83,0,0,1-.26,1,1.88,1.88,0,0,1-1,.68,7.64,7.64,0,0,1-1.89.38c-.81.07-1.86.11-3.16.11a27.08,27.08,0,0,1-3.25-.11,8.52,8.52,0,0,1-2-.38,1.88,1.88,0,0,1-1-.68,1.83,1.83,0,0,1-.26-1V302a5,5,0,0,1,1.32-3.7A4.83,4.83,0,0,1,208,297h12a7,7,0,0,1,1.93.26,5.43,5.43,0,0,1,1.63.82,6.83,6.83,0,0,1,1.38,1.41,10.79,10.79,0,0,1,1.15,2l11.61,24.61q2.12,4.62,4.05,8.9t3.76,8.5h.12c0-1.37-.08-2.83-.12-4.4s-.07-3.14-.08-4.74,0-3.19-.06-4.75,0-3,0-4.45V299a1.87,1.87,0,0,1,.26-1,2.09,2.09,0,0,1,1-.73,8,8,0,0,1,1.93-.44,27.74,27.74,0,0,1,3.16-.15,29.46,29.46,0,0,1,3.25.15,8.14,8.14,0,0,1,2,.44,2.09,2.09,0,0,1,1,.73,2,2,0,0,1,.25,1Z"></path><path class="cls-1" d="M327.06,353.67a33.25,33.25,0,0,1,.86,3.22,1.85,1.85,0,0,1-.4,1.79,3.78,3.78,0,0,1-2.33.76c-1.13.09-2.75.14-4.85.14-1.88,0-3.36,0-4.43-.08a13.93,13.93,0,0,1-2.41-.3,1.83,1.83,0,0,1-1.12-.64,3.74,3.74,0,0,1-.55-1.2l-3.73-11.14H284.54L281,357a5.2,5.2,0,0,1-.66,1.31,2.53,2.53,0,0,1-1.21.8,9,9,0,0,1-2.36.38c-1,0-2.34.08-4,.08a31.41,31.41,0,0,1-4-.17,2.93,2.93,0,0,1-2-.82,2.24,2.24,0,0,1-.34-1.88,24.16,24.16,0,0,1,.83-3.22l19.19-54a4.55,4.55,0,0,1,.84-1.5,3.15,3.15,0,0,1,1.52-.85,15.61,15.61,0,0,1,2.81-.41c1.19-.08,2.76-.12,4.72-.12h4.05c1,0,1.91.06,2.87.15a15.69,15.69,0,0,1,1.92.32,4.34,4.34,0,0,1,1.24.56,3,3,0,0,1,.77.85,6.05,6.05,0,0,1,.52,1.2Zm-30.62-44.24h-.12L288,335h16.83Z"></path><polygon class="cls-2" points="290.35 232.3 290.41 232.35 299.5 238.6 301.26 241.09 284.25 253.03 284.25 253.03 290.35 232.3"></polygon><polygon class="cls-2" points="299.1 238.71 299.05 238.75 292.08 245.46 289.93 246.4 288.27 227 288.27 227 299.1 238.71"></polygon><polygon class="cls-2" points="300.34 240.97 300.28 240.95 290.95 239.32 287.67 235.44 300.2 223.63 300.2 223.63 300.34 240.97"></polygon></g></svg>