<svg xmlns="http://www.w3.org/2000/svg" viewBox="0 0 183.73 244.5"><defs><style>.cls-1{fill:#122f2d;fill-rule:evenodd;}.cls-2{fill:#f6d06d;}</style></defs><g id="Layer_2" data-name="Layer 2"><g id="Ebene_1" data-name="Ebene 1"><path class="cls-1" d="M16,223.2q51.28-14.65,89.89,6.19Q86.19,247.32,50.82,244a4,4,0,0,1,0-7.84q29.64,1.14,39-5.85C66.66,221.55,22,224.88.11,237.6"/><path class="cls-1" d="M0,237.59s-.07-3.81,0-9.81C.23,215.67,1.1,194.65,4.55,178c7.38-35.45,21.86-68.85,51.16-99.47q6.57,47.74-9.41,89.07a5,5,0,0,1-7-2.81q14.2-48.45,10.47-67.75Q10.19,149.25,8,215"/><path class="cls-1" d="M8,215Q64.82,155,119.16,152.23q-19.83,38.16-50.61,57.55a4.56,4.56,0,0,1-5.38-3.55,4.52,4.52,0,0,1,.67-3.45q31-23.19,39.59-38.94Q52.82,176,16,223.2"/><polygon class="cls-1" points="8.04 214.97 8.09 215.03 16.04 223.25 17.45 226.28 0.03 237.59 0.03 237.59 8.04 214.97"/><path class="cls-2" d="M179.82,86.5c.53,1,1.54,1.11,2.26,1.62.42.31,1,1,.75,1.14-2.06,1.34-1.63,4.71-4.51,5.31-11.67,2.43-22.3,8.18-33.68,11.49-.8.23-1.59.51-2.39.76-4.62,1.4-4.61,1.39-4.75-3.13s0-5,4.59-7.15c9.47-4.43,19-8.82,28.67-12.71,3-1.22,6.15-2.14,9.38-1.16a8.33,8.33,0,0,1,2.47,1.11c.66.43,1.41,1.11,1,2s-1.25.34-1.9.24A2,2,0,0,0,179.82,86.5Z"/><path class="cls-2" d="M161.6,42.51c-2.12,3.51-5.37,5.78-8.73,7.92-7.34,4.66-15.34,8.13-22.55,13-1.4.94-2,.61-2.52-1.11-1.37-5,1.81-7.62,5.31-10,7-4.72,14.2-9.25,21.29-13.9,1.84-1.21,3.59-2.52,5.36-3.83a2.36,2.36,0,0,1,2.87,0c.94.56.87,1.3.61,2.35A19.09,19.09,0,0,1,161.6,42.51Z"/><path class="cls-2" d="M112,13.52c2-3.78,3.94-7.58,6-11.35C118.56,1,119.23-.3,121,.07c1.58.34,1,1.69,1.24,2.71a10.69,10.69,0,0,1-.54,5.76c-2.82,8.17-6.31,16-11.79,22.93-.59.74-1,1.63-2.14,1.56s-1-1.24-1.41-2c-1.9-3.47-.34-6.45,1.38-9.5,1.48-2.63,2.82-5.34,4.22-8C112,13.51,112,13.51,112,13.52Z"/><polygon class="cls-1" points="6.17 216.28 6.23 216.32 15.32 222.57 17.08 225.06 0.07 237 0.07 237 6.17 216.28"/><polygon class="cls-1" points="14.92 222.69 14.87 222.72 7.9 229.44 5.75 230.38 4.09 210.97 4.09 210.97 14.92 222.69"/><polygon class="cls-1" points="16.16 224.94 16.1 224.93 6.77 223.29 3.49 219.41 16.02 207.6 16.02 207.6 16.16 224.94"/></g></g></svg>