<svg id="Capa_1" enable-background="new 0 0 512 512" height="512" viewBox="0 0 512 512" width="512" xmlns="http://www.w3.org/2000/svg"><g><path d="m505.632 323.501c-2.029-1.699-43.796-36.18-100.4-45.944 53.937-57.401 63.284-135.49 63.664-138.869.511-4.536-1.072-9.057-4.299-12.284-3.227-3.228-7.75-4.808-12.284-4.3-3.233.364-74.882 8.941-131.347 56.941.022-1.353.034-2.7.034-4.045 0-92.024-50.548-165.502-52.7-168.585-2.805-4.019-7.398-6.415-12.3-6.415s-9.495 2.396-12.3 6.415c-2.152 3.083-52.7 76.561-52.7 168.585 0 1.345.011 2.692.034 4.045-56.464-48.001-128.113-56.577-131.347-56.941-4.539-.506-9.057 1.073-12.284 4.3-3.228 3.228-4.81 7.748-4.299 12.284.38 3.379 9.728 81.468 63.664 138.869-56.604 9.765-98.371 44.245-100.4 45.944-3.402 2.85-5.368 7.061-5.368 11.499s1.966 8.649 5.368 11.499c2.241 1.877 52.981 43.762 118.643 48.133-22.664 38.041-25.287 78.815-25.408 80.933-.243 4.243 1.326 8.39 4.316 11.409 2.99 3.021 7.124 4.625 11.366 4.431 3.16-.149 77.886-4.138 120.552-46.803 1.853-1.853 3.658-3.773 5.415-5.755 1.389 23.738 9.002 46.575 22.266 66.472 2.891 4.336 7.647 6.682 12.495 6.682 2.859 0 5.75-.816 8.307-2.521 6.893-4.595 8.756-13.908 4.161-20.801-9.841-14.762-15.678-31.608-17.118-49.156 1.565 1.74 3.16 3.441 4.8 5.08 42.666 42.665 117.392 46.653 120.552 46.803.236.011.472.017.707.017 3.994 0 7.835-1.595 10.659-4.447 2.99-3.02 4.559-7.166 4.316-11.409-.121-2.117-2.744-42.892-25.408-80.933 65.662-4.371 116.402-46.256 118.643-48.133 3.402-2.85 5.368-7.061 5.368-11.499s-1.966-8.651-5.368-11.501zm-129.632 41.499c-5.453 0-11.341-.425-18.003-1.299-6.33-.839-12.498 2.438-15.36 8.148-2.863 5.71-1.796 12.606 2.658 17.185 21.326 21.917 30.543 51.496 34.434 70.225-22.176-3.592-59.305-12.823-82.352-35.87-10.817-10.817-19.68-24.692-26.376-41.257v-48.134c0-8.284-6.716-15-15-15s-15 6.716-15 15v48.133c-6.696 16.565-15.558 30.439-26.376 41.258-23.049 23.049-60.181 32.279-82.352 35.87 3.893-18.736 13.111-48.312 34.433-70.225 4.455-4.578 5.521-11.475 2.658-17.185-2.566-5.119-7.787-8.277-13.403-8.277-.648 0-1.302.043-1.957.129-6.663.874-12.551 1.299-18.004 1.299-39.254 0-74.333-17.717-93.933-29.999 19.607-12.287 54.682-30.001 93.933-30.001 1.71 0 3.542.104 5.482.214l1.612.09c6.625.357 12.698-3.69 14.926-9.94 2.229-6.251.086-13.223-5.269-17.143-7.497-5.486-14.392-11.363-20.496-17.467-33.901-33.902-49.049-78.971-55.33-104.828 25.865 6.283 70.93 21.432 104.828 55.331 5.833 5.832 11.446 12.363 16.682 19.411 4.165 5.605 11.647 7.597 18.045 4.801 6.399-2.796 10.023-9.638 8.74-16.502-2.8-14.988-4.22-29.78-4.22-43.967 0-55.112 20.984-103.984 35-130.479 14.019 26.499 35 75.367 35 130.479 0 14.187-1.42 28.979-4.221 43.967-1.283 6.864 2.341 13.706 8.74 16.502s13.881.806 18.045-4.801c5.236-7.048 10.848-13.579 16.682-19.412 33.92-33.92 79.022-49.066 104.872-55.341-6.231 25.808-21.324 70.787-55.374 104.839-6.104 6.104-13 11.98-20.496 17.467-5.355 3.92-7.498 10.892-5.269 17.143s8.298 10.303 14.926 9.94l1.612-.09c1.94-.109 3.772-.214 5.482-.214 39.254 0 74.333 17.717 93.933 29.999-19.606 12.287-54.681 30.001-93.932 30.001z"/></g></svg>