<?xml version="1.0" encoding="UTF-8"?><svg id="Ebene_1" xmlns="http://www.w3.org/2000/svg" viewBox="0 0 24 24"><defs><style>.cls-1{stroke-linecap:round;stroke-linejoin:round;}.cls-1,.cls-2{fill:none;stroke:#2c2c2c;stroke-width:.5px;}.cls-2{stroke-miterlimit:10;}</style></defs><path class="cls-2" d="m14.36,13.47c0-.33.61-1.3.61-1.3,0,0,.61.96.61,1.3s-.27.61-.61.61-.61-.27-.61-.61Z"/><path class="cls-1" d="m7.95,20.49s0-3.71-.35-4.85c-.28-.93-1.61-2.26-1.79-3.46-.13-.8-.29-2.17.09-3.23.3-.84,1.08-1.92,2.2-2.78s2.07-.99,3.28-1.07c1.16-.08,2.17-.15,3.41.4.8.35,1.42,1.23,1.75,1.75.29.46.63,1.53.72,2.06.1.62-.16,1.91,0,2.51.14.52,1.34,2.19,1.1,2.47-.15.18-.44.09-.55.17-.09.07-.18.29-.19.41-.01.15.2.33.13.46-.05.1-.44.12-.47.22s.28.28.26.38c-.02.11-.27.14-.32.24-.17.3.12,1.15-.13,1.39-.51.48-2.16-.22-2.78.09-.19.1-.47.47-.54.67-.18.51-.03,1.5,0,2.04"/><path class="cls-1" d="m15.91,10.83s-1.01.54-2.15.23"/></svg>