<?xml version="1.0" encoding="UTF-8"?><svg id="Ebene_1" xmlns="http://www.w3.org/2000/svg" viewBox="0 0 24 24"><defs><style>.cls-1{fill:#2c2c2c;font-family:PublicSansRoman-Light, 'Public Sans';font-size:2.5px;font-variation-settings:'wght' 300;font-weight:300;}.cls-2{fill:none;stroke:#2c2c2c;stroke-linecap:round;stroke-linejoin:round;stroke-width:.5px;}</style></defs><text class="cls-1" transform="translate(6.21 22.02)"><tspan x="0" y="0">Müdigkeit</tspan></text><line class="cls-2" x1="4.64" y1="9.23" x2="4.64" y2="17.96"/><line class="cls-2" x1="19.66" y1="12.81" x2="19.66" y2="17.96"/><line class="cls-2" x1="19.54" y1="15.36" x2="4.67" y2="15.36"/><line class="cls-2" x1="19.54" y1="16.33" x2="4.67" y2="16.33"/><path class="cls-2" d="m19.57,14.26s-7.42-2.77-10.72-.26c0,0-2.11-2.68-4.13.04"/><polygon class="cls-2" points="9.14 9.84 8.88 10.37 8.3 10.45 8.72 10.86 8.62 11.43 9.14 11.16 9.66 11.43 9.56 10.86 9.98 10.45 9.4 10.37 9.14 9.84"/><polygon class="cls-2" points="12.24 9.84 11.98 10.37 11.4 10.45 11.82 10.86 11.72 11.43 12.24 11.16 12.75 11.43 12.65 10.86 13.07 10.45 12.49 10.37 12.24 9.84"/><polygon class="cls-2" points="10.81 7.2 10.56 7.72 9.98 7.81 10.4 8.22 10.3 8.79 10.81 8.52 11.33 8.79 11.23 8.22 11.65 7.81 11.07 7.72 10.81 7.2"/></svg>