<?xml version="1.0" encoding="UTF-8"?><svg id="Ebene_1" xmlns="http://www.w3.org/2000/svg" viewBox="0 0 24 24"><defs><style>.cls-1{fill:none;stroke:#2c2c2c;stroke-linecap:round;stroke-linejoin:round;stroke-width:.5px;}</style></defs><circle class="cls-1" cx="12.12" cy="12.37" r="5.57"/><path class="cls-1" d="m6.24,9.15v1.05c0,.55-.36,1.01-.86,1.16v6.83h-.82v-6.86c-.5-.19-.86-.67-.86-1.23v-.94h2.54Z"/><circle class="cls-1" cx="12.12" cy="12.37" r="3.38"/><line class="cls-1" x1="3.94" y1="6.8" x2="3.94" y2="9.15"/><line class="cls-1" x1="4.97" y1="6.8" x2="4.97" y2="9.15"/><line class="cls-1" x1="5.95" y1="6.8" x2="5.95" y2="9.15"/><path class="cls-1" d="m19.94,6.61v11.57h-.82v-5.2c-.49-.28-.81-.8-.81-1.4v-3.33c0-.91.73-1.64,1.64-1.64Z"/><path class="cls-1" d="m12.87,12.12c0,.26.41.61.09.94-.17.17-.2.2-.84.24-.35.02-.17-.4-.34-.57s-.57-.34-.57-.6.07-.25.24-.42.4-.44.66-.44c.52,0,.75.33.75.85Z"/></svg>