<?xml version="1.0" encoding="UTF-8"?><svg id="Ebene_1" xmlns="http://www.w3.org/2000/svg" viewBox="0 0 24 24"><defs><style>.cls-1{fill:none;stroke:#2c2c2c;stroke-linecap:round;stroke-linejoin:round;stroke-width:.5px;}</style></defs><path class="cls-1" d="m15.74,8.05s-2.03-2.03-3.48.63c0,0-.97,5.21,4.49,5.17v-2.61"/><path class="cls-1" d="m16.81,12.34l2.08.37s1.09,2.21-1.31,4.8l.77,1.11s4.78-3.23.92-10.91c0,0-1.06-2.03-4.83-1.35,0,0-.87-.97-3.09.05,0,0-1.54.24-3.28.1s-3.86,1.69-3.43,4.73.97,5.21.87,7.19l3.28.05s.29-1.98-1.01-1.93l.05-.82s.82-.63,1.11-1.35c0,0,2.8.48,3.91-.34v4.49s3.48,0,3.48,0c0,0,.24-1.93-.92-1.98v-2.8"/><path class="cls-1" d="m3.66,14.2s-.59-2.45,1.08-4.94"/><polygon class="cls-1" points="17.48 8.62 17.23 9.14 16.65 9.22 17.07 9.63 16.97 10.21 17.48 9.94 18 10.21 17.9 9.63 18.32 9.22 17.74 9.14 17.48 8.62"/></svg>