<?xml version="1.0" encoding="UTF-8"?><svg id="Ebene_1" xmlns="http://www.w3.org/2000/svg" viewBox="0 0 24 24"><defs><style>.cls-1{fill:#2c2c2c;}.cls-1,.cls-2{stroke:#2c2c2c;stroke-linecap:round;stroke-linejoin:round;stroke-width:.5px;}.cls-2{fill:none;}</style></defs><path class="cls-2" d="m8.05,20.49s0-3.71-.35-4.85c-.28-.93-1.61-2.26-1.79-3.46-.13-.8-.29-2.17.09-3.23.3-.84,1.08-1.92,2.2-2.78s2.07-.99,3.28-1.07c1.16-.08,2.17-.15,3.41.4.8.35,1.42,1.23,1.75,1.75.29.46.63,1.53.72,2.06.1.62-.16,1.91,0,2.51.14.52,1.34,2.19,1.1,2.47-.15.18-.44.09-.55.17-.09.07-.18.29-.19.41-.01.15.2.33.13.46-.05.1-.44.12-.47.22s.28.28.26.38c-.02.11-.27.14-.32.24-.17.3.12,1.15-.13,1.39-.51.48-2.16-.22-2.78.09-.19.1-.47.47-.54.67-.18.51-.03,1.5,0,2.04"/><path class="cls-1" d="m11.12,13.1c0-.12,0-.21,0-.26,0-.34.05-.64.15-.89.07-.19.19-.38.35-.57.12-.14.33-.34.63-.61.3-.27.5-.48.59-.64s.14-.33.14-.52c0-.34-.13-.64-.4-.9-.27-.26-.59-.39-.98-.39s-.69.12-.94.35-.42.6-.49,1.1l-.9-.11c.08-.67.32-1.18.72-1.53.4-.35.93-.53,1.59-.53.7,0,1.26.19,1.67.57s.62.84.62,1.38c0,.31-.07.6-.22.86s-.43.58-.86.96c-.29.25-.47.44-.56.56s-.15.26-.2.42-.07.41-.07.76h-.84Z"/><circle class="cls-1" cx="11.58" cy="14.63" r=".48"/></svg>