<?xml version="1.0" encoding="UTF-8"?><svg id="Ebene_1" xmlns="http://www.w3.org/2000/svg" viewBox="0 0 24 24"><defs><style>.cls-1{stroke-miterlimit:10;}.cls-1,.cls-2{fill:none;stroke:#2c2c2c;stroke-linecap:round;stroke-width:.5px;}.cls-2{stroke-linejoin:round;}</style></defs><path class="cls-2" d="m9.55,20.15v-1.54s-1.1.22-1.39-4.91c0,0-.84-2.41-1.1-3.22-.19-.58.48-1.64,1.27-.65s1.16,2.53,1.16,2.53c0,0-.46-3.24-.64-4.5-.1-.73.83-1.24,1.15-.26.35,1.08.99,4.28.99,4.28,0,0-.03-4.46-.03-4.82,0-.65,1.05-1.01,1.3-.01.08.32.14,4.62.14,4.62,0,0,.71-3.84.86-4.14.28-.6,1.36-.96,1.44.31.02.31-.79,4.07-.68,5.65"/><path class="cls-2" d="m13.19,20.2v-1.57s1.37-.07,1.78-2.81c0,0,.45-2.19,1.34-3.05,0,0-.89-1.23-2.36,1.06,0,0-2.4.41-2.53,2.57"/><path class="cls-1" d="m9.8,13.77s2.53-1.54,4.07-.96"/><path class="cls-2" d="m6.24,9.8s.37-1.1,1.58-1.1"/><path class="cls-2" d="m5.92,8.89s.24-.72,1.35-.83"/><path class="cls-2" d="m7.99,7.07s.53-1.03,1.73-.85"/><path class="cls-2" d="m7.81,6.12s.35-.68,1.46-.62"/><path class="cls-2" d="m10.59,5.8s.93-.7,1.92-.01"/><path class="cls-2" d="m10.84,3.37s.61-.46,1.58.08"/><path class="cls-2" d="m13.58,6.23s1.1-.38,1.84.57"/><path class="cls-2" d="m14.1,5.41s.72-.25,1.48.56"/><path class="cls-2" d="m15.44,11.54s1.1-.38,1.84.57"/><path class="cls-2" d="m15.96,10.72s.72-.25,1.48.56"/></svg>