<?xml version="1.0" encoding="UTF-8"?><svg id="Ebene_1" xmlns="http://www.w3.org/2000/svg" viewBox="0 0 24 24"><defs><style>.cls-1{stroke-miterlimit:10;}.cls-1,.cls-2{fill:none;stroke:#2c2c2c;}.cls-2{stroke-linecap:round;stroke-linejoin:round;stroke-width:.5px;}.cls-3{fill:#2c2c2c;stroke-width:0px;}</style></defs><path class="cls-2" d="m21.36,12.54s-4.55,5.48-10.03,5.48S2.16,12.59,2.16,12.59c0,0,3.72-5.35,9.2-5.35s10,5.3,10,5.3Z"/><circle class="cls-2" cx="11.64" cy="12.56" r="3.92"/><path class="cls-3" d="m11.64,10.13c-1.34,0-2.42,1.09-2.42,2.43s1.08,2.42,2.42,2.42,2.43-1.08,2.43-2.42-1.09-2.43-2.43-2.43Zm.88,2.57c-.6,0-1.08-.49-1.08-1.09s.48-1.08,1.08-1.08,1.09.48,1.09,1.08-.49,1.09-1.09,1.09Z"/><path class="cls-1" d="m13.61,11.61c0,.6-.49,1.09-1.09,1.09s-1.08-.49-1.08-1.09.48-1.08,1.08-1.08,1.09.48,1.09,1.08Z"/><path class="cls-2" d="m16.89,11.19s1.05.49,2.17-.56"/><path class="cls-2" d="m6.22,11.05s-.77.59-1.96-.59"/><line class="cls-2" x1="7.55" y1="9.23" x2="7.55" y2="8.11"/><path class="cls-2" d="m17.31,13.19s-1.15,1.15.31,2.59"/><line class="cls-2" x1="18.85" y1="12.77" x2="19.97" y2="13.85"/><line class="cls-2" x1="14.86" y1="6.92" x2="15.77" y2="5.49"/><line class="cls-2" x1="11.5" y1="4.26" x2="11.5" y2="6.01"/><line class="cls-2" x1="7.3" y1="5.52" x2="8.14" y2="6.89"/><path class="cls-2" d="m6.58,13.96s.43.87-.97,1.8"/><line class="cls-2" x1="4.57" y1="12.85" x2="3.4" y2="13.88"/></svg>