<?xml version="1.0" encoding="UTF-8"?><svg id="Ebene_1" xmlns="http://www.w3.org/2000/svg" viewBox="0 0 24 24"><defs><style>.cls-1{fill:none;stroke:#2c2c2c;stroke-linecap:round;stroke-linejoin:round;stroke-width:.5px;}</style></defs><circle class="cls-1" cx="11.49" cy="12.37" r="5.57"/><circle class="cls-1" cx="11.49" cy="12.37" r="3.38"/><path class="cls-1" d="m5.61,9.15v1.05c0,.55-.36,1.01-.86,1.16v6.83h-.82v-6.86c-.5-.19-.86-.67-.86-1.23v-.94h2.54Z"/><line class="cls-1" x1="3.32" y1="6.8" x2="3.32" y2="9.15"/><line class="cls-1" x1="4.34" y1="6.8" x2="4.34" y2="9.15"/><line class="cls-1" x1="5.33" y1="6.8" x2="5.33" y2="9.15"/><path class="cls-1" d="m19.32,6.61v11.57h-.82v-5.2c-.49-.28-.81-.8-.81-1.4v-3.33c0-.91.73-1.64,1.64-1.64Z"/><line class="cls-1" x1="12.85" y1="11.04" x2="10.14" y2="13.75"/><line class="cls-1" x1="12.85" y1="13.75" x2="10.14" y2="11.04"/></svg>