<?xml version="1.0" encoding="UTF-8"?><svg id="Ebene_1" xmlns="http://www.w3.org/2000/svg" viewBox="0 0 24 24"><defs><style>.cls-1{fill:none;stroke:#2c2c2c;stroke-linecap:round;stroke-linejoin:round;stroke-width:.5px;}</style></defs><path class="cls-1" d="m12.13,10.54c-.11-.04-.2-.04-.2-.04h-1.45c-.15-.02-.31-.02-.47-.02h-.58c-.19-.01-.35-.01-.47-.01-.76,0-.8.53-.8.53,0,0-.2,2.01-.03,2.65.21.8,1.26,2.1,1.52,2.88.23.74.03,3.2.03,3.2"/><path class="cls-1" d="m15.25,13.5s-.37.35-.85.34c-.39,0-.72-.22-.72-.22,0,0-.46.43-.97.38-.59-.06-1-.37-1.19-.61-.41-.67-.92-1.02-1.03-1.09-.01-.02,1.45-.02,1.45-.02,0,0,.13,0,.23-.05"/><polyline class="cls-1" points="13.99 19.71 13.99 16.5 15.25 13.5"/><rect class="cls-1" x="13.78" y="9.61" width="1.24" height="3.58" rx=".56" ry=".56"/><path class="cls-1" d="m12.13,10.54c.2.08.48.27.48.79,0,.65-.27.87-.48.93"/><path class="cls-1" d="m12.13,12.27c.21-.07.48-.29.48-.93,0-.52-.29-.71-.48-.79v-.65c0-.34.29-.61.63-.61s.61.27.61.61v2.94c0,.34-.27.51-.61.51s-.63-.12-.63-.4v-.68"/><path class="cls-1" d="m11.72,9.9v.6c-.26-.01-.72-.01-1.24-.01v-.59c0-.34.29-.61.63-.61s.61.27.61.61Z"/><path class="cls-1" d="m10.01,9.9v.58c-.45,0-.89,0-1.24-.01v-.57c0-.34.27-.61.61-.61s.63.27.63.61Z"/><polyline class="cls-1" points="15.68 4.76 14.55 6.43 15.95 6.43 14.31 8.57"/><polyline class="cls-1" points="12.51 4.76 11.38 6.43 12.77 6.43 11.13 8.57"/><polyline class="cls-1" points="9.34 4.76 8.2 6.43 9.6 6.43 7.96 8.57"/></svg>