<?xml version="1.0" encoding="UTF-8"?><svg id="Ebene_1" xmlns="http://www.w3.org/2000/svg" viewBox="0 0 24 24"><defs><style>.cls-1{fill:none;stroke:#2c2c2c;stroke-linecap:round;stroke-linejoin:round;stroke-width:.5px;}</style></defs><path class="cls-1" d="m4.42,10.18s4.08-1.81,6.31-1.87,1.71-.06,2.53,0,6.28,1.98,6.28,1.98c0,0-5.5-6.27-7.65-3.56,0,0-1.46-2.76-7.47,3.45Z"/><path class="cls-1" d="m19.54,10.29c-1.03,1.44-2.15,2.55-3.32,3.35"/><path class="cls-1" d="m16.13,12c1.12-.47,2.23-.7,3.42-1.71"/><path class="cls-1" d="m7.53,13.71c-1.17-.82-2.16-1.97-3.11-3.53,0,0,1.07.81,3.17,1.73"/><path class="cls-1" d="m7.59,12.34c.07-.59.21-1.14.51-1.59,1.31-1.94,3.89.01,3.89.01,0,0,2.31-1.91,3.59-.03.56.83.58,2.01.58,3.16,0,3.47-1.93,6.27-4.32,6.27s-4.32-2.81-4.32-6.27c0-.06,0-.12,0-.17"/><path class="cls-1" d="m7.53,13.71c0-.46.01-.93.06-1.37"/><line class="cls-1" x1="12" y1="13.35" x2="12" y2="10.77"/><polyline class="cls-1" points="16.07 13.12 13.59 14.04 13.74 16.3"/><polyline class="cls-1" points="10.63 12.54 9.92 13.98 7.59 13.15"/><line class="cls-1" x1="10.85" y1="15.97" x2="9.92" y2="13.98"/><line class="cls-1" x1="12.16" y1="17.33" x2="10.45" y2="19.71"/></svg>