<?xml version="1.0" encoding="UTF-8"?><svg id="Ebene_1" xmlns="http://www.w3.org/2000/svg" viewBox="0 0 24 24"><defs><style>.cls-1{fill:none;stroke:#2c2c2c;stroke-linecap:round;stroke-linejoin:round;stroke-width:.5px;}</style></defs><path class="cls-1" d="m9.08,18.52s.23-.81,0-1.75-3.69-5.85-1.98-9.45,4.51-3.02,6.03-2.43c1.03.4,2.34,1.21,2.7,3.51s0,6.57,0,6.57c0,0-.18,1.98,1.57,2.52,0,0-1.75.09-1.57,2.52,0,0-1.8-1.44-2.74,0,0,0-.76-1.75-2.25-.27,0,0,.14-2.11-1.75-1.21Z"/><ellipse class="cls-1" cx="12.66" cy="8.35" rx=".46" ry="1.07" transform="translate(-1.74 3.59) rotate(-15.12)"/><ellipse class="cls-1" cx="9.62" cy="8.35" rx="1.07" ry=".46" transform="translate(-.88 15.56) rotate(-75.43)"/><ellipse class="cls-1" cx="11.47" cy="11.41" rx=".94" ry="1.2" transform="translate(-.44 .46) rotate(-2.24)"/></svg>