<?xml version="1.0" encoding="UTF-8"?><svg id="Ebene_1" xmlns="http://www.w3.org/2000/svg" viewBox="0 0 24 24"><defs><style>.cls-1{fill:#2c2c2c;font-family:PublicSansRoman-Light, 'Public Sans';font-size:2.5px;font-variation-settings:'wght' 300;font-weight:300;}.cls-2{fill:none;stroke:#2c2c2c;stroke-linecap:round;stroke-linejoin:round;stroke-width:.5px;}</style></defs><text class="cls-1" transform="translate(2.74 22.02)"><tspan x="0" y="0">Appetitlosigkeit</tspan></text><circle class="cls-2" cx="11.49" cy="10.87" r="5.57"/><circle class="cls-2" cx="11.49" cy="10.87" r="3.38"/><path class="cls-2" d="m5.61,7.65v1.05c0,.55-.36,1.01-.86,1.16v6.83h-.82v-6.86c-.5-.19-.86-.67-.86-1.23v-.94h2.54Z"/><line class="cls-2" x1="3.32" y1="5.3" x2="3.32" y2="7.65"/><line class="cls-2" x1="4.34" y1="5.3" x2="4.34" y2="7.65"/><line class="cls-2" x1="5.33" y1="5.3" x2="5.33" y2="7.65"/><path class="cls-2" d="m19.32,5.11v11.57h-.82v-5.2c-.49-.28-.81-.8-.81-1.4v-3.33c0-.91.73-1.64,1.64-1.64Z"/><line class="cls-2" x1="12.85" y1="9.54" x2="10.14" y2="12.25"/><line class="cls-2" x1="12.85" y1="12.25" x2="10.14" y2="9.54"/></svg>