<?xml version="1.0" encoding="UTF-8"?><svg id="Ebene_1" xmlns="http://www.w3.org/2000/svg" viewBox="0 0 24 24"><defs><style>.cls-1{fill:none;stroke:#2c2c2c;stroke-linecap:round;stroke-linejoin:round;stroke-width:.5px;}.cls-2{fill:#2c2c2c;stroke-width:0px;}</style></defs><path class="cls-1" d="m12.29,5.23s-.42,1.3.53,3.74c.14.35.3.72.5,1.11,1.58,3.16-2.25,4.81-4.22,4.38s-3.31-1.55-3.94,1.38c-.47,2.17,1.58,3.31,2.29,3.47"/><path class="cls-1" d="m11.25,5.06s-.59.91.22,2.94c.14.35.43,1.19.63,1.58,1.58,3.16-1.37,4.08-3.34,3.65s-4.23-1.3-4.78,1.65c-.59,3.15,1.7,5.06,2.41,5.22"/><path class="cls-1" d="m8.54,14.49s3.67,7.08,8.63,1.25c3.79-4.45-.36-8.35-4.14-6.79"/><circle class="cls-2" cx="16.21" cy="10.27" r=".46"/><circle class="cls-2" cx="17.01" cy="12.13" r=".35"/><circle class="cls-2" cx="15.34" cy="12.04" r=".35"/><path class="cls-2" d="m8.46,14.65s2.15,3.78,5.18,3.27c1.49-.25,3.37-1.66,5.1-4.81,0,0-.41-.64-1.16-.06s-1.05-.02-1.33-.23c-.21-.16-.87-.31-1,.23s-.78.08-.96-.1c-.15-.14-.43-.5-.77-.15s-1.24,1.87-5.05,1.85Z"/><path class="cls-1" d="m7.14,14.07s4.78,9.18,10.75,2.16c4.56-5.36-.67-9.91-5.23-8.03"/></svg>