<?xml version="1.0" encoding="UTF-8"?><svg id="Ebene_1" xmlns="http://www.w3.org/2000/svg" viewBox="0 0 24 24"><defs><style>.cls-1{fill:none;stroke:#2c2c2c;stroke-linecap:round;stroke-linejoin:round;stroke-width:.5px;}</style></defs><path class="cls-1" d="m6.14,7.98c-.36-.16-.67-.32-.94-.48-.76-.46-1.16-.9-1.09-1.26.13-.65,1.76-.93,4.12-.8"/><path class="cls-1" d="m9.32,5.52c-.23.13-.46.28-.71.47-.3.23-.58.48-.82.74-.49.49-.87,1.01-1.13,1.48-.18-.08-.36-.15-.52-.23"/><path class="cls-1" d="m18.07,7.51c.61.23,1.14.47,1.59.71.97.53,1.5,1.03,1.42,1.45-.12.58-1.41.86-3.34.83-1.48-.03-3.34-.23-5.33-.63,2.02-.21,3.87-.55,5.31-.95-.12-.53-.38-1.32-.63-1.76"/><path class="cls-1" d="m7.79,6.73c-.49.49-.87,1.01-1.13,1.48,1.44.6,3.39,1.18,5.56,1.62.06.01.13.03.19.04h-.04c-1.49.15-2.9.21-4.14.18l.27-.26-.58-.09-.26-.52-.26.52-.58.09.21.2c-.3-.02-.58-.05-.84-.08-1.58-.18-2.58-.57-2.63-1.09-.04-.43.57-.9,1.64-1.32.43-.17.93-.35,1.5-.5"/><path class="cls-1" d="m17.14,5.93c1.63.1,2.86.36,3.37.76l-.52.08.42.4-.1.58.27-.14c-.19.2-.5.41-.92.61-.5.25-1.16.48-1.94.7-.12-.53-.38-1.32-.63-1.76-.01-.04-.03-.07-.05-.1-.2-.32-.52-.78-.92-1.17"/><path class="cls-1" d="m17.72,8.92c-1.44.4-3.29.74-5.31.95-.06-.01-.13-.03-.19-.04-2.17-.44-4.12-1.02-5.56-1.62.26-.47.64-.99,1.13-1.48.24-.26.52-.51.82-.74.25-.19.48-.34.71-.47.84-.45,1.62-.54,2.56-.61,1.16-.08,2.18-.14,3.41.4.3.14.58.35.83.58.4.39.72.85.92,1.17.02.03.04.06.05.1.25.44.51,1.23.63,1.76Z"/><path class="cls-1" d="m14.26,20.19c-.03-.54-.18-1.54,0-2.04.07-.21.35-.58.54-.68.62-.31,2.27.39,2.78-.09.26-.24-.04-1.08.14-1.39.05-.1.3-.13.32-.24.02-.1-.29-.28-.26-.38s.42-.12.47-.22c.07-.13-.14-.31-.13-.46.01-.12.09-.34.19-.41.11-.08.4.01.55-.17.24-.28-.96-1.95-1.1-2.47-.07-.28-.06-.7-.02-1.14.03-.51.08-1.04.02-1.37-.01-.06-.03-.14-.04-.21"/><path class="cls-1" d="m6.66,8.21c-.1.2-.19.38-.25.56-.13.35-.2.75-.22,1.14-.06.78.04,1.56.13,2.09.19,1.19,1.51,2.52,1.79,3.45.35,1.14.36,4.85.36,4.85"/><polygon class="cls-1" points="21.24 7.17 21.34 7.75 20.82 7.48 20.58 7.61 20.31 7.75 20.41 7.17 19.99 6.77 20.51 6.69 20.57 6.68 20.82 6.16 21.08 6.68 21.66 6.77 21.24 7.17"/><polygon class="cls-1" points="8.23 10.05 8.08 10.2 8.18 10.77 7.66 10.5 7.14 10.77 7.24 10.2 7.03 9.99 6.82 9.79 7.4 9.7 7.66 9.18 7.92 9.7 8.5 9.79 8.23 10.05"/></svg>