<?xml version="1.0" encoding="UTF-8"?><svg id="Ebene_1" xmlns="http://www.w3.org/2000/svg" viewBox="0 0 24 24"><defs><style>.cls-1{fill:#2c2c2c;}.cls-1,.cls-2{stroke:#2c2c2c;stroke-linecap:round;stroke-miterlimit:10;stroke-width:.5px;}.cls-2{fill:none;}</style></defs><line class="cls-2" x1="18.97" y1="11.45" x2="16.1" y2="11.45"/><line class="cls-2" x1="7.89" y1="11.45" x2="5.02" y2="11.45"/><path class="cls-2" d="m13.78,8.97l-1.58,1.59-1.01,1-1.58,1.58c-.38-.5-.6-1.11-.6-1.79,0-1.64,1.33-2.98,2.98-2.98.67,0,1.29.22,1.79.6Z"/><path class="cls-2" d="m14.97,11.35c0,1.65-1.34,2.98-2.98,2.98-.61,0-1.16-.18-1.63-.48l4.13-4.13c.3.47.48,1.03.48,1.63Z"/><line class="cls-2" x1="11.99" y1="4.4" x2="11.99" y2="7.28"/><line class="cls-2" x1="11.99" y1="15.56" x2="11.99" y2="18.43"/><path class="cls-1" d="m12.2,10.56l-1.01,1c-.02-.07-.03-.14-.03-.21,0-.45.37-.82.83-.82.07,0,.14.01.21.03Z"/><path class="cls-1" d="m12.81,11.4c-.02.42-.35.75-.77.77l.77-.77Z"/><path class="cls-2" d="m15.18,7.57l-1.4,1.4-1.58,1.59-1.01,1-1.58,1.58-1.51,1.51c-.73-.87-1.16-1.98-1.16-3.2,0-2.76,2.26-5.01,5.05-5.01,1.21,0,2.32.42,3.19,1.13Z"/><path class="cls-2" d="m17.04,11.45c0,2.77-2.26,5.02-5.05,5.02-1.19,0-2.29-.41-3.15-1.1l1.52-1.52,5.55-5.55c.71.86,1.13,1.96,1.13,3.15Z"/><polygon class="cls-2" points="18.49 5.72 10.36 13.85 8.84 15.37 6.16 18.05 5.43 17.33 8.1 14.65 9.61 13.14 11.19 11.56 12.2 10.56 13.78 8.97 17.76 4.99 18.49 5.72"/></svg>