<?xml version="1.0" encoding="UTF-8"?><svg id="Ebene_1" xmlns="http://www.w3.org/2000/svg" viewBox="0 0 24 24"><defs><style>.cls-1{fill:none;stroke:#2c2c2c;stroke-linecap:round;stroke-linejoin:round;stroke-width:.5px;}</style></defs><path class="cls-1" d="m9.84,18.75s0-2.2-.21-2.87c-.17-.55-.95-1.34-1.06-2.05-.07-.47-.17-1.29.05-1.91.18-.49.64-1.14,1.3-1.65s1.22-.58,1.94-.63,1.29-.09,2.02.24c.47.21.84.73,1.04,1.04.17.27.37.9.43,1.22.06.37-.1,1.13,0,1.49.08.31.79,1.3.65,1.46-.09.1-.26.06-.33.1-.06.04-.11.17-.11.24,0,.09.12.19.08.27-.03.06-.26.07-.28.13s.17.16.15.23c-.01.07-.16.08-.19.14-.1.18.07.68-.08.82-.3.28-1.28-.13-1.65.05-.11.06-.28.28-.32.4-.11.3-.02.89,0,1.21"/><path class="cls-1" d="m20.42,9.6s-1.12,1.18-2.48,1.18-2.27-1.16-2.27-1.16c0,0,.92-1.15,2.27-1.15s2.47,1.14,2.47,1.14Z"/><circle class="cls-1" cx="18.01" cy="9.54" r=".97"/><circle class="cls-1" cx="18.01" cy="9.54" r=".18"/><path class="cls-1" d="m21.42,13.66s-1.12,1.18-2.48,1.18-2.27-1.16-2.27-1.16c0,0,.92-1.15,2.27-1.15s2.47,1.14,2.47,1.14Z"/><circle class="cls-1" cx="19.02" cy="13.61" r=".97"/><circle class="cls-1" cx="19.02" cy="13.61" r=".18"/><path class="cls-1" d="m7.58,13.7s-1.12,1.18-2.48,1.18-2.27-1.16-2.27-1.16c0,0,.92-1.15,2.27-1.15s2.47,1.14,2.47,1.14Z"/><circle class="cls-1" cx="5.18" cy="13.64" r=".97"/><circle class="cls-1" cx="5.18" cy="13.64" r=".18"/><path class="cls-1" d="m14.5,6.88s-1.12,1.18-2.48,1.18-2.27-1.16-2.27-1.16c0,0,.92-1.15,2.27-1.15s2.47,1.14,2.47,1.14Z"/><circle class="cls-1" cx="12.1" cy="6.83" r=".97"/><circle class="cls-1" cx="12.1" cy="6.83" r=".18"/><path class="cls-1" d="m8.63,9.56s-1.12,1.18-2.48,1.18-2.27-1.16-2.27-1.16c0,0,.92-1.15,2.27-1.15s2.47,1.14,2.47,1.14Z"/><circle class="cls-1" cx="6.23" cy="9.51" r=".97"/><circle class="cls-1" cx="6.23" cy="9.51" r=".18"/></svg>