<?xml version="1.0" encoding="UTF-8"?><svg id="Ebene_1" xmlns="http://www.w3.org/2000/svg" viewBox="0 0 24 24"><defs><style>.cls-1{stroke-linecap:round;stroke-linejoin:round;}.cls-1,.cls-2{fill:none;stroke:#2c2c2c;stroke-width:.5px;}.cls-2{stroke-miterlimit:10;}</style></defs><circle class="cls-2" cx="11.89" cy="7.2" r="1.17"/><path class="cls-2" d="m16.39,9.47c0,.31-.26.56-.56.56h-2.42v6.74c0,.31-.25.56-.56.56s-.56-.25-.56-.56v-3.5h-.76v3.5c0,.31-.25.56-.56.56s-.56-.25-.56-.56v-6.74h-2.42c-.31,0-.56-.25-.56-.56s.25-.56.56-.56h7.84c.3,0,.56.25.56.56Z"/><path class="cls-1" d="m5.71,7.41c.12-.18.25-.35.39-.51"/><path class="cls-1" d="m16.22,17.98c-1.22.83-2.69,1.32-4.28,1.32-4.18,0-7.58-3.39-7.58-7.58,0-1.61.5-3.09,1.35-4.32"/><path class="cls-1" d="m7.65,5.48c1.22-.84,2.7-1.33,4.29-1.33,4.18,0,7.58,3.39,7.58,7.58,0,1.69-.55,3.25-1.49,4.51"/><polygon class="cls-1" points="5.14 5.96 7.05 7.79 7.05 5.97 5.14 5.96"/><polyline class="cls-1" points="17.43 15.68 16.56 16.66 17.89 17.27 16.95 18.42"/></svg>