<?xml version="1.0" encoding="UTF-8"?><svg id="Ebene_1" xmlns="http://www.w3.org/2000/svg" viewBox="0 0 24 24"><defs><style>.cls-1{fill:none;stroke:#2c2c2c;stroke-linecap:round;stroke-linejoin:round;stroke-width:.5px;}</style></defs><line class="cls-1" x1="4.64" y1="10.73" x2="4.64" y2="19.46"/><line class="cls-1" x1="19.66" y1="14.31" x2="19.66" y2="19.46"/><line class="cls-1" x1="19.54" y1="16.86" x2="4.67" y2="16.86"/><line class="cls-1" x1="19.54" y1="17.83" x2="4.67" y2="17.83"/><path class="cls-1" d="m19.57,15.76s-7.42-2.77-10.72-.26c0,0-2.11-2.68-4.13.04"/><polygon class="cls-1" points="9.14 11.34 8.88 11.87 8.3 11.95 8.72 12.36 8.62 12.93 9.14 12.66 9.66 12.93 9.56 12.36 9.98 11.95 9.4 11.87 9.14 11.34"/><polygon class="cls-1" points="12.24 11.34 11.98 11.87 11.4 11.95 11.82 12.36 11.72 12.93 12.24 12.66 12.75 12.93 12.65 12.36 13.07 11.95 12.49 11.87 12.24 11.34"/><polygon class="cls-1" points="10.81 8.7 10.56 9.22 9.98 9.31 10.4 9.72 10.3 10.29 10.81 10.02 11.33 10.29 11.23 9.72 11.65 9.31 11.07 9.22 10.81 8.7"/></svg>