<?xml version="1.0" encoding="UTF-8"?><svg id="Ebene_1" xmlns="http://www.w3.org/2000/svg" viewBox="0 0 24 24"><defs><style>.cls-1{fill:none;stroke:#2c2c2c;stroke-linecap:round;stroke-linejoin:round;stroke-width:.5px;}.cls-2{fill:#2c2c2c;stroke-width:0px;}</style></defs><path class="cls-2" d="m15.48,14.78c.15.16.3.28.41.44.45.61.54,1.27.21,1.95-.33.69-.9,1.05-1.67,1.08-.69.02-1.38.01-2.07,0-.21,0-.27.07-.26.27.01.32.01.64,0,.96-.04.58-.53,1.02-1.11,1.01-.55-.01-1.05-.48-1.06-1.04-.01-.78,0-1.56,0-2.34,0-.12.03-.25.06-.42-.19,0-.38,0-.57,0-.42,0-.8-.12-1.14-.37-.98-.72-1.03-2.15-.1-2.94.05-.04.1-.09.15-.13-1.13-.88-1.03-2.36.03-3.17-.15-.13-.32-.24-.43-.38-.46-.6-.55-1.26-.23-1.95.33-.7.91-1.07,1.68-1.09.62-.02,1.25-.01,1.87,0,.21,0,.27-.07.26-.27-.01-.31,0-.62,0-.94.02-.55.49-1.01,1.04-1.03.57-.02,1.09.41,1.11.97.03.82.01,1.65,0,2.48,0,.1-.03.2-.06.35.13,0,.26,0,.39,0,.47-.01.93,0,1.36.26,1.12.66,1.27,2.2.29,3.05-.05.04-.1.09-.17.15.52.4.82.91.82,1.56,0,.65-.29,1.15-.81,1.56Zm-3.5-.31h0c.83,0,1.67,0,2.5,0,.57,0,1.09-.48,1.17-1.04.11-.81-.44-1.46-1.26-1.46-1.61,0-3.21,0-4.82,0-.07,0-.15,0-.22,0-.15-.04-.27-.13-.27-.31,0-.19.12-.28.29-.31.07-.01.15,0,.22,0,1.61,0,3.21,0,4.82,0,.72,0,1.26-.56,1.25-1.26,0-.7-.55-1.24-1.27-1.24-1.6,0-3.2,0-4.8,0-.07,0-.15,0-.22,0-.18-.04-.3-.14-.29-.33.01-.18.14-.27.31-.29.07,0,.13,0,.2,0,.97,0,1.95,0,2.92,0,.33,0,.54-.18.55-.49,0-.73,0-1.46,0-2.19,0-.31-.25-.52-.54-.48-.25.03-.41.23-.41.53,0,.42,0,.85,0,1.27,0,.32-.11.42-.43.42-.77,0-1.53,0-2.3,0-.11,0-.22,0-.33.04-.65.2-.99.76-.89,1.43.09.59.61,1.02,1.24,1.03.46,0,.92,0,1.38,0,.71,0,1.43,0,2.14,0,.29,0,.45.18.37.42-.07.18-.22.22-.4.22-1.18,0-2.36,0-3.55,0-.6,0-1.12.47-1.19,1.06-.1.8.45,1.44,1.26,1.44,1.61,0,3.21,0,4.82,0,.07,0,.15,0,.22,0,.17.04.28.14.27.33-.01.17-.13.26-.29.29-.06.01-.13,0-.2,0-1.58,0-3.15,0-4.73,0-.15,0-.3,0-.44.04-.64.18-1.01.77-.91,1.44.09.58.62,1.02,1.25,1.02,1.61,0,3.21,0,4.82,0,.07,0,.15-.01.22,0,.16.04.28.14.28.33,0,.18-.13.26-.28.29-.06.01-.13,0-.2,0-1.05,0-2.1,0-3.15,0-.36,0-.55.18-.55.55,0,.69,0,1.38,0,2.08,0,.32.2.54.47.54.28,0,.48-.22.49-.55,0-.41,0-.82,0-1.23,0-.36.09-.45.44-.45.85,0,1.7,0,2.54,0,.57,0,1.09-.48,1.17-1.04.11-.81-.44-1.46-1.26-1.46-1.6,0-3.2,0-4.8,0-.07,0-.15,0-.22,0-.16-.03-.28-.11-.29-.29-.01-.19.11-.28.27-.33.06-.02.13,0,.2,0,.81,0,1.62,0,2.43,0Z"/><polyline class="cls-1" points="18.94 6.94 17.53 8.84 18.92 8.84 17.28 10.98"/><polyline class="cls-1" points="18.94 11.37 17.53 13.27 18.92 13.27 17.28 15.41"/><polyline class="cls-1" points="5.16 6.94 6.58 8.84 5.18 8.84 6.82 10.98"/><polyline class="cls-1" points="5.16 11.37 6.58 13.27 5.18 13.27 6.82 15.41"/></svg>