<?xml version="1.0" encoding="UTF-8"?><svg id="Ebene_1" xmlns="http://www.w3.org/2000/svg" viewBox="0 0 24 24"><defs><style>.cls-1{fill:none;stroke:#2c2c2c;stroke-linecap:round;stroke-linejoin:round;stroke-width:.5px;}.cls-2{fill:#2c2c2c;stroke-width:0px;}</style></defs><path class="cls-1" d="m8.97,9.19c0,1.33-1.16,2.4-2.59,2.4s-2.59-1.08-2.59-2.4c0-.75.37-1.12.95-1.56.45-.34,1.02.22,1.64.22s1.2-.56,1.65-.21c.58.44.94.81.94,1.55Z"/><circle class="cls-1" cx="8.24" cy="9.15" r=".73"/><circle class="cls-1" cx="6.38" cy="10.15" r=".41"/><circle class="cls-2" cx="8.2" cy="9.47" r=".28"/><circle class="cls-1" cx="4.7" cy="9.15" r=".73"/><circle class="cls-2" cx="4.66" cy="9.47" r=".28"/><line class="cls-1" x1="6.38" y1="11.59" x2="6.38" y2="10.56"/><path class="cls-1" d="m11.02,10.15s-.64.64-.27,2.24.09,3.45-.12,4.57c-.16.89-2.15,1.68-2.43,0-.23-1.41.25-3.71-.53-5.7"/><path class="cls-1" d="m6.22,14.33s-.27,1.96,0,2.36.95,1.28,1.98.27"/><path class="cls-1" d="m4.54,10.88c-1.39-.91-2.2-3.99.59-4.99,2.35-.84,3.47.65,6.49.1,4.29-.78,6.48-.85,7.43,1.89s-.16,4.5-.54,5.95c-.21.79-.18,1.89.16,2.89.31.9-1.07,1.62-1.58,1.26s-2.09-2.87-.82-7.98"/><path class="cls-1" d="m15.81,12.19c.54-2.72-1.53-2.8-1.53-2.8"/><line class="cls-1" x1="11.79" y1="13.86" x2="19.59" y2="14.58"/><line class="cls-1" x1="19.77" y1="12.81" x2="18.88" y2="12.69"/><path class="cls-1" d="m10.64,11.68s3.29,1.41,5.06.74"/><path class="cls-1" d="m13.89,14.03s.41,2.02.93,2.67.56,1.05,1.97.93"/><path class="cls-1" d="m18.41,17.75s-.19.97.56,1.13c0,0-1.63.54-1.91-.74"/><path class="cls-1" d="m15.43,17.48s0,1.34,1.58,1.03"/><path class="cls-1" d="m10.12,17.6s-.31,1.07.56,1.32c0,0-1.54.76-1.97-1.13"/><path class="cls-1" d="m6.93,17.3s.06,1.36,1.87,1.05"/><line class="cls-1" x1="3.66" y1="13.12" x2="8.06" y2="13.51"/><line class="cls-1" x1="3.87" y1="11.39" x2="7.82" y2="11.74"/></svg>