<?xml version="1.0" encoding="UTF-8"?><svg id="Ebene_1" xmlns="http://www.w3.org/2000/svg" viewBox="0 0 24 24"><defs><style>.cls-1{fill:none;stroke:#2c2c2c;stroke-linecap:round;stroke-linejoin:round;stroke-width:.5px;}</style></defs><path class="cls-1" d="m14.31,8.15s-3.5,3.21-1.01,9.62c0,0,.46,1.39,2.36,1.39,0,0,1.1.21,1.6.84s1.22-3.46,1.22-3.46c0,0,.08-4.14-1.9-6.58s-2.28-1.82-2.28-1.82Z"/><path class="cls-1" d="m9.28,8.2s3.5,3.21,1.01,9.62c0,0-.46,1.39-2.36,1.39,0,0-1.1.21-1.6.84s-1.22-3.46-1.22-3.46c0,0-.08-4.14,1.9-6.58s2.28-1.82,2.28-1.82Z"/><path class="cls-1" d="m12.39,12.33s-.47-.29-.65-.3c-.19,0-.69.3-.69.3v-6.33h1.33v6.33Z"/><path class="cls-1" d="m13.66,11.72s1.77.41,1.98,3.3c.07.91.17,1.62,1.11,2.94"/><path class="cls-1" d="m14.61,10.48s0,1.62-.85,2.86"/><line class="cls-1" x1="16.6" y1="12.49" x2="14.88" y2="12.64"/><path class="cls-1" d="m13.76,14.8s1.41-.25,1.39-1.68"/><path class="cls-1" d="m14.32,16.02s.62-.37.21-1.6"/><path class="cls-1" d="m16.91,14.82s-.52-.44-1.22-.41"/><path class="cls-1" d="m14.81,17.08s.75-.08,1-.75"/><path class="cls-1" d="m17.28,16.99s-.52-.29-1.12-.17"/><polyline class="cls-1" points="8.89 12.55 7.75 14.22 9.15 14.22 7.51 16.36"/></svg>