<?xml version="1.0" encoding="UTF-8"?><svg id="Ebene_1" xmlns="http://www.w3.org/2000/svg" viewBox="0 0 24 24"><defs><style>.cls-1{fill:none;stroke:#2c2c2c;stroke-linecap:round;stroke-linejoin:round;stroke-width:.5px;}</style></defs><path class="cls-1" d="m15.26,5.32c.22.09.45.2.68.33.76.43,1.29,1.37,1.56,1.92.24.49.46,1.58.5,2.13.04.63-.36,1.88-.26,2.5.08.54,1.1,2.32.83,2.57-.17.16-.45.05-.56.12-.1.06-.21.27-.23.39-.03.15.16.35.08.47-.06.09-.45.07-.49.17s.25.3.22.41c-.03.11-.28.11-.34.2-.2.29,0,1.16-.28,1.37-.55.42-2.12-.45-2.78-.2-.2.08-.51.42-.61.61-.23.49-.19,1.49-.21,2.03"/><path class="cls-1" d="m7.58,20.25s0-3.71-.35-4.85c-.28-.93-1.61-2.26-1.79-3.46-.13-.8-.29-2.17.09-3.23.3-.84,1.08-1.92,2.2-2.78s2.07-.99,3.28-1.07c.62-.04,1.2-.08,1.79-.03"/><polyline class="cls-1" points="15.22 5.33 9.75 11.34 15.9 11.99 9.16 18.59"/><polyline class="cls-1" points="12.75 4.92 6.91 12.24 13.63 12.92 9.16 18.59"/></svg>