<?xml version="1.0" encoding="UTF-8"?><svg id="Ebene_1" xmlns="http://www.w3.org/2000/svg" viewBox="0 0 24 24"><defs><style>.cls-1{fill:none;stroke:#2c2c2c;stroke-linecap:round;stroke-linejoin:round;stroke-width:.5px;}</style></defs><path class="cls-1" d="m9.23,20.49s0-3.71-.35-4.85c-.28-.93-1.61-2.26-1.79-3.46-.13-.8-.29-2.17.09-3.23.3-.84,1.08-1.92,2.2-2.78s2.07-.99,3.28-1.07c1.16-.08,2.17-.15,3.41.4.8.35,1.42,1.23,1.75,1.75.29.46.63,1.53.72,2.06.1.62-.16,1.91,0,2.51.14.52,1.34,2.19,1.1,2.47-.15.18-.44.09-.55.17-.09.07-.18.29-.19.41-.01.15.2.33.13.46-.05.1-.44.12-.47.22s.28.28.26.38c-.02.11-.27.14-.32.24-.17.3.12,1.15-.13,1.39-.51.48-2.16-.22-2.78.09-.19.1-.47.47-.54.67-.18.51-.03,1.5,0,2.04"/><path class="cls-1" d="m10.32,10.15s.47-2.71,2.72-1.08l1.09,1.38-.34.41.9.04,2.52,1.62s-.17.56-1.8.74l-.61-.38v.37s-1.53.32-2.79-.78l-.33-.94-.3.36s-.54-.57-.79-.94c-.33-.49-.26-.81-.26-.81Z"/><path class="cls-1" d="m14.33,12.02s-2.65-.39-3.81-4.92"/><path class="cls-1" d="m11.65,7.66c-.27-.12-.58,1.03-.58,1.03,0,0-.48-.29-.84-.3"/></svg>