<?xml version="1.0" encoding="UTF-8"?><svg id="Ebene_1" xmlns="http://www.w3.org/2000/svg" viewBox="0 0 24 24"><defs><style>.cls-1{fill:none;stroke:#2c2c2c;stroke-linecap:round;stroke-linejoin:round;stroke-width:.5px;}</style></defs><path class="cls-1" d="m17.45,11.41c-.03.39-.05.74.02.99.11.43,1.09,1.78.89,2-.12.14-.36.08-.45.14-.08.06-.15.24-.15.33,0,.12.16.27.1.37-.04.08-.36.1-.38.18s.23.22.21.31c-.02.09-.22.11-.26.19-.14.25.1.93-.11,1.13-.41.39-1.75-.18-2.26.07-.16.08-.38.38-.44.55-.14.41-.03,1.22,0,1.66"/><path class="cls-1" d="m9.93,19.43s0-3.01-.29-3.93c-.23-.76-1.3-1.83-1.46-2.8-.05-.31-.1-.72-.11-1.16,0-.04,0-.09,0-.13"/><line class="cls-1" x1="17.42" y1="11.4" x2="8.07" y2="11.4"/><path class="cls-1" d="m15.44,11.34s-.2-3.43,1.78-3.43"/><polyline class="cls-1" points="16.75 7.26 17.32 7.89 16.8 8.62"/><path class="cls-1" d="m13.02,6.25l.38-.51c.59.53.07,5.61.07,5.61"/><line class="cls-1" x1="14.02" y1="6.09" x2="13.4" y2="5.74"/><path class="cls-1" d="m12.3,4.63l-.43-.75c-1.06,1.32-.26,7.33-.26,7.33"/><line class="cls-1" x1="11.13" y1="2.75" x2="11.87" y2="2.38"/><path class="cls-1" d="m4.58,7.55l.18.83s-.2.33,1.06-1.58,3.56,4.55,3.56,4.55"/><line class="cls-1" x1="5.55" y1="8.36" x2="4.76" y2="8.37"/><path class="cls-1" d="m10.22,11.36s-.61-7.36-1.94-4.97l-1.33,2.4-.31-1.09"/><line class="cls-1" x1="7.96" y1="8.68" x2="6.96" y2="8.79"/><path class="cls-1" d="m17.81,4.41l.5.81s-1.33-.09-2.57.24-1.33,5.86-1.33,5.86"/><line class="cls-1" x1="17.74" y1="5.8" x2="18.31" y2="5.21"/><path class="cls-1" d="m19.25,10.71l-.17.74-1.46-1.42c-1.46-1.42-1.31,1.22-1.31,1.22"/><line class="cls-1" x1="18.31" y1="11.53" x2="19.07" y2="11.45"/></svg>