<svg xmlns="http://www.w3.org/2000/svg" viewBox="0 0 952.49 847.84"><g id="Layer_2" data-name="Layer 2"><g id="Layer_1-2" data-name="Layer 1"><path d="M477,0c-3.23,181.69-84.78,463.52,0,671.46C558.2,486.28,480.56,197.5,477,0Z"/><path d="M458.77,718.07c-119.39,23.27-228.72-40.43-330.34,64.26C232.76,720.24,349.49,803.61,458.77,718.07Z"/><path d="M489,702.57C693.12,723,773,526.53,952.49,521.6,742.72,471.16,656.51,637.22,489,702.57Z"/><path d="M824.06,782.33c-101.62-104.69-210.95-41-330.34-64.26C603,803.61,719.73,720.24,824.06,782.33Z"/><path d="M754.09,244.84c-202.24,89.8-168.83,278.78-264.47,436.52C668.59,570.62,611.07,360.81,754.09,244.84Z"/><path d="M462.87,681.36C367.22,523.62,400.64,334.64,198.4,244.84,341.42,360.81,283.89,570.62,462.87,681.36Z"/><path d="M463.54,702.57C296,637.22,209.77,471.16,0,521.6,179.45,526.53,259.37,723,463.54,702.57Z"/><path d="M468.79,718.39c1,36.28-4.83,98.93,1.48,125.21,1.39,5.8,17.56,5.59,17.19-.3-1.78-28.34-4.28-88.83-4.69-124.91Z"/></g></g></svg>