<svg xmlns="http://www.w3.org/2000/svg" viewBox="0 0 733.18 687.06"><g id="Layer_2" data-name="Layer 2"><g id="Layer_1-2" data-name="Layer 1"><path d="M458,529.17q11.76-4.92,23.4-10.76a395.53,395.53,0,0,0,35.1-19.94,262.36,262.36,0,0,0-68.84,12.59c-6.84,2.25-13.42,5-20.13,7.59,5.8,2.42,14.08,5.43,20.26,7.44Q452.78,527.72,458,529.17Z"/><path d="M55.8,196.88l-25.5-2.53,2.75,25.44.07.64c4.07,38.38,16.23,78.26,36,116.9a412.37,412.37,0,0,0,68.35,95.73,343,343,0,0,1,53.61-6q-7.83-7-15.42-14.48a372.91,372.91,0,0,1-69.52-94.16,306.9,306.9,0,0,1-27.45-76.08A307.43,307.43,0,0,1,155,269.13a372.75,372.75,0,0,1,94.71,68.66c29.33,29.09,52.62,61.18,69.52,94.15q4.78,9.33,8.89,18.75,7.13,2.93,14,6.15a378.76,378.76,0,0,1,16.2-39.76c-.67-1.35-1.35-2.71-2-4.06A414.63,414.63,0,0,0,279.1,308.27,414.58,414.58,0,0,0,173.63,232c-38.74-19.44-78.72-31.24-117.2-35h0Z"/><path d="M454.08,308.27A414.63,414.63,0,0,0,376.89,413a364.6,364.6,0,0,0-21.36,50.58q5.64,3,11.06,6.29A281.7,281.7,0,0,1,405,450.69q4.11-9.4,8.89-18.75c16.9-33,40.18-65.06,69.52-94.15a372.57,372.57,0,0,1,94.71-68.66,307.36,307.36,0,0,1,76.3-26.8A306.46,306.46,0,0,1,627,318.41a372.91,372.91,0,0,1-69.52,94.16q-7.58,7.51-15.42,14.48a343,343,0,0,1,53.61,6A412.37,412.37,0,0,0,664,337.33c19.81-38.64,32-78.52,36-116.9l.07-.64,2.75-25.44-25.5,2.53-.64.06h0c-38.48,3.76-78.46,15.56-117.2,35A414.58,414.58,0,0,0,454.08,308.27Z"/><path d="M19.87,502,0,518.14l19.87,16.18.33.27,0,0c23.24,19,51.76,34.42,83.81,45a320.94,320.94,0,0,0,99.45,15.58,320.78,320.78,0,0,0,99.48-15.3,283.28,283.28,0,0,0,33.75-13.4c4.53-2.15,15.62-7.73,20-10.09-7.8-8.59-24.55-24.18-33.69-29.52-2.94,1.38-12.38,5.93-15.12,7-5.63,2.29-11.15,4.18-17.78,6.34A284.79,284.79,0,0,1,116.87,540a231.85,231.85,0,0,1-47.74-21.75A233.2,233.2,0,0,1,117,496.63a284.79,284.79,0,0,1,173.16.28c15.23,5,32.49,11.45,44.73,20.29,15.49,11.19,27.26,24.22,44.44,36,14.69,10,33.34,21,50.94,26.69a328.13,328.13,0,0,0,198.94-.28c32-10.54,60.56-26,83.81-45l0,0,.33-.27,19.87-16.18L713.31,502l-.38-.3c-23.37-19-51.9-34.33-83.86-44.73a328.3,328.3,0,0,0-198.93.28,290.06,290.06,0,0,0-28.75,11.17c-7.16,3.24-16.86,8.41-23.53,12.16,12.52,8.65,24.09,18.76,35.91,28.4,8.43-3.92,20.05-9.08,29.25-12.1a284.82,284.82,0,0,1,173.17-.28,233.44,233.44,0,0,1,47.86,21.58A231.85,231.85,0,0,1,616.31,540a279.25,279.25,0,0,1-86.56,13.62c-30.8,0-61.36-3.47-87.85-12.09-36.81-12-58.22-43.55-92.93-62.59-14.59-8-29.15-16.1-45.93-21.62a320.63,320.63,0,0,0-99.44-15.57A320.55,320.55,0,0,0,104.11,457c-32,10.4-60.49,25.73-83.86,44.73Z"/><path d="M383.28,20.8l0,0-.43-.53L366.58,0,350.36,20.3l-.43.53,0,0c-28,34.87-50.62,77.61-66.07,125.62a485.73,485.73,0,0,0-22.43,125.65q14.46,12.06,28.19,25.66,6.8,6.74,13.22,13.68c-.15-5-.24-10.07-.24-15.15,0-49,7.47-95.4,20.89-137.12,10.8-33.58,25.45-64.17,43.14-90.7,17.69,26.53,32.33,57.12,43.14,90.7,13.42,41.72,20.89,88.11,20.89,137.12,0,5.08-.09,10.13-.24,15.15q6.42-6.95,13.22-13.68,13.71-13.59,28.19-25.66a486.15,486.15,0,0,0-22.43-125.65C433.91,98.41,411.26,55.67,383.28,20.8Z"/><rect x="354.45" y="571.82" width="24.28" height="115.24"/><path d="M280.58,435.57q13.91,3.23,27.06,7.56l.76.25q-1.15-2.34-2.35-4.68a346,346,0,0,0-38.29-58.77A474.25,474.25,0,0,0,280.58,435.57Z"/><path d="M216.72,498.47a396.8,396.8,0,0,0,35.09,19.94q11.64,5.83,23.41,10.76,5.17-1.44,10.21-3.08,10.32-3.36,19.93-7.5-9.56-4.15-19.8-7.53A262.36,262.36,0,0,0,216.72,498.47Z"/><path d="M425.54,443.13q13.14-4.32,27.06-7.56a474.25,474.25,0,0,0,12.82-55.64,346,346,0,0,0-38.29,58.77q-1.2,2.34-2.36,4.68Z"/></g></g></svg>