<?xml version="1.0" encoding="utf-8"?>
<!-- Generator: Adobe Illustrator 28.1.0, SVG Export Plug-In . SVG Version: 6.00 Build 0)  -->
<svg version="1.1" id="Layer_1" xmlns="http://www.w3.org/2000/svg" xmlns:xlink="http://www.w3.org/1999/xlink" x="0px" y="0px"
	 viewBox="0 0 32 32" style="enable-background:new 0 0 32 32;" xml:space="preserve">
<style type="text/css">
	.st0{fill:#131315;}
</style>
<g id="Layer_2_00000129174257853619974490000004436882608590802071_">
	<path class="st0" d="M16,17c-3.3,0-6-2.7-6-6s2.7-6,6-6s6,2.7,6,6S19.3,17,16,17z M16,7c-2.2,0-4,1.8-4,4s1.8,4,4,4s4-1.8,4-4
		S18.2,7,16,7z"/>
	<path class="st0" d="M16,31c-4.5,0-8.7-2-11.6-5.5l-0.5-0.6l0.5-0.6c5.3-6.4,14.7-7.3,21.1-2.1c0.8,0.6,1.4,1.3,2.1,2.1l0.5,0.6
		l-0.5,0.6C24.7,29,20.5,31,16,31z M6.5,24.9c4.9,5.2,13.1,5.5,18.4,0.6c0.2-0.2,0.4-0.4,0.6-0.6c-4.9-5.2-13.1-5.5-18.4-0.6
		C6.9,24.5,6.7,24.7,6.5,24.9z"/>
	<path class="st0" d="M16,31C7.7,31,1,24.3,1,16S7.7,1,16,1s15,6.7,15,15c0,3.5-1.2,6.8-3.4,9.5C24.7,29,20.5,31,16,31z M16,3
		C8.8,3,3,8.8,3,16s5.8,13,13,13s13-5.8,13-13S23.2,3,16,3z"/>
	<path class="st0" d="M5.2,24.9c0,0,10.1,11.2,20.3,1.1l1.3-1.1c0,0-8.6-8.9-17.2-3.5L5.2,24.9z"/>
	<circle class="st0" cx="16" cy="11" r="5"/>
</g>
</svg>
