<?xml version="1.0" encoding="UTF-8"?><svg id="Ebene_2" xmlns="http://www.w3.org/2000/svg" viewBox="0 0 24 24"><defs><style>.cls-1{stroke-linecap:round;stroke-width:.5px;}.cls-1,.cls-2{fill:none;stroke:#2c2c2c;stroke-miterlimit:10;}</style></defs><circle class="cls-2" cx="12.02" cy="12.11" r="7.97"/><path class="cls-1" d="m14.87,13.31c0,1.75-1.42,3.17-3.17,3.17s-3.17-1.42-3.17-3.17,3.17-6.79,3.17-6.79c0,0,1.02,1.62,1.91,3.35"/><path class="cls-1" d="m12.39,14.49c-.24.06-.5.07-.76.02-.83-.14-1.43-.81-1.54-1.6"/><path class="cls-1" d="m12.28,9.99s.52.75,1.28.75c.58,0,.85-.75,1.61-.75.59,0,.95.67,1.55.67s1.08-.7,1.08-.7"/><path class="cls-1" d="m12.28,11.09s.52.75,1.28.75c.58,0,.85-.75,1.61-.75.59,0,.95.67,1.55.67s1.08-.7,1.08-.7"/><path class="cls-1" d="m12.28,12.19s.52.75,1.28.75c.58,0,.85-.75,1.61-.75.59,0,.95.67,1.55.67s1.08-.7,1.08-.7"/></svg>