<?xml version="1.0" encoding="UTF-8"?><svg id="Ebene_2" xmlns="http://www.w3.org/2000/svg" viewBox="0 0 24 24"><defs><style>.cls-1,.cls-2{fill:#fff;}.cls-1,.cls-2,.cls-3,.cls-4{stroke-miterlimit:10;}.cls-1,.cls-2,.cls-3,.cls-4,.cls-5{stroke:#2c2c2c;}.cls-1,.cls-2,.cls-3,.cls-5{stroke-width:.5px;}.cls-1,.cls-3,.cls-5{stroke-linecap:round;}.cls-3,.cls-4,.cls-5{fill:none;}.cls-5{stroke-linejoin:round;}</style></defs><circle class="cls-4" cx="11.84" cy="12.15" r="7.97"/><circle class="cls-2" cx="17.85" cy="17.8" r="2.4"/><line class="cls-1" x1="16.49" y1="17.8" x2="19.2" y2="17.8"/><path class="cls-3" d="m12.51,13.53s.83.21,1.02,1.94"/><path class="cls-5" d="m9.93,9.96c-.24.23-.3.6-.13.91.09.17.24.29.41.35-.17.23-.2.55-.06.82.08.14.19.25.32.32.22.12.49.13.73,0,.12-.06.21-.15.28-.26.02-.03.04-.07.06-.11"/><path class="cls-5" d="m11.47,12.14c-.07.09-.15.17-.26.23-.24.13-.51.12-.73,0-.16.25-.18.58-.03.86.23.43.76.59,1.18.36.09-.05.16-.11.22-.17h0c.25.15.58.17.86.02.25-.13.41-.37.45-.63-.23.04-.46-.01-.65-.14l.02.02c.19.12.41.16.63.12.08-.02.17-.05.25-.09.43-.23.59-.76.36-1.19-.17-.31-.5-.48-.83-.46.06-.19.05-.41-.06-.6-.13-.24-.36-.38-.6-.41h0s0,0,0,0c0-.14-.02-.28-.09-.42-.18-.33-.57-.48-.92-.37-.01-.06-.03-.12-.06-.17-.2-.38-.67-.52-1.05-.32s-.52.67-.32,1.05c.02.04.05.08.07.11,0,0,.01.02.02.02"/><path class="cls-5" d="m12.3,10.03c0,.37-.25.7-.63.78"/><path class="cls-5" d="m10.87,10.07c-.29.17-.66.13-.92-.1"/><path class="cls-5" d="m11.42,13.71s-.62.66-.72,1.38l.17-1.41"/><path class="cls-5" d="m11.64,13.59s-.46.91-.21,1.94c0,0,.5-1.49.97-1.91"/><path class="cls-5" d="m13.45,12.72s1.21.12,1.87.09c0,0-1.26-.14-1.48-.49"/><path class="cls-5" d="m13.17,12.81s.99.32,1.51,1.24c0,0-1.33-.63-1.96-.61"/></svg>