<?xml version="1.0" encoding="UTF-8"?><svg id="Ebene_2" xmlns="http://www.w3.org/2000/svg" viewBox="0 0 24 24"><defs><style>.cls-1{fill:#fff;stroke-linecap:round;stroke-width:.25px;}.cls-1,.cls-2{stroke-miterlimit:10;}.cls-1,.cls-2,.cls-3{stroke:#2c2c2c;}.cls-2,.cls-3{fill:none;}.cls-3{stroke-linejoin:round;stroke-width:.5px;}</style></defs><line class="cls-1" x1="5.11" y1="16.4" x2="6.21" y2="17.04"/><circle class="cls-2" cx="11.99" cy="12.11" r="7.97"/><polygon class="cls-3" points="6.34 15.06 6.53 13.75 8.69 14.25 9.7 14.21 9.7 15.33 7.8 15.53 6.34 15.06"/><polygon class="cls-3" points="17.21 15.04 17.26 11.63 15.97 10.19 12.16 9.08 8.79 9.98 7.86 10.85 7.4 12.62 6.53 13.75 6.34 15.06 7.8 15.53 9.7 15.33 12.5 15.42 14.41 15.52 15.47 15.02 17.21 15.04"/><line class="cls-3" x1="7.4" y1="12.62" x2="9.7" y2="14.21"/><polyline class="cls-3" points="12.5 15.42 12.36 12.77 7.86 10.85"/><polyline class="cls-3" points="15.97 10.19 14.61 11.85 12.36 12.77"/><polyline class="cls-3" points="17.26 11.63 14.61 11.85 15.47 15.02"/><path class="cls-3" d="m9.31,9.78s.45-.97.3-1.83l.34,1.65"/><path class="cls-3" d="m8.9,9.92s-.32-.87-1.45-1.42c0,0,.8,1.15.83,1.9"/></svg>