<?xml version="1.0" encoding="UTF-8"?><svg id="Ebene_2" xmlns="http://www.w3.org/2000/svg" viewBox="0 0 24 24"><defs><style>.cls-1{fill:#fff;}.cls-1,.cls-2,.cls-3{stroke:#2c2c2c;stroke-miterlimit:10;}.cls-1,.cls-3{stroke-width:.5px;}.cls-2,.cls-3{fill:none;}</style></defs><path class="cls-1" d="m17.41,11.41c-.26.09-.57.02-.74-.15l-1.63.53c.07.57,0,1.14-.24,1.62l1.17.59c.24-.14.5-.14.73-.01.41.21.57.67.36,1.09-.19.4-.7.57-1.11.36-.24-.12-.38-.36-.4-.62l-1.21-.64c-.23.26-.51.49-.81.66l.64,1.66c.36.12.6.48.56.86-.05.44-.45.77-.89.72-.44-.05-.77-.45-.72-.89.01-.15.07-.28.15-.39l-.63-1.63c-.41.09-.83.09-1.22,0l-.71,1.35s.06.1.08.15c.14.44-.09.89-.52,1.03-.41.14-.89-.09-1.03-.52s.11-.89.52-1.03c.05-.01.1-.03.16-.02l.65-1.27c-.46-.23-.83-.57-1.1-.99l-1.81.94c-.07.38-.39.65-.79.65-.45,0-.81-.36-.81-.81s.36-.81.81-.81c.15,0,.29.04.41.11l1.8-.94c-.12-.44-.13-.91-.02-1.36l-1.57-.8h-.03c-.07.06-.14.11-.24.14-.44.15-.88-.08-1.03-.52-.14-.44.09-.89.52-1.03.41-.14.89.08,1.03.52.02.05.09.09.09.09l1.54.75c.27-.57.72-1.04,1.31-1.31l-.41-1.27c-.24-.04-.48-.22-.57-.51-.13-.41.11-.89.52-1.02.44-.15.89.1,1.03.52.09.28.04.56-.15.77l.41,1.24c.52-.08,1.05-.02,1.54.16l.54-1.07s-.05-.07-.07-.12c-.14-.41.08-.89.5-1.02.44-.14.89.11,1.02.52.15.44-.08.89-.52,1.03-.06.02-.1.03-.17.02l-.52,1.03c.41.29.74.67.95,1.15l1.6-.52c.06-.25.25-.45.51-.54.44-.14.88.08,1.02.52.14.41-.08.88-.52,1.02Z"/><circle class="cls-2" cx="12.02" cy="12.07" r="7.97"/><circle class="cls-3" cx="11.88" cy="10.77" r=".46"/><circle class="cls-3" cx="10.74" cy="12.41" r=".46"/><circle class="cls-3" cx="12.4" cy="13.44" r=".46"/></svg>