<?xml version="1.0" encoding="UTF-8"?><svg id="Ebene_2" xmlns="http://www.w3.org/2000/svg" viewBox="0 0 24 24"><defs><style>.cls-1,.cls-2{fill:#fff;}.cls-1,.cls-2,.cls-3,.cls-4{stroke-miterlimit:10;}.cls-1,.cls-2,.cls-3,.cls-4,.cls-5{stroke:#2c2c2c;}.cls-1,.cls-2,.cls-3,.cls-5{stroke-width:.5px;}.cls-1,.cls-3,.cls-5{stroke-linecap:round;}.cls-3,.cls-4,.cls-5{fill:none;}.cls-5{stroke-linejoin:round;}</style></defs><path class="cls-4" d="m6.37,6.7c-.15.16-.3.33-.44.51-.99,1.3-1.58,2.92-1.58,4.68,0,2.86,1.57,5.36,3.89,6.67.01.01.02.01.04.02.48.27.98.49,1.52.64"/><path class="cls-4" d="m10.23,19.34c.57.14,1.16.21,1.78.21,1.01,0,1.98-.2,2.86-.56,2.81-1.14,4.79-3.89,4.79-7.11,0-4.23-3.43-7.66-7.65-7.66-.84,0-1.74.15-2.5.4"/><path class="cls-3" d="m12.55,15.26s2,.51,2.47,4.68"/><path class="cls-5" d="m6.32,6.65c-.57.56-.72,1.46-.32,2.2.22.41.58.7,1,.86-.41.56-.49,1.32-.14,1.98.18.34.45.61.78.77.53.28,1.19.31,1.76,0,.28-.15.51-.37.67-.62.05-.08.1-.16.15-.25"/><path class="cls-5" d="m10.02,11.91c-.16.22-.37.41-.63.55-.57.3-1.23.28-1.76,0-.38.61-.43,1.41-.06,2.08.55,1.04,1.83,1.42,2.86.87.21-.11.39-.26.54-.42h0c.6.37,1.39.42,2.07.05.6-.32.98-.89,1.09-1.51-.55.1-1.12-.03-1.58-.34l.06.04c.45.28.99.39,1.52.3.2-.04.41-.11.61-.22,1.03-.55,1.41-1.83.86-2.86-.4-.75-1.2-1.16-2-1.11.15-.45.11-.98-.14-1.45-.3-.57-.86-.92-1.45-.98h0s0,0,0,0c.02-.34-.05-.68-.22-1-.43-.81-1.37-1.17-2.21-.89-.03-.14-.08-.29-.15-.41-.49-.92-1.62-1.27-2.54-.78-.92.49-1.26,1.63-.77,2.55.05.1.11.19.18.27.02.02.03.04.05.06"/><path class="cls-5" d="m12.03,6.82c0,.89-.62,1.68-1.52,1.87"/><path class="cls-5" d="m8.58,6.93c-.71.4-1.6.31-2.21-.24"/><path class="cls-5" d="m9.92,15.71s-1.49,1.59-1.74,3.34l.4-3.39"/><path class="cls-5" d="m10.23,19.34c-.18.45-.29.76-.29.76-.07-.3-.13-.58-.15-.87.14.04.29.08.44.11Z"/><path class="cls-5" d="m10.23,19.34c.46-1.15,1.37-3.27,2.18-4"/><path class="cls-5" d="m9.79,19.23c-.21-2.1.64-3.81.64-3.81"/><path class="cls-5" d="m14.81,13.33s2.93.3,4.52.22c0,0-3.03-.35-3.58-1.18"/><path class="cls-5" d="m14.14,13.54s2.4.78,3.65,2.99c0,0-3.22-1.51-4.74-1.48"/><circle class="cls-2" cx="17.32" cy="17.45" r="2.31"/><line class="cls-1" x1="16.01" y1="17.45" x2="18.62" y2="17.45"/><line class="cls-1" x1="17.32" y1="16.15" x2="17.32" y2="18.75"/></svg>