<?xml version="1.0" encoding="UTF-8"?><svg id="Ebene_2" xmlns="http://www.w3.org/2000/svg" viewBox="0 0 24 24"><defs><style>.cls-1{fill:#fff;}.cls-1,.cls-2,.cls-3{stroke-miterlimit:10;}.cls-1,.cls-2,.cls-3,.cls-4{stroke:#2c2c2c;}.cls-1,.cls-2,.cls-4{stroke-width:.5px;}.cls-2,.cls-3,.cls-4{fill:none;}.cls-2,.cls-4{stroke-linecap:round;}.cls-4{stroke-linejoin:round;}</style></defs><circle class="cls-3" cx="11.9" cy="12.06" r="7.92"/><path class="cls-2" d="m12.58,14.38s1.38.35,1.71,3.24"/><path class="cls-4" d="m8.28,8.43c-.39.39-.5,1.01-.22,1.52.15.29.4.49.69.59-.28.39-.34.92-.1,1.37.13.23.31.42.54.53.37.2.82.21,1.22,0,.2-.11.35-.25.46-.43.04-.05.07-.11.1-.18"/><path class="cls-4" d="m10.84,12.07c-.11.15-.25.29-.43.38-.39.21-.85.19-1.22,0-.26.43-.29.97-.04,1.44.38.72,1.27.98,1.98.61.15-.08.27-.18.37-.29h0c.42.26.96.29,1.43.04.42-.22.68-.62.75-1.05-.38.07-.78-.02-1.09-.23l.04.03c.31.2.69.27,1.05.21.14-.03.28-.08.42-.15.71-.38.98-1.26.6-1.98-.28-.52-.83-.8-1.38-.77.1-.31.08-.68-.09-1-.21-.39-.59-.64-1.01-.68h0s0,0,0,0c.01-.24-.03-.47-.15-.69-.3-.56-.94-.81-1.53-.62-.02-.1-.06-.2-.1-.29-.34-.63-1.12-.88-1.75-.54s-.87,1.13-.53,1.76c.04.07.08.13.12.19.01.01.02.03.03.04"/><path class="cls-4" d="m12.22,8.55c0,.61-.43,1.16-1.05,1.29"/><path class="cls-4" d="m9.84,8.62c-.49.28-1.11.22-1.53-.17"/><path class="cls-4" d="m10.77,14.69s-1.03,1.1-1.2,2.31l.28-2.35"/><path class="cls-4" d="m11.12,14.49s-.76,1.52-.34,3.23c0,0,.84-2.48,1.62-3.18"/><path class="cls-4" d="m14.14,13.05s2.03.21,3.13.15c0,0-2.1-.24-2.48-.81"/><path class="cls-4" d="m13.69,13.2s1.66.54,2.52,2.07c0,0-2.23-1.05-3.28-1.03"/><circle class="cls-1" cx="17.53" cy="17.73" r="2.39"/><path class="cls-2" d="m16.11,17.87l1.02,1.09s.76-1.98,1.83-2.46"/></svg>