<?xml version="1.0" encoding="UTF-8"?><svg id="Ebene_2" xmlns="http://www.w3.org/2000/svg" viewBox="0 0 24 24"><defs><style>.cls-1,.cls-2{fill:none;stroke:#2c2c2c;stroke-miterlimit:10;}.cls-3{fill:#2c2c2c;stroke-width:0px;}.cls-2{stroke-width:.5px;}</style></defs><circle class="cls-1" cx="12.01" cy="12.06" r="8"/><path class="cls-2" d="m11.34,12.16c-.09-.88-.6-1.7-1.08-2.11-.21-.18-.42-.28-.58-.26-.54.06-1.27,1.37-1.14,2.64.12,1.27.54,2.25,1.62,2.17.61-.05.94-.42,1.09-.97.12-.41.14-.92.08-1.47Z"/><path class="cls-2" d="m12.89,11.94c-.27.26-.51.56-.68.9-.14.27-.25.54-.33.79-.06.01-.12.02-.19.03-.16.01-.31,0-.44-.03.12-.41.14-.92.08-1.47-.09-.88-.6-1.7-1.08-2.11.23-.67.62-1.16.95-1.19.53-.05,1.54,1.1,1.66,2.36.03.25.03.49.02.72Z"/><path class="cls-2" d="m14.59,11.23c-.34-.18-1.09.12-1.7.71-.27.26-.51.56-.68.9-.14.27-.25.54-.33.79-.26.82-.19,1.51.54,1.91.94.5,1.72-.29,2.3-1.42.58-1.14.34-2.65-.12-2.88Z"/><circle class="cls-3" cx="9.42" cy="13.12" r=".22"/><circle class="cls-3" cx="9.77" cy="13.68" r=".22"/><circle class="cls-3" cx="12.41" cy="14.28" r=".22"/><circle class="cls-3" cx="12.76" cy="14.84" r=".22"/></svg>