<?xml version="1.0" encoding="UTF-8"?><svg id="Ebene_2" xmlns="http://www.w3.org/2000/svg" viewBox="0 0 24 24"><defs><style>.cls-1{fill:#fff;}.cls-1,.cls-2{stroke-width:.5px;}.cls-1,.cls-2,.cls-3{stroke:#2c2c2c;stroke-miterlimit:10;}.cls-2{stroke-linecap:round;}.cls-2,.cls-3{fill:none;}</style></defs><ellipse class="cls-3" cx="11.94" cy="11.87" rx="8.07" ry="8.1"/><path class="cls-1" d="m17.01,7.32c-.94.97.21,3.16.21,3.89,0,1.31-.08,2.54-1.39,2.54s-1.26-.97-1.26-2.28c0-.75,1.04-3.03.48-3.67-.32-.38-1.47-.7-1.63-.64-.69.16-.48,1.04-.48,1.36,0,.64-.54,1.18-1.18,1.18s-.9-.43-.9-1.07c0-.34.29-.91-.03-1.21-1.9-1.56-2.16,2.07-2.16,2.49,0,1.5-.37,2.84-1.01,2.84-1.2,0,.75-5.25-1.6-5.63-.26-.05-.35-.19-.3-.38l-.02-.02s0-.05.02-.05c.69-.8,1.55-1.47,2.51-1.93,1.09-.56,2.35-.86,3.66-.86,2.48,0,4.72,1.1,6.24,2.87,0,0-.96.35-1.17.56Z"/><path class="cls-2" d="m16.18,12.97c-.11,0-.23-.02-.34-.07-.35-.15-.55-.51-.51-.87"/><path class="cls-2" d="m12.04,9.09c-.07,0-.15-.01-.22-.05-.23-.1-.36-.33-.33-.57"/><path class="cls-2" d="m7.87,12.03c-.05-.05-.08-1.14.01-1.49"/></svg>