<svg xmlns="http://www.w3.org/2000/svg" viewBox="0 0 53.6 53.1"><defs><style>.cls-1{fill:#fff;}</style></defs><g id="Layer_2" data-name="Layer 2"><g id="_5" data-name="5"><path class="cls-1" d="M48.15,53.1a5.14,5.14,0,0,1-3.84-1.6L30.58,38a1.25,1.25,0,0,1,0-1.8,1.28,1.28,0,0,1,1.81,0L46.13,49.8a2.88,2.88,0,0,0,4.95-2,2.8,2.8,0,0,0-.81-2L36.53,32.1a1.27,1.27,0,0,1,0-1.8,1.29,1.29,0,0,1,1.82,0L52,43.8a5.29,5.29,0,0,1,0,7.6A5,5,0,0,1,48.15,53.1Z"/><path class="cls-1" d="M20.88,41.4h0A20.88,20.88,0,0,1,6.14,35.3a20.42,20.42,0,0,1,0-29.2,20.87,20.87,0,0,1,29.49,0,20.67,20.67,0,0,1,6,12.5,20.46,20.46,0,0,1-3.23,13.3,22.53,22.53,0,0,1-2.72,3.4,19,19,0,0,1-3.54,2.8A20.46,20.46,0,0,1,20.88,41.4Zm0-38.9a18.61,18.61,0,0,0-13,5.3,18,18,0,0,0,0,25.7,18.37,18.37,0,0,0,12.93,5.3h0a18.59,18.59,0,0,0,13-5.4,17.66,17.66,0,0,0,2.42-3A18.15,18.15,0,0,0,33.81,7.7,18.36,18.36,0,0,0,20.88,2.5Z"/><path class="cls-1" d="M30.07,12.9a1.24,1.24,0,0,1-.91-.4,11.78,11.78,0,0,0-16.56,0,1.29,1.29,0,0,1-1.82,0,1.27,1.27,0,0,1,0-1.8,14.25,14.25,0,0,1,20,0,1.27,1.27,0,0,1,0,1.8A.68.68,0,0,1,30.07,12.9Z"/></g></g></svg>