<?xml version="1.0" encoding="iso-8859-1"?>
<!-- Generator: Adobe Illustrator 19.0.0, SVG Export Plug-In . SVG Version: 6.00 Build 0)  -->
<svg version="1.1" id="Layer_1" xmlns="http://www.w3.org/2000/svg" xmlns:xlink="http://www.w3.org/1999/xlink" x="0px" y="0px"
	 viewBox="0 0 512 512" style="enable-background:new 0 0 512 512;" xml:space="preserve">
<g>
	<g>
		<path d="M496.327,48.543h-97.092c-7.014-27.855-32.268-48.54-62.271-48.54c-30.002,0-55.255,20.684-62.27,48.54H15.673
			C7.018,48.543,0,55.56,0,64.216S7.018,79.89,15.673,79.89h259.022c7.014,27.855,32.268,48.54,62.27,48.54
			s55.256-20.684,62.271-48.54h97.091c8.656,0,15.673-7.018,15.673-15.673S504.982,48.543,496.327,48.543z M336.964,97.083
			c-18.123,0-32.865-14.744-32.865-32.866c0-18.123,14.743-32.866,32.865-32.866c18.123,0,32.866,14.743,32.866,32.866
			C369.83,82.339,355.087,97.083,336.964,97.083z"/>
	</g>
</g>
<g>
	<g>
		<path d="M496.327,432.11h-97.092c-7.014-27.855-32.268-48.54-62.271-48.54c-30.002,0-55.255,20.684-62.27,48.54H15.673
			C7.018,432.11,0,439.128,0,447.784s7.018,15.673,15.673,15.673h259.022c7.014,27.855,32.268,48.54,62.27,48.54
			s55.256-20.684,62.271-48.54h97.091c8.656,0,15.673-7.018,15.673-15.673S504.982,432.11,496.327,432.11z M336.964,480.65
			c-18.123,0-32.865-14.743-32.865-32.866s14.742-32.866,32.865-32.866c18.123,0,32.866,14.743,32.866,32.866
			S355.087,480.65,336.964,480.65z"/>
	</g>
</g>
<g>
	<g>
		<path d="M496.327,240.33H237.305c-7.014-27.855-32.267-48.54-62.27-48.54c-30.002,0-55.256,20.684-62.271,48.54H15.673
			C7.018,240.33,0,247.347,0,256.003c0,8.656,7.018,15.673,15.673,15.673h97.092c7.014,27.855,32.269,48.54,62.271,48.54
			c30.002,0,55.255-20.684,62.27-48.54h259.021c8.656,0,15.673-7.018,15.673-15.673C512,247.347,504.982,240.33,496.327,240.33z
			 M175.036,288.869c-18.123,0-32.866-14.744-32.866-32.866c0-18.123,14.744-32.866,32.866-32.866
			c18.123,0,32.865,14.744,32.865,32.866C207.901,274.126,193.158,288.869,175.036,288.869z"/>
	</g>
</g>
<g>
</g>
<g>
</g>
<g>
</g>
<g>
</g>
<g>
</g>
<g>
</g>
<g>
</g>
<g>
</g>
<g>
</g>
<g>
</g>
<g>
</g>
<g>
</g>
<g>
</g>
<g>
</g>
<g>
</g>
</svg>
