<svg xmlns="http://www.w3.org/2000/svg" viewBox="0 0 1298.05 516.71"><defs><style>.cls-1{fill:#2c2c2c;}</style></defs><g id="Layer_2" data-name="Layer 2"><g id="Layer_1-2" data-name="Layer 1"><path class="cls-1" d="M27.22,17.58V84.51H18V1.84H30.16l25.6,70.74L81.29,1.84H93.57V84.51H84.35V17.58L60.14,84.51H51.37Z" transform="translate(-14.8 0)"/><path class="cls-1" d="M127.78,84.51A28.47,28.47,0,0,1,118.91,79a25.71,25.71,0,0,1-6.43-9.78,37.15,37.15,0,0,1-2.42-13.83,37.11,37.11,0,0,1,2.42-13.72,27.59,27.59,0,0,1,6.43-10,28.92,28.92,0,0,1,8.9-5.94,25.7,25.7,0,0,1,10.09-2.07,23.85,23.85,0,0,1,9.66,2,24.53,24.53,0,0,1,8.07,5.8,27.13,27.13,0,0,1,5.62,10,44,44,0,0,1,2.07,14v2h-44q.52,9.45,5.22,14.93t13.4,5.47q7,0,10.46-2.94a19.29,19.29,0,0,0,5.39-8.47l9.17,1.15q-2.31,9.28-9,14.1a26.7,26.7,0,0,1-16,4.81A27.55,27.55,0,0,1,127.78,84.51Zm26-35.17q-1.84-17.12-15.85-17.12-7.54,0-12.19,4.73a22.61,22.61,0,0,0-6,12.39Z" transform="translate(-14.8 0)"/><path class="cls-1" d="M193.41,84.71A22.65,22.65,0,0,1,185.63,80a26.11,26.11,0,0,1-5.3-7.06,34,34,0,0,1-3.12-8.76,48.51,48.51,0,0,1-1-9.92,38.05,38.05,0,0,1,3-15.51,25.23,25.23,0,0,1,9.34-11,26.72,26.72,0,0,1,15.07-4.17,20.12,20.12,0,0,1,11.42,3.14,17.25,17.25,0,0,1,6.74,8.44V1.84h8.59V84.51h-8.59V73.67a19.24,19.24,0,0,1-6.8,9.2,18.58,18.58,0,0,1-11.36,3.54A29.6,29.6,0,0,1,193.41,84.71ZM190.5,72a16.63,16.63,0,0,0,13.17,5.79,16,16,0,0,0,13-6.48q5.19-6.48,5.19-17,0-10.32-5.13-16.2a16.53,16.53,0,0,0-13-5.88q-8.29,0-13.25,5.22t-5,16.86Q185.46,66.18,190.5,72Z" transform="translate(-14.8 0)"/><path class="cls-1" d="M249.91,5.42h10.6V16h-10.6Zm.69,20.06h9.22v59H250.6Z" transform="translate(-14.8 0)"/><path class="cls-1" d="M311.88,33.49H275.27v-8h47.21l-.23,8-36.6,43h33.89v8H275.27v-8Z" transform="translate(-14.8 0)"/><path class="cls-1" d="M337.24,5.42h10.61V16H337.24Zm.69,20.06h9.22v59h-9.22Z" transform="translate(-14.8 0)"/><path class="cls-1" d="M392,32.22q-8,0-12.57,5.68t-4.56,17.9V84.51H365.6v-59h9.22V36.32a19.12,19.12,0,0,1,6.52-9.17A16.84,16.84,0,0,1,392,23.58a27.7,27.7,0,0,1,7,.8,19.34,19.34,0,0,1,5.25,2.11,13.93,13.93,0,0,1,3.72,3.31,19.31,19.31,0,0,1,2.5,4.12,22,22,0,0,1,1.44,4.85,45.08,45.08,0,0,1,.7,5.13c.11,1.59.17,3.37.17,5.33V84.51h-9.22V49.23Q403.48,32.22,392,32.22Z" transform="translate(-14.8 0)"/><path class="cls-1" d="M431.55,5.42h10.6V16h-10.6Zm.69,20.06h9.22v59h-9.22Z" transform="translate(-14.8 0)"/><path class="cls-1" d="M471.21,84.25a18.56,18.56,0,0,1-7.44-5.71,25.15,25.15,0,0,1-3.92-7.61,25.72,25.72,0,0,1-1.15-8.39l8.59-1.15A20.23,20.23,0,0,0,468.38,69a12.1,12.1,0,0,0,3.37,5.1,14.91,14.91,0,0,0,4.82,2.77,17.14,17.14,0,0,0,5.71.92,15.9,15.9,0,0,0,9.31-2.59A8.29,8.29,0,0,0,495.3,68a7.52,7.52,0,0,0-.46-2.71,10.51,10.51,0,0,0-1-2.07,5.77,5.77,0,0,0-1.88-1.64c-.86-.52-1.6-.94-2.22-1.24a15.33,15.33,0,0,0-2.85-1q-1.94-.52-3-.75l-3.34-.75Q472,56,468.27,54.19q-8-4-8-13.15,0-7,5.83-12.22t15-5.24a23.81,23.81,0,0,1,9.43,1.78A17.69,17.69,0,0,1,497.18,30a20.58,20.58,0,0,1,3.69,6.31A18.59,18.59,0,0,1,502,43.29L493.4,44.5a14.2,14.2,0,0,0-1-6.2,8.09,8.09,0,0,0-3.14-3.8,14.85,14.85,0,0,0-4-1.76,16.38,16.38,0,0,0-4.15-.52q-11.7,0-11.7,8.82a6.25,6.25,0,0,0,.43,2.39,4.45,4.45,0,0,0,1.5,1.88,22.9,22.9,0,0,0,2,1.38,12.7,12.7,0,0,0,2.82,1.15q1.88.58,3.06.87l3.54.86a70,70,0,0,1,12,3.46q9.73,4.56,9.74,14.93a15.67,15.67,0,0,1-.72,4.56,18,18,0,0,1-2.45,4.87,22,22,0,0,1-4.18,4.5,19.74,19.74,0,0,1-6.34,3.25,27.4,27.4,0,0,1-8.56,1.27A26.67,26.67,0,0,1,471.21,84.25Z" transform="translate(-14.8 0)"/><path class="cls-1" d="M534,84.51A28.47,28.47,0,0,1,525.14,79a25.71,25.71,0,0,1-6.43-9.78,37.15,37.15,0,0,1-2.42-13.83,38.27,38.27,0,0,1,2.42-14,26.72,26.72,0,0,1,6.43-10A28.77,28.77,0,0,1,534,25.56a26.64,26.64,0,0,1,10.12-2,27.8,27.8,0,0,1,8.73,1.35,25.52,25.52,0,0,1,7.7,4.12,23.24,23.24,0,0,1,6.08,7.38,33.32,33.32,0,0,1,3.49,10.67l-9.22,1.15q-3.28-16-16.78-16a17.76,17.76,0,0,0-8.21,1.85,15.85,15.85,0,0,0-5.86,5,24,24,0,0,0-3.4,7.29,32.38,32.38,0,0,0-1.15,8.82q0,10.38,4.73,16.46t13.89,6.08q7.26,0,11.27-4t5.51-11.38l9.22,1.21a31.81,31.81,0,0,1-3.49,10.43,22.06,22.06,0,0,1-6.08,7.15,25.15,25.15,0,0,1-7.7,3.92,29.3,29.3,0,0,1-8.73,1.27A27.55,27.55,0,0,1,534,84.51Z" transform="translate(-14.8 0)"/><path class="cls-1" d="M613,32.22q-8,0-12.57,5.68t-4.55,17.9V84.51h-9.23V1.84h9.23V36.32a19.16,19.16,0,0,1,6.51-9.17A16.86,16.86,0,0,1,613,23.58a27.7,27.7,0,0,1,7,.8,19.34,19.34,0,0,1,5.25,2.11,13.93,13.93,0,0,1,3.72,3.31,19.37,19.37,0,0,1,2.51,4.12,23.15,23.15,0,0,1,1.44,4.85,47.3,47.3,0,0,1,.69,5.13c.12,1.59.17,3.37.17,5.33V84.51h-9.22V49.23Q624.49,32.22,613,32.22Z" transform="translate(-14.8 0)"/><path class="cls-1" d="M667.92,84.51A28.47,28.47,0,0,1,659.05,79a25.83,25.83,0,0,1-6.43-9.78,37.15,37.15,0,0,1-2.42-13.83,37.11,37.11,0,0,1,2.42-13.72,27.72,27.72,0,0,1,6.43-10,29,29,0,0,1,8.9-5.94A25.7,25.7,0,0,1,678,23.58a23.85,23.85,0,0,1,9.66,2,24.42,24.42,0,0,1,8.07,5.8,27,27,0,0,1,5.62,10,44,44,0,0,1,2.07,14v2h-44q.52,9.45,5.22,14.93T678,77.76q7,0,10.46-2.94a19.39,19.39,0,0,0,5.4-8.47l9.16,1.15q-2.31,9.28-9,14.1a26.7,26.7,0,0,1-16,4.81A27.55,27.55,0,0,1,667.92,84.51Zm26-35.17Q692.06,32.22,678,32.22q-7.54,0-12.19,4.73a22.75,22.75,0,0,0-6,12.39Z" transform="translate(-14.8 0)"/><path class="cls-1" d="M730.1,84.25a18.56,18.56,0,0,1-7.44-5.71,24.93,24.93,0,0,1-3.92-7.61,25.45,25.45,0,0,1-1.15-8.39l8.59-1.15A20,20,0,0,0,727.27,69a12.1,12.1,0,0,0,3.37,5.1,14.81,14.81,0,0,0,4.82,2.77,17.08,17.08,0,0,0,5.7.92,15.86,15.86,0,0,0,9.31-2.59A8.3,8.3,0,0,0,754.19,68a7.52,7.52,0,0,0-.46-2.71,10.51,10.51,0,0,0-1-2.07,5.72,5.72,0,0,0-1.87-1.64c-.86-.52-1.61-.94-2.22-1.24a15.61,15.61,0,0,0-2.85-1q-1.93-.52-3-.75l-3.35-.75q-8.58-1.78-12.27-3.63-8-4-8-13.15,0-7,5.82-12.22t15-5.24a23.81,23.81,0,0,1,9.43,1.78A17.69,17.69,0,0,1,756.07,30a20.35,20.35,0,0,1,3.68,6.31,18.4,18.4,0,0,1,1.13,6.95l-8.59,1.21a14.2,14.2,0,0,0-1-6.2,8.15,8.15,0,0,0-3.14-3.8,15,15,0,0,0-4-1.76,16.44,16.44,0,0,0-4.15-.52q-11.7,0-11.7,8.82a6.25,6.25,0,0,0,.43,2.39,4.45,4.45,0,0,0,1.5,1.88,21.51,21.51,0,0,0,2,1.38,12.5,12.5,0,0,0,2.82,1.15q1.88.58,3.06.87l3.54.86a69.82,69.82,0,0,1,12,3.46q9.75,4.56,9.75,14.93a15.67,15.67,0,0,1-.72,4.56,18.24,18.24,0,0,1-2.45,4.87,22,22,0,0,1-4.18,4.5,19.69,19.69,0,0,1-6.35,3.25,27.31,27.31,0,0,1-8.56,1.27A26.62,26.62,0,0,1,730.1,84.25Z" transform="translate(-14.8 0)"/><path class="cls-1" d="M834,84.8a35.66,35.66,0,0,1-10.29-5,37.4,37.4,0,0,1-8.59-8.36,38.79,38.79,0,0,1-5.86-12.07,54.08,54.08,0,0,1-2.16-15.68,54.91,54.91,0,0,1,2.16-15.77,40.26,40.26,0,0,1,5.86-12.28A39.46,39.46,0,0,1,823.66,7,35.35,35.35,0,0,1,834,1.7,37.57,37.57,0,0,1,857.12,2a35.26,35.26,0,0,1,10.64,5.85,33.44,33.44,0,0,1,8.41,10.29,45.71,45.71,0,0,1,4.9,14.7l-9.45,1.32a45,45,0,0,0-3.29-9.91,32.52,32.52,0,0,0-5.36-8,22.25,22.25,0,0,0-7.81-5.51A25.61,25.61,0,0,0,845,8.7a26.22,26.22,0,0,0-12.28,2.88,25.9,25.9,0,0,0-9.08,7.76,37.72,37.72,0,0,0-5.47,11.1,43.81,43.81,0,0,0-1.93,13.08,46.58,46.58,0,0,0,1.9,13.63A32.93,32.93,0,0,0,823.66,68a24.54,24.54,0,0,0,9.07,7.18A28.57,28.57,0,0,0,845,77.76q11.13,0,17.79-6.63T871.73,53l9.34,1.21a44.86,44.86,0,0,1-4.81,14.58,31.65,31.65,0,0,1-8.45,10.12,35.93,35.93,0,0,1-10.69,5.65A39.49,39.49,0,0,1,834,84.8Z" transform="translate(-14.8 0)"/><path class="cls-1" d="M898,60.76a18.68,18.68,0,0,1,3.46-5,17.9,17.9,0,0,1,5.82-3.34,49.18,49.18,0,0,1,5.94-2c1.28-.31,3.49-.79,6.6-1.44a.38.38,0,0,1,.17-.06c5-1,8-1.73,9-2.07q4.79-1.68,4.73-5a9.88,9.88,0,0,0-.92-3.46q-2.94-6.11-12.63-6.11a22,22,0,0,0-6.74.92,11.78,11.78,0,0,0-4.18,2.14,8,8,0,0,0-2.11,3,12.23,12.23,0,0,0-.89,2.85,17.38,17.38,0,0,0-.14,2.39V44L897,42.83c0-.65,0-1.3.06-1.93a21.11,21.11,0,0,1,.52-3,17.7,17.7,0,0,1,1.29-3.78,18.73,18.73,0,0,1,2.57-3.77,16.07,16.07,0,0,1,4.09-3.46,22.94,22.94,0,0,1,6.17-2.36,35,35,0,0,1,8.53-1,34.44,34.44,0,0,1,8.53,1,25.56,25.56,0,0,1,6.17,2.3A12.1,12.1,0,0,1,939,30.69a27.11,27.11,0,0,1,2.57,4.56,21.66,21.66,0,0,1,1.3,5.53c.28,2.33.46,4.23.51,5.71s.09,3.49.09,6v32h-8.65V71.77a21.5,21.5,0,0,1-7,10.63,17.75,17.75,0,0,1-11.53,4q-9,0-14.5-4.67t-5.45-13.66A15.84,15.84,0,0,1,898,60.76Zm36.86-11.07q-3.45,4.22-12.51,6A58.56,58.56,0,0,0,916,57.21a28,28,0,0,0-5.21,2.25A10.26,10.26,0,0,0,906.89,63a9.47,9.47,0,0,0-1.32,5,8.76,8.76,0,0,0,3.08,7.15,11.63,11.63,0,0,0,7.64,2.53,17.9,17.9,0,0,0,12.86-5.39,18.69,18.69,0,0,0,4.15-6.89,27.91,27.91,0,0,0,1.55-9.56V49.69Z" transform="translate(-14.8 0)"/><path class="cls-1" d="M991.06,32.22q-8,0-12.57,5.68t-4.55,17.9V84.51h-9.23v-59h9.23V36.32a19.16,19.16,0,0,1,6.51-9.17,16.86,16.86,0,0,1,10.61-3.57,27.7,27.7,0,0,1,7,.8,19.34,19.34,0,0,1,5.25,2.11A13.93,13.93,0,0,1,1007,29.8a19.79,19.79,0,0,1,2.51,4.12,23.15,23.15,0,0,1,1.44,4.85,47.3,47.3,0,0,1,.69,5.13c.11,1.59.17,3.37.17,5.33V84.51h-9.22V49.23Q1002.59,32.22,991.06,32.22Z" transform="translate(-14.8 0)"/><path class="cls-1" d="M1059.37,32.22q-8,0-12.57,5.68t-4.55,17.9V84.51H1033v-59h9.23V36.32a19.16,19.16,0,0,1,6.51-9.17,16.86,16.86,0,0,1,10.61-3.57,27.7,27.7,0,0,1,7,.8,19.34,19.34,0,0,1,5.25,2.11,13.93,13.93,0,0,1,3.72,3.31,19.37,19.37,0,0,1,2.51,4.12,23.15,23.15,0,0,1,1.44,4.85,47.3,47.3,0,0,1,.69,5.13c.11,1.59.17,3.37.17,5.33V84.51h-9.22V49.23Q1070.9,32.22,1059.37,32.22Z" transform="translate(-14.8 0)"/><path class="cls-1" d="M1099.4,60.76a18.91,18.91,0,0,1,3.46-5,17.9,17.9,0,0,1,5.82-3.34,49.78,49.78,0,0,1,5.94-2q1.94-.47,6.6-1.44a.46.46,0,0,1,.18-.06q7.49-1.56,9-2.07,4.79-1.68,4.72-5a9.66,9.66,0,0,0-.92-3.46q-2.94-6.11-12.62-6.11a22,22,0,0,0-6.75.92,12,12,0,0,0-4.18,2.14,8.13,8.13,0,0,0-2.1,3,12.35,12.35,0,0,0-.9,2.85,19.11,19.11,0,0,0-.14,2.39V44l-9.17-1.21c0-.65,0-1.3.06-1.93a21.11,21.11,0,0,1,.52-3,17.72,17.72,0,0,1,1.3-3.78,18.64,18.64,0,0,1,2.56-3.77,16.12,16.12,0,0,1,4.1-3.46,22.86,22.86,0,0,1,6.16-2.36,35,35,0,0,1,8.54-1,34.5,34.5,0,0,1,8.53,1,25.72,25.72,0,0,1,6.17,2.3,12.29,12.29,0,0,1,4.12,3.86,27,27,0,0,1,2.56,4.56,21.24,21.24,0,0,1,1.3,5.53q.43,3.49.52,5.71t.09,6v32h-8.65V71.77a21.56,21.56,0,0,1-7,10.63,17.77,17.77,0,0,1-11.53,4q-9.06,0-14.5-4.67t-5.45-13.66A16,16,0,0,1,1099.4,60.76Zm36.87-11.07q-3.46,4.22-12.51,6a58.56,58.56,0,0,0-6.37,1.52,27.79,27.79,0,0,0-5.22,2.25,10.15,10.15,0,0,0-3.86,3.58,9.48,9.48,0,0,0-1.33,5,8.74,8.74,0,0,0,3.09,7.15,11.61,11.61,0,0,0,7.64,2.53,17.9,17.9,0,0,0,12.85-5.39,18.69,18.69,0,0,0,4.15-6.89,27.66,27.66,0,0,0,1.56-9.56V49.69Z" transform="translate(-14.8 0)"/><path class="cls-1" d="M1179.19,82.87a19.25,19.25,0,0,1-6.84-9.2V84.51h-8.59V1.84h8.59V35.16a17.27,17.27,0,0,1,6.78-8.44,20.23,20.23,0,0,1,11.44-3.14,26.6,26.6,0,0,1,15,4.17,25.3,25.3,0,0,1,9.31,11,38.22,38.22,0,0,1,3,15.51,47.82,47.82,0,0,1-1,9.92,33.93,33.93,0,0,1-3.11,8.76,26.43,26.43,0,0,1-5.27,7.06,22.37,22.37,0,0,1-7.76,4.67,29.52,29.52,0,0,1-10.26,1.7A18.66,18.66,0,0,1,1179.19,82.87Zm-1.62-11.59a16.06,16.06,0,0,0,13,6.48A16.54,16.54,0,0,0,1203.71,72q5-5.79,5-17.67a34.75,34.75,0,0,0-1.38-10.38,16.51,16.51,0,0,0-3.92-6.88,15.5,15.5,0,0,0-5.71-3.66,20.78,20.78,0,0,0-7.15-1.16,16.63,16.63,0,0,0-13.06,5.88q-5.16,5.88-5.16,16.2Q1172.35,64.8,1177.57,71.28Z" transform="translate(-14.8 0)"/><path class="cls-1" d="M1233.29,5.42h10.6V16h-10.6Zm.69,20.06h9.22v59H1234Z" transform="translate(-14.8 0)"/><path class="cls-1" d="M1273,84.25a18.56,18.56,0,0,1-7.44-5.71,24.93,24.93,0,0,1-3.92-7.61,25.45,25.45,0,0,1-1.15-8.39l8.59-1.15a20,20,0,0,0,1.09,7.58,12.1,12.1,0,0,0,3.37,5.1,14.81,14.81,0,0,0,4.82,2.77,17.12,17.12,0,0,0,5.7.92,15.86,15.86,0,0,0,9.31-2.59A8.3,8.3,0,0,0,1297,68a7.52,7.52,0,0,0-.46-2.71,10.51,10.51,0,0,0-1-2.07,5.62,5.62,0,0,0-1.87-1.64c-.86-.52-1.6-.94-2.22-1.24a15.61,15.61,0,0,0-2.85-1q-1.93-.52-3-.75l-3.34-.75Q1273.7,56,1270,54.19q-8-4-8-13.15,0-7,5.83-12.22t15-5.24a23.81,23.81,0,0,1,9.43,1.78,17.69,17.69,0,0,1,6.63,4.67,20.58,20.58,0,0,1,3.69,6.31,18.59,18.59,0,0,1,1.12,6.95l-8.59,1.21a14.2,14.2,0,0,0-1-6.2,8.15,8.15,0,0,0-3.14-3.8,15,15,0,0,0-4-1.76,16.38,16.38,0,0,0-4.15-.52q-11.7,0-11.7,8.82a6.25,6.25,0,0,0,.43,2.39,4.45,4.45,0,0,0,1.5,1.88,21.51,21.51,0,0,0,2,1.38,12.5,12.5,0,0,0,2.82,1.15q1.88.58,3.06.87l3.54.86a69.54,69.54,0,0,1,12,3.46q9.75,4.56,9.75,14.93a15.67,15.67,0,0,1-.72,4.56,18,18,0,0,1-2.45,4.87,22,22,0,0,1-4.18,4.5,19.74,19.74,0,0,1-6.34,3.25,27.42,27.42,0,0,1-8.57,1.27A26.65,26.65,0,0,1,1273,84.25Z" transform="translate(-14.8 0)"/><path class="cls-1" d="M28.32,284.62H14.8V150.14H99.21v12.79H28.32V210.8H93.18v12.79H28.32Z" transform="translate(-14.8 0)"/><path class="cls-1" d="M115.3,247.89V192.17h13.15v54.08c0,19.91,7.13,28.14,23.57,28.14,17.91,0,28.69-13,28.69-34.54V192.17h13.15v92.45H180.52V273.47a37,37,0,0,1-28.68,13.34C127.72,286.81,115.3,273.47,115.3,247.89ZM129.91,167A10.07,10.07,0,0,1,140,156.72,10.42,10.42,0,0,1,150,167a10,10,0,0,1-10,9.87A10.11,10.11,0,0,1,129.91,167ZM154,167a10.07,10.07,0,0,1,10.05-10.23,10.42,10.42,0,0,1,10,10.23,10,10,0,0,1-10,9.87A10.11,10.11,0,0,1,154,167Z" transform="translate(-14.8 0)"/><path class="cls-1" d="M231.14,284.62H218V192.17h13.33v11A37.25,37.25,0,0,1,261.84,190V202.4c-19-.73-30.7,12.24-30.7,34.53Z" transform="translate(-14.8 0)"/><path class="cls-1" d="M323.23,238C323.6,209,340.59,190,366.54,190c26.12,0,43.3,19.19,43.3,48.06v3.1L336,241c.92,20.46,13,33.62,30.52,33.62,13.33-.18,24.3-8,27.58-20.1h13.16c-3.84,19.37-20.46,32.34-40.74,32.34C340.59,286.81,323.6,267.62,323.23,238Zm72.9-8.59c-2.74-16.81-14.06-27.23-29.59-27.23-15.35,0-26.86,10.42-29.6,27Z" transform="translate(-14.8 0)"/><path class="cls-1" d="M424.64,160.19A10.07,10.07,0,0,1,434.69,150a10.42,10.42,0,0,1,10.05,10.23,10,10,0,0,1-10.05,9.87A10.11,10.11,0,0,1,424.64,160.19Zm16.63,124.43H428.12V192.17h13.15Z" transform="translate(-14.8 0)"/><path class="cls-1" d="M478.91,284.62H465.76V192.17h13.33v11.14A37,37,0,0,1,507.78,190c24.12,0,36.54,13.34,36.54,38.92v55.73H531.17V230.53c0-19.91-7.13-28.13-23.57-28.13-17.91,0-28.69,13-28.69,34.53Z" transform="translate(-14.8 0)"/><path class="cls-1" d="M561.14,238C561.5,209,578.49,190,604.44,190c26.13,0,43.3,19.19,43.3,48.06v3.1L573.93,241c.91,20.46,13,33.62,30.51,33.62,13.34-.18,24.3-8,27.59-20.1h13.15c-3.83,19.37-20.46,32.34-40.74,32.34C578.49,286.81,561.5,267.62,561.14,238Zm72.9-8.59c-2.74-16.81-14.07-27.23-29.6-27.23-15.35,0-26.86,10.42-29.6,27Z" transform="translate(-14.8 0)"/><path class="cls-1" d="M806.16,238.39c0,29.05-17,48.42-42.75,48.42-13.53,0-24.67-5.3-32-15.17v13H718.64V150.14H731.8v54.63c6.94-9.68,17.9-14.8,31.61-14.8C789.17,190,806.16,209.34,806.16,238.39Zm-13.34,0c0-22.11-11.69-36-30.33-36-18.45,0-30.51,14.07-30.51,36,0,22.11,11.88,36,30.51,36S792.82,260.5,792.82,238.39Z" transform="translate(-14.8 0)"/><path class="cls-1" d="M817.86,238C818.23,209,835.22,190,861.16,190c26.13,0,43.3,19.19,43.3,48.06v3.1L830.65,241c.91,20.46,13,33.62,30.51,33.62,13.34-.18,24.3-8,27.59-20.1h13.16c-3.84,19.37-20.47,32.34-40.75,32.34C835.22,286.81,818.23,267.62,817.86,238Zm72.9-8.59c-2.74-16.81-14.07-27.23-29.6-27.23-15.35,0-26.86,10.42-29.6,27Z" transform="translate(-14.8 0)"/><path class="cls-1" d="M914.88,256.11h13c-.92,11.33,6.21,18.28,19.55,18.28,13.7,0,21.56-5.67,21.56-15,0-7.31-3.47-10.78-13.89-13.52l-14.8-3.83c-15.16-3.84-23.75-13-23.75-25.4,0-15.9,13.15-26.68,32.52-26.68,20.1,0,32.71,11.7,32.34,30.33h-13c.36-11.32-6.58-17.9-19.37-17.9s-19.37,4.93-19.37,14.25c0,6.58,4.57,11,14.07,13.15l14.62,3.84c16.26,4.2,23.75,12.24,23.75,25.76,0,16.45-13.88,27.41-34.35,27.41C926.94,286.81,914,274.75,914.88,256.11Z" transform="translate(-14.8 0)"/><path class="cls-1" d="M993.27,256.11h13c-.92,11.33,6.21,18.28,19.54,18.28,13.71,0,21.56-5.67,21.56-15,0-7.31-3.47-10.78-13.88-13.52l-14.8-3.83c-15.17-3.84-23.75-13-23.75-25.4,0-15.9,13.15-26.68,32.52-26.68,20.1,0,32.7,11.7,32.34,30.33h-13c.36-11.32-6.58-17.9-19.37-17.9s-19.37,4.93-19.37,14.25c0,6.58,4.57,11,14.07,13.15l14.62,3.84c16.26,4.2,23.75,12.24,23.75,25.76,0,16.45-13.89,27.41-34.35,27.41C1005.33,286.81,992.36,274.75,993.27,256.11Z" transform="translate(-14.8 0)"/><path class="cls-1" d="M1072.94,238c.36-29.05,17.36-48.06,43.3-48.06,26.13,0,43.3,19.19,43.3,48.06v3.1l-73.81-.18c.91,20.46,13,33.62,30.51,33.62,13.34-.18,24.3-8,27.59-20.1H1157c-3.84,19.37-20.47,32.34-40.75,32.34C1090.3,286.81,1073.3,267.62,1072.94,238Zm72.9-8.59c-2.74-16.81-14.07-27.23-29.6-27.23-15.35,0-26.86,10.42-29.6,27Z" transform="translate(-14.8 0)"/><path class="cls-1" d="M1190.61,284.62h-13.15V192.17h13.33v11A37.25,37.25,0,0,1,1221.31,190V202.4c-19-.73-30.7,12.24-30.7,34.53Z" transform="translate(-14.8 0)"/><path class="cls-1" d="M1226.24,238c.37-29.05,17.36-48.06,43.3-48.06,26.13,0,43.31,19.19,43.31,48.06v3.1L1239,241c.92,20.46,13,33.62,30.51,33.62,13.34-.18,24.3-8,27.59-20.1h13.16c-3.84,19.37-20.46,32.34-40.75,32.34C1243.6,286.81,1226.61,267.62,1226.24,238Zm72.9-8.59c-2.74-16.81-14.07-27.23-29.6-27.23-15.34,0-26.85,10.42-29.59,27Z" transform="translate(-14.8 0)"/><path class="cls-1" d="M99.39,479.62H14.8V345.14H28.32V466.83H99.39Z" transform="translate(-14.8 0)"/><path class="cls-1" d="M106.16,433c.37-29,17.36-48.06,43.3-48.06,26.13,0,43.3,19.19,43.3,48.06v3.1L119,436c.91,20.46,13,33.62,30.51,33.62,13.34-.18,24.3-8,27.59-20.1h13.16c-3.84,19.37-20.47,32.34-40.75,32.34C123.52,481.81,106.53,462.62,106.16,433Zm72.9-8.59c-2.74-16.81-14.07-27.23-29.6-27.23-15.34,0-26.86,10.42-29.6,27.05Z" transform="translate(-14.8 0)"/><path class="cls-1" d="M298.19,433.39c0,29.05-17,48.42-42.75,48.42-13.52,0-24.66-5.3-32-15.17v13H210.68V345.14h13.15v54.63c6.95-9.68,17.91-14.8,31.61-14.8C281.2,385,298.19,404.34,298.19,433.39Zm-13.33,0c0-22.11-11.7-36-30.33-36-18.46,0-30.52,14.07-30.52,36,0,22.11,11.88,36,30.52,36S284.86,455.5,284.86,433.39Z" transform="translate(-14.8 0)"/><path class="cls-1" d="M309.89,433c.37-29,17.36-48.06,43.31-48.06,26.12,0,43.3,19.19,43.3,48.06v3.1L322.68,436c.92,20.46,13,33.62,30.52,33.62,13.33-.18,24.3-8,27.59-20.1h13.15c-3.84,19.37-20.46,32.34-40.74,32.34C327.25,481.81,310.26,462.62,309.89,433Zm72.9-8.59c-2.74-16.81-14.06-27.23-29.59-27.23-15.35,0-26.86,10.42-29.6,27.05Z" transform="translate(-14.8 0)"/><path class="cls-1" d="M427.57,479.62H414.41V387.17h13.34v11.14A37,37,0,0,1,456.43,385c24.12,0,36.55,13.34,36.55,38.92v55.73H479.82V425.53c0-19.91-7.12-28.13-23.57-28.13-17.9,0-28.68,13-28.68,34.53Z" transform="translate(-14.8 0)"/><path class="cls-1" d="M507.42,451.11h13c-.91,11.33,6.21,18.28,19.55,18.28,13.7,0,21.56-5.67,21.56-15,0-7.31-3.47-10.78-13.89-13.52l-14.8-3.83c-15.16-3.84-23.75-13-23.75-25.4,0-15.9,13.16-26.68,32.52-26.68,20.1,0,32.71,11.7,32.34,30.33H561c.37-11.32-6.58-17.9-19.37-17.9s-19.36,4.93-19.36,14.25c0,6.58,4.56,11,14.07,13.15l14.61,3.84c16.26,4.2,23.75,12.24,23.75,25.76,0,16.45-13.88,27.41-34.35,27.41C519.48,481.81,506.5,469.75,507.42,451.11Z" transform="translate(-14.8 0)"/><path class="cls-1" d="M661.81,387.17H674.6V516.71H661.45V467c-7,9.68-17.91,14.8-31.61,14.8-25.76,0-42.76-19.37-42.76-48.42s17-48.42,42.76-48.42c13.52,0,24.66,5.3,32,15.17Zm-.55,46.22c0-22.11-11.87-36-30.51-36s-30.33,13.88-30.33,36,11.69,36,30.33,36C649.2,469.39,661.26,455.32,661.26,433.39Z" transform="translate(-14.8 0)"/><path class="cls-1" d="M697.63,442.89V387.17h13.15v54.08c0,19.91,7.13,28.14,23.57,28.14,17.91,0,28.69-13,28.69-34.54V387.17h13.15v92.45H762.86V468.47a37,37,0,0,1-28.69,13.34C710.05,481.81,697.63,468.47,697.63,442.89Z" transform="translate(-14.8 0)"/><path class="cls-1" d="M795.75,454c0-17,12.42-27.59,35.08-30.15l16.08-1.83c6.21-.73,9.87-1.82,11.88-3.29-.37-14.25-8-21.37-23.21-21.37-15.89,0-24.48,7.67-23.57,20.46H798.86c-1.46-19.55,13.7-32.89,36.9-32.89,22.84,0,36.18,12.61,36.18,34.17v60.48H858.79v-11c-7.13,8.41-18.09,13.16-31.07,13.16C808.36,481.81,795.75,470.85,795.75,454Zm63-18.64v-4c-7.13,1.83-18.64,3.11-26.86,3.84-15.17,2-23,8.4-23,18.63,0,10,7.12,15.72,19.91,15.72C847.27,469.57,858.79,456.6,858.79,435.4Z" transform="translate(-14.8 0)"/><path class="cls-1" d="M908.67,479.62H895.52V345.14h13.15Z" transform="translate(-14.8 0)"/><path class="cls-1" d="M930.23,355.19a10.07,10.07,0,0,1,10-10.23,10.42,10.42,0,0,1,10.05,10.23,10,10,0,0,1-10.05,9.87A10.11,10.11,0,0,1,930.23,355.19Zm16.63,124.43H933.71V387.17h13.15Z" transform="translate(-14.8 0)"/><path class="cls-1" d="M1004.78,479.62c-18.09,0-25.58-7.13-25.58-24.3V399.23H961.48V387.17H979.2V359.39h13.16v27.78h17.72v12.06H992.36v56.09c0,12.06,3.65,13,21.19,12.24v11.69Z" transform="translate(-14.8 0)"/><path class="cls-1" d="M1021.78,454c0-17,12.42-27.59,35.08-30.15l16.08-1.83c6.21-.73,9.86-1.82,11.87-3.29-.36-14.25-8-21.37-23.2-21.37-15.9,0-24.49,7.67-23.57,20.46h-13.16c-1.46-19.55,13.71-32.89,36.91-32.89,22.84,0,36.18,12.61,36.18,34.17v60.48h-13.16v-11c-7.12,8.41-18.09,13.16-31.06,13.16C1034.38,481.81,1021.78,470.85,1021.78,454Zm63-18.64v-4c-7.12,1.83-18.63,3.11-26.86,3.84-15.16,2-23,8.4-23,18.63,0,10,7.13,15.72,19.92,15.72C1073.3,469.57,1084.81,456.6,1084.81,435.4ZM1040,367.07a10.05,10.05,0,0,1,10-10.23,10.42,10.42,0,0,1,10,10.23,10,10,0,0,1-10,9.86A10.09,10.09,0,0,1,1040,367.07Zm24.11,0a10.06,10.06,0,0,1,10-10.23,10.42,10.42,0,0,1,10.05,10.23,10,10,0,0,1-10.05,9.86A10.1,10.1,0,0,1,1064.07,367.07Z" transform="translate(-14.8 0)"/><path class="cls-1" d="M1152.79,479.62c-18.09,0-25.58-7.13-25.58-24.3V399.23h-17.73V387.17h17.73V359.39h13.15v27.78h17.72v12.06h-17.72v56.09c0,12.06,3.66,13,21.2,12.24v11.69Z" transform="translate(-14.8 0)"/></g></g></svg>