<?xml version="1.0" encoding="utf-8"?>
<svg id="Layer_3" height="512" viewBox="0 0 32 32" width="512" data-name="Layer 3" xmlns="http://www.w3.org/2000/svg">
  <path style="stroke: rgb(254,200,75); stroke-width: 0px; fill: rgb(255, 255, 255);" d="M -0.002 0.001 L 32.003 0.004 L 32.004 12.85 L 21.164 10.661 L 17.112 3.672 L 14.262 3.337 L 11.209 10.356 L 2.961 12.091 L 2.666 14.26 L 0.004 14.702"/>
  <path style="stroke: rgb(254,200,75); stroke-width: 0px; fill: rgb(255, 255, 255);" d="M 32.004 32.021 L 31.998 12.161 L 29.357 12.253 L 24.094 19.557 L 24.713 28.195 L 22.872 28.946 L 16.321 25.287 L 8.648 28.728 L 6.917 27.862 L 0 32 C 10.687 32.04 21.383 31.997 32.004 32.021 Z"/>
  <path style="stroke: rgb(254,200,75); stroke-width: 0px; fill: rgb(255, 255, 255);" d="M -0.001 14.199 L 3.321 14.12 L 8.512 19.757 L 7.578 27.864 L 1.364 31.514 L 0 32 L -0.001 14.199 Z"/>
  <path style="stroke: rgb(254,200,75); fill: rgb(254,200,75)" d="M 23.517 29.696 C 23.137 29.696 22.763 29.603 22.428 29.426 L 16.195 26.15 C 16.097 26.097 15.979 26.097 15.881 26.15 L 9.649 29.426 C 8.056 30.264 6.153 29.064 6.224 27.265 C 6.228 27.163 6.238 27.061 6.256 26.961 L 7.446 20.022 C 7.464 19.911 7.427 19.799 7.346 19.722 L 2.308 14.805 C 1.019 13.549 1.573 11.368 3.305 10.88 C 3.404 10.852 3.505 10.83 3.608 10.816 L 10.571 9.805 C 10.681 9.789 10.776 9.72 10.825 9.62 L 13.938 3.305 C 14.733 1.691 16.977 1.543 17.977 3.038 C 18.034 3.123 18.085 3.213 18.131 3.305 L 21.246 9.618 C 21.295 9.717 21.39 9.786 21.5 9.803 L 28.469 10.815 C 30.251 11.072 31.087 13.161 29.973 14.576 C 29.91 14.657 29.842 14.732 29.769 14.804 L 24.726 19.718 C 24.645 19.795 24.608 19.907 24.626 20.018 L 25.816 26.957 C 26.059 28.383 24.963 29.687 23.516 29.692 L 23.517 29.696 Z M 16.038 24.11 C 16.417 24.11 16.791 24.202 17.126 24.38 L 23.358 27.655 C 23.471 27.719 23.611 27.709 23.714 27.63 C 23.821 27.556 23.874 27.426 23.849 27.299 L 22.658 20.359 C 22.529 19.601 22.78 18.827 23.33 18.29 L 28.373 13.375 C 28.559 13.193 28.478 12.878 28.227 12.808 C 28.213 12.804 28.199 12.801 28.185 12.799 L 21.217 11.786 C 20.455 11.675 19.797 11.197 19.457 10.507 L 16.338 4.193 C 16.222 3.959 15.898 3.939 15.754 4.155 C 15.745 4.167 15.738 4.18 15.732 4.193 L 12.619 10.505 C 12.278 11.195 11.62 11.674 10.858 11.784 L 3.891 12.799 C 3.634 12.835 3.513 13.136 3.673 13.34 C 3.682 13.352 3.693 13.364 3.704 13.375 L 8.746 18.29 C 9.296 18.827 9.547 19.601 9.418 20.359 L 8.227 27.299 C 8.182 27.555 8.432 27.763 8.676 27.674 C 8.691 27.668 8.705 27.662 8.719 27.655 L 14.95 24.379 C 15.285 24.202 15.659 24.11 16.038 24.11 Z"/>
</svg>