<?xml version="1.0" encoding="UTF-8"?>
<svg id="Layer_2" data-name="Layer 2" xmlns="http://www.w3.org/2000/svg" viewBox="0 0 23.18 22.24">
  <defs>
    <style>
      .cls-1 {
        fill: #fec84b;
        stroke-width: 0px;
      }
    </style>
  </defs>
  <g id="desktop">
    <path class="cls-1" d="M17.6,22.23c-.31,0-.6-.07-.87-.22l-5-2.63c-.08-.04-.17-.04-.25,0l-5,2.63c-1.28.67-2.81-.29-2.75-1.73,0-.08.01-.16.03-.24l.96-5.57c.02-.09-.02-.18-.08-.24L.57,10.28C-.47,9.27-.02,7.52,1.37,7.13c.08-.02.16-.04.24-.05l5.59-.81c.09-.01.16-.07.2-.15l2.5-5.07c.64-1.3,2.44-1.41,3.24-.21.05.07.09.14.12.21l2.5,5.07c.04.08.12.14.2.15l5.59.81c1.43.21,2.1,1.88,1.21,3.02-.05.06-.11.13-.16.18l-4.05,3.95c-.07.06-.09.15-.08.24l.96,5.57c.2,1.15-.68,2.19-1.85,2.2h0Z"/>
  </g>
</svg>