<?xml version="1.0" encoding="UTF-8"?>
<svg id="Layer_2" data-name="Layer 2" xmlns="http://www.w3.org/2000/svg" viewBox="0 0 84.03 47.32">
  <defs>
    <style>
      .cls-1 {
        fill: #2c2c2c;
        stroke-width: 0px;
      }
    </style>
  </defs>
  <g id="desktop">
    <g id="icon">
      <g>
        <path class="cls-1" d="M80.69,27.84c-.84-.84-1.81-1.54-2.86-2.09,0-.18.01-.36.01-.55,0-7.51-6.11-13.63-13.62-13.63-1.7,0-3.38.32-4.94.93C57.01,5.14,50.19,0,42.28,0c-4.05,0-8.01,1.4-11.16,3.94-2.6,2.1-4.56,4.9-5.65,8.02-1.03-.25-2.1-.37-3.18-.37-5.92,0-11.1,3.78-12.93,9.32C3.8,22.7,0,27.86,0,33.79c0,3.62,1.41,7.01,3.97,9.57,1.73,1.73,3.87,2.95,6.21,3.54.31.26.71.42,1.15.42h21.23v-3.55H12.16c-.15-.08-.32-.14-.5-.18-1.97-.37-3.76-1.32-5.18-2.75-1.89-1.89-2.93-4.4-2.93-7.06,0-4.64,3.15-8.64,7.65-9.72.64-.15,1.15-.65,1.31-1.3,1.12-4.5,5.14-7.64,9.78-7.64,1.29,0,2.54.24,3.72.71.48.19,1.02.16,1.48-.08.46-.24.79-.67.91-1.17,1.49-6.5,7.2-11.05,13.88-11.05s12.87,4.98,14.03,11.83c.1.58.48,1.07,1.01,1.31.53.24,1.16.21,1.66-.1,1.57-.96,3.38-1.46,5.23-1.46,5.56,0,10.08,4.52,10.08,10.08,0,.47-.03.94-.1,1.41-.12.83.36,1.62,1.14,1.91,1.06.39,2.04,1.02,2.84,1.82,1.49,1.48,2.3,3.46,2.3,5.56,0,4.34-3.53,7.87-7.87,7.87h-21.14v3.55h21.14c6.29,0,11.41-5.12,11.41-11.41,0-3.05-1.19-5.92-3.34-8.07Z"/>
        <path class="cls-1" d="M40.76,17.17l-10.76,12.53c-.92,1.07-.16,2.73,1.26,2.73h4.85v14.89h11.82v-14.89h4.85c1.42,0,2.18-1.66,1.26-2.73l-10.76-12.53c-.66-.77-1.85-.77-2.51,0Z"/>
      </g>
    </g>
  </g>
</svg>